%TF.GenerationSoftware,KiCad,Pcbnew,10.0.0*%
%TF.CreationDate,2026-10-01T06:28:42+05:30*%
%TF.ProjectId,V3_6Channels,56335f36-4368-4616-9e6e-656c732e6b69,rev?*%
%TF.SameCoordinates,Original*%
%TF.FileFunction,Copper,L1,Top*%
%TF.FilePolarity,Positive*%
%FSLAX46Y46*%
G04 Gerber Fmt 4.6, Leading zero omitted, Abs format (unit mm)*
G04 Created by KiCad (PCBNEW 10.0.0) date 2026-10-01 06:28:42*
%MOMM*%
%LPD*%
G01*
G04 APERTURE LIST*
G04 Aperture macros list*
%AMRoundRect*
0 Rectangle with rounded corners*
0 $1 Rounding radius*
0 $2 $3 $4 $5 $6 $7 $8 $9 X,Y pos of 4 corners*
0 Add a 4 corners polygon primitive as box body*
4,1,4,$2,$3,$4,$5,$6,$7,$8,$9,$2,$3,0*
0 Add four circle primitives for the rounded corners*
1,1,$1+$1,$2,$3*
1,1,$1+$1,$4,$5*
1,1,$1+$1,$6,$7*
1,1,$1+$1,$8,$9*
0 Add four rect primitives between the rounded corners*
20,1,$1+$1,$2,$3,$4,$5,0*
20,1,$1+$1,$4,$5,$6,$7,0*
20,1,$1+$1,$6,$7,$8,$9,0*
20,1,$1+$1,$8,$9,$2,$3,0*%
G04 Aperture macros list end*
%TA.AperFunction,SMDPad,CuDef*%
%ADD10R,1.380000X1.010000*%
%TD*%
%TA.AperFunction,ComponentPad*%
%ADD11C,1.650000*%
%TD*%
%TA.AperFunction,SMDPad,CuDef*%
%ADD12R,1.010000X1.380000*%
%TD*%
%TA.AperFunction,ComponentPad*%
%ADD13R,1.130000X1.130000*%
%TD*%
%TA.AperFunction,ComponentPad*%
%ADD14C,1.130000*%
%TD*%
%TA.AperFunction,SMDPad,CuDef*%
%ADD15R,1.820000X1.740000*%
%TD*%
%TA.AperFunction,SMDPad,CuDef*%
%ADD16R,1.100000X1.000000*%
%TD*%
%TA.AperFunction,SMDPad,CuDef*%
%ADD17R,1.740000X1.820000*%
%TD*%
%TA.AperFunction,ComponentPad*%
%ADD18C,1.308000*%
%TD*%
%TA.AperFunction,SMDPad,CuDef*%
%ADD19RoundRect,0.062500X0.187500X0.237500X-0.187500X0.237500X-0.187500X-0.237500X0.187500X-0.237500X0*%
%TD*%
%TA.AperFunction,SMDPad,CuDef*%
%ADD20RoundRect,0.073750X0.911250X0.221250X-0.911250X0.221250X-0.911250X-0.221250X0.911250X-0.221250X0*%
%TD*%
%TA.AperFunction,SMDPad,CuDef*%
%ADD21RoundRect,0.068750X0.666250X0.206250X-0.666250X0.206250X-0.666250X-0.206250X0.666250X-0.206250X0*%
%TD*%
%TA.AperFunction,SMDPad,CuDef*%
%ADD22RoundRect,0.068750X0.206250X0.666250X-0.206250X0.666250X-0.206250X-0.666250X0.206250X-0.666250X0*%
%TD*%
%TA.AperFunction,SMDPad,CuDef*%
%ADD23R,1.420000X1.200000*%
%TD*%
%TA.AperFunction,ComponentPad*%
%ADD24R,1.650000X1.650000*%
%TD*%
%TA.AperFunction,SMDPad,CuDef*%
%ADD25RoundRect,0.197500X0.592500X-1.332500X0.592500X1.332500X-0.592500X1.332500X-0.592500X-1.332500X0*%
%TD*%
%TA.AperFunction,SMDPad,CuDef*%
%ADD26R,1.050000X1.300000*%
%TD*%
%TA.AperFunction,SMDPad,CuDef*%
%ADD27RoundRect,0.197500X-0.592500X1.332500X-0.592500X-1.332500X0.592500X-1.332500X0.592500X1.332500X0*%
%TD*%
%TA.AperFunction,ComponentPad*%
%ADD28R,1.508000X1.508000*%
%TD*%
%TA.AperFunction,ComponentPad*%
%ADD29C,1.508000*%
%TD*%
%TA.AperFunction,SMDPad,CuDef*%
%ADD30RoundRect,0.062500X-0.237500X0.187500X-0.237500X-0.187500X0.237500X-0.187500X0.237500X0.187500X0*%
%TD*%
%TA.AperFunction,SMDPad,CuDef*%
%ADD31R,2.120000X2.280000*%
%TD*%
%TA.AperFunction,SMDPad,CuDef*%
%ADD32R,1.770000X1.230000*%
%TD*%
%TA.AperFunction,SMDPad,CuDef*%
%ADD33RoundRect,0.062500X0.237500X-0.187500X0.237500X0.187500X-0.237500X0.187500X-0.237500X-0.187500X0*%
%TD*%
%TA.AperFunction,ViaPad*%
%ADD34C,0.500000*%
%TD*%
%TA.AperFunction,ViaPad*%
%ADD35C,0.600000*%
%TD*%
%TA.AperFunction,Conductor*%
%ADD36C,0.400000*%
%TD*%
%TA.AperFunction,Conductor*%
%ADD37C,0.300000*%
%TD*%
%TA.AperFunction,Conductor*%
%ADD38C,0.200000*%
%TD*%
%TA.AperFunction,Conductor*%
%ADD39C,0.500000*%
%TD*%
%TA.AperFunction,Conductor*%
%ADD40C,1.000000*%
%TD*%
G04 APERTURE END LIST*
D10*
%TO.P,R23,1*%
%TO.N,/SW5*%
X120000000Y-110550000D03*
%TO.P,R23,2*%
%TO.N,Net-(U7-B)*%
X120000000Y-112450000D03*
%TD*%
D11*
%TO.P,J12,1*%
%TO.N,/Rly-c1*%
X144150000Y-106500000D03*
%TO.P,J12,2*%
%TO.N,/Rly-c2*%
X146690000Y-106500000D03*
%TO.P,J12,3*%
%TO.N,/Rly-c3*%
X149230000Y-106500000D03*
%TO.P,J12,4*%
%TO.N,/Rly-c4*%
X151770000Y-106500000D03*
%TO.P,J12,5*%
%TO.N,/Rly-c5*%
X154310000Y-106500000D03*
%TO.P,J12,6*%
%TO.N,/Rly-c6*%
X156850000Y-106500000D03*
%TD*%
D12*
%TO.P,R12,1*%
%TO.N,/FB2*%
X116550000Y-93070000D03*
%TO.P,R12,2*%
%TO.N,VCC*%
X118450000Y-93070000D03*
%TD*%
D13*
%TO.P,Q1,1*%
%TO.N,/U1*%
X142000000Y-102580000D03*
D14*
%TO.P,Q1,2*%
%TO.N,/U2*%
X142000000Y-100040000D03*
%TO.P,Q1,3*%
%TO.N,/U3*%
X142000000Y-97500000D03*
%TO.P,Q1,4*%
%TO.N,/U4*%
X142000000Y-94960000D03*
%TO.P,Q1,5*%
%TO.N,/U5*%
X142000000Y-92420000D03*
%TO.P,Q1,6*%
%TO.N,/U6*%
X142000000Y-89880000D03*
%TO.P,Q1,7*%
%TO.N,unconnected-(Q1-Pad7)*%
X142000000Y-87340000D03*
%TO.P,Q1,8,E*%
%TO.N,GND*%
X142000000Y-84800000D03*
%TO.P,Q1,9*%
%TO.N,VCC*%
X134060000Y-84800000D03*
%TO.P,Q1,10*%
%TO.N,unconnected-(Q1-Pad10)*%
X134060000Y-87340000D03*
%TO.P,Q1,11*%
%TO.N,/Rly-c6*%
X134060000Y-89880000D03*
%TO.P,Q1,12*%
%TO.N,/Rly-c5*%
X134060000Y-92420000D03*
%TO.P,Q1,13*%
%TO.N,/Rly-c4*%
X134060000Y-94960000D03*
%TO.P,Q1,14*%
%TO.N,/Rly-c3*%
X134060000Y-97500000D03*
%TO.P,Q1,15*%
%TO.N,/Rly-c2*%
X134060000Y-100040000D03*
%TO.P,Q1,16*%
%TO.N,/Rly-c1*%
X134060000Y-102580000D03*
%TD*%
D15*
%TO.P,R18,1*%
%TO.N,Net-(U6-IN2)*%
X131640000Y-100810000D03*
%TO.P,R18,2*%
%TO.N,/COM4*%
X131640000Y-103190000D03*
%TD*%
D16*
%TO.P,C1,1*%
%TO.N,/CRY1*%
X158180000Y-97000000D03*
%TO.P,C1,2*%
%TO.N,GND*%
X156480000Y-97000000D03*
%TD*%
D17*
%TO.P,R21,1*%
%TO.N,/N*%
X119690000Y-106000000D03*
%TO.P,R21,2*%
%TO.N,Net-(U7-IN1)*%
X117310000Y-106000000D03*
%TD*%
D15*
%TO.P,R14,1*%
%TO.N,Net-(U5-IN2)*%
X114720000Y-103190000D03*
%TO.P,R14,2*%
%TO.N,/COM3*%
X114720000Y-100810000D03*
%TD*%
D18*
%TO.P,U2,P$1,IN1*%
%TO.N,Net-(U2-IN1)*%
X127500000Y-106000000D03*
%TO.P,U2,P$2,IN2*%
%TO.N,Net-(U2-IN2)*%
X127500000Y-108540000D03*
%TO.P,U2,P$3,NC*%
%TO.N,unconnected-(U2-NC-PadP$3)*%
X127500000Y-111080000D03*
%TO.P,U2,P$4,E*%
%TO.N,GND*%
X135120000Y-111080000D03*
%TO.P,U2,P$5,C*%
%TO.N,/FB1*%
X135120000Y-108540000D03*
%TO.P,U2,P$6,B*%
%TO.N,Net-(U2-B)*%
X135120000Y-106000000D03*
%TD*%
D19*
%TO.P,C4,1*%
%TO.N,GND*%
X157450000Y-98500000D03*
%TO.P,C4,2*%
%TO.N,VCC*%
X156550000Y-98500000D03*
%TD*%
D12*
%TO.P,R27,1*%
%TO.N,/SW6*%
X105505555Y-92960000D03*
%TO.P,R27,2*%
%TO.N,Net-(U8-B)*%
X103605555Y-92960000D03*
%TD*%
D20*
%TO.P,U1,1,RO*%
%TO.N,/RX*%
X156475000Y-87905000D03*
%TO.P,U1,2,~{RE}*%
%TO.N,/DE-RE*%
X156475000Y-86635000D03*
%TO.P,U1,3,DE*%
X156475000Y-85365000D03*
%TO.P,U1,4,DI*%
%TO.N,/TX*%
X156475000Y-84095000D03*
%TO.P,U1,5,GND*%
%TO.N,GND*%
X151525000Y-84095000D03*
%TO.P,U1,6,A*%
%TO.N,Net-(U1-A)*%
X151525000Y-85365000D03*
%TO.P,U1,7,B*%
%TO.N,Net-(U1-B)*%
X151525000Y-86635000D03*
%TO.P,U1,8,VCC*%
%TO.N,VCC*%
X151525000Y-87905000D03*
%TD*%
D15*
%TO.P,R17,1*%
%TO.N,/N*%
X131640000Y-95810000D03*
%TO.P,R17,2*%
%TO.N,Net-(U6-IN1)*%
X131640000Y-98190000D03*
%TD*%
%TO.P,R25,1*%
%TO.N,/N*%
X100500000Y-88000000D03*
%TO.P,R25,2*%
%TO.N,Net-(U8-IN1)*%
X100500000Y-90380000D03*
%TD*%
D21*
%TO.P,U3,1,PD3*%
%TO.N,/U1*%
X154170000Y-98300000D03*
%TO.P,U3,2,PD4*%
%TO.N,/U2*%
X154170000Y-97500000D03*
%TO.P,U3,3,GND*%
%TO.N,GND*%
X154170000Y-96700000D03*
%TO.P,U3,4,VCC*%
%TO.N,VCC*%
X154170000Y-95900000D03*
%TO.P,U3,5,GND*%
%TO.N,GND*%
X154170000Y-95100000D03*
%TO.P,U3,6,VCC*%
%TO.N,VCC*%
X154170000Y-94300000D03*
%TO.P,U3,7,PB6*%
%TO.N,/CRY1*%
X154170000Y-93500000D03*
%TO.P,U3,8,PB7*%
%TO.N,/CRY2*%
X154170000Y-92700000D03*
D22*
%TO.P,U3,9,PD5*%
%TO.N,/U3*%
X152800000Y-91330000D03*
%TO.P,U3,10,PD6*%
%TO.N,/U4*%
X152000000Y-91330000D03*
%TO.P,U3,11,PD7*%
%TO.N,/U5*%
X151200000Y-91330000D03*
%TO.P,U3,12,PB0*%
%TO.N,/U6*%
X150400000Y-91330000D03*
%TO.P,U3,13,PB1*%
%TO.N,unconnected-(U3-PB1-Pad13)*%
X149600000Y-91330000D03*
%TO.P,U3,14,PB2*%
%TO.N,unconnected-(U3-PB2-Pad14)*%
X148800000Y-91330000D03*
%TO.P,U3,15,PB3*%
%TO.N,/MOSI*%
X148000000Y-91330000D03*
%TO.P,U3,16,PB4*%
%TO.N,/MISO*%
X147200000Y-91330000D03*
D21*
%TO.P,U3,17,PB5*%
%TO.N,/SCK*%
X145830000Y-92700000D03*
%TO.P,U3,18,AVCC*%
%TO.N,VCC*%
X145830000Y-93500000D03*
%TO.P,U3,19,ADC6*%
%TO.N,unconnected-(U3-ADC6-Pad19)*%
X145830000Y-94300000D03*
%TO.P,U3,20,AREF*%
%TO.N,/AREF*%
X145830000Y-95100000D03*
%TO.P,U3,21,GND*%
%TO.N,GND*%
X145830000Y-95900000D03*
%TO.P,U3,22,ADC7*%
%TO.N,unconnected-(U3-ADC7-Pad22)*%
X145830000Y-96700000D03*
%TO.P,U3,23,PC0*%
%TO.N,/FB1*%
X145830000Y-97500000D03*
%TO.P,U3,24,PC1*%
%TO.N,/FB2*%
X145830000Y-98300000D03*
D22*
%TO.P,U3,25,PC2*%
%TO.N,/FB3*%
X147200000Y-99670000D03*
%TO.P,U3,26,PC3*%
%TO.N,/FB4*%
X148000000Y-99670000D03*
%TO.P,U3,27,PC4*%
%TO.N,/FB5*%
X148800000Y-99670000D03*
%TO.P,U3,28,PC5*%
%TO.N,/FB6*%
X149600000Y-99670000D03*
%TO.P,U3,29,PC6/~{RESET}*%
%TO.N,/RST*%
X150400000Y-99670000D03*
%TO.P,U3,30,PD0*%
%TO.N,/RX*%
X151200000Y-99670000D03*
%TO.P,U3,31,PD1*%
%TO.N,/TX*%
X152000000Y-99670000D03*
%TO.P,U3,32,PD2*%
%TO.N,/DE-RE*%
X152800000Y-99670000D03*
%TD*%
D19*
%TO.P,C8,1*%
%TO.N,GND*%
X138450000Y-83000000D03*
%TO.P,C8,2*%
%TO.N,VCC*%
X137550000Y-83000000D03*
%TD*%
D23*
%TO.P,R4,1*%
%TO.N,/A*%
X149000000Y-83330000D03*
%TO.P,R4,2*%
%TO.N,Net-(U1-A)*%
X149000000Y-85000000D03*
%TD*%
D12*
%TO.P,R1,1*%
%TO.N,/RST*%
X150750000Y-103000000D03*
%TO.P,R1,2*%
%TO.N,VCC*%
X152650000Y-103000000D03*
%TD*%
D24*
%TO.P,J14,1,1*%
%TO.N,/COM1*%
X129080000Y-77500000D03*
D11*
%TO.P,J14,2,2*%
%TO.N,/COM2*%
X124000000Y-77500000D03*
%TO.P,J14,3,3*%
%TO.N,/COM3*%
X118920000Y-77500000D03*
%TO.P,J14,4,4*%
%TO.N,/COM4*%
X113840000Y-77500000D03*
%TO.P,J14,5,5*%
%TO.N,/COM5*%
X108760000Y-77500000D03*
%TO.P,J14,6,6*%
%TO.N,/COM6*%
X103680000Y-77500000D03*
%TD*%
D15*
%TO.P,R26,1*%
%TO.N,Net-(U8-IN2)*%
X100500000Y-85380000D03*
%TO.P,R26,2*%
%TO.N,/COM6*%
X100500000Y-83000000D03*
%TD*%
D11*
%TO.P,J5,1*%
%TO.N,VCC*%
X96500000Y-85960000D03*
%TO.P,J5,2*%
%TO.N,/SW1*%
X96500000Y-88500000D03*
%TO.P,J5,3*%
%TO.N,/SW2*%
X96500000Y-91040000D03*
%TO.P,J5,4*%
%TO.N,/SW3*%
X96500000Y-93580000D03*
%TO.P,J5,5*%
%TO.N,/SW4*%
X96500000Y-96120000D03*
%TO.P,J5,6*%
%TO.N,/SW5*%
X96500000Y-98660000D03*
%TO.P,J5,7*%
%TO.N,/SW6*%
X96500000Y-101200000D03*
%TD*%
D19*
%TO.P,C6,1*%
%TO.N,/RST*%
X149150000Y-101500000D03*
%TO.P,C6,2*%
%TO.N,GND*%
X148250000Y-101500000D03*
%TD*%
D10*
%TO.P,R24,1*%
%TO.N,/FB5*%
X117500000Y-112400000D03*
%TO.P,R24,2*%
%TO.N,VCC*%
X117500000Y-110500000D03*
%TD*%
%TO.P,R5,1*%
%TO.N,/FB1*%
X125000000Y-112450000D03*
%TO.P,R5,2*%
%TO.N,VCC*%
X125000000Y-110550000D03*
%TD*%
D25*
%TO.P,C13,N*%
%TO.N,GND*%
X102500000Y-106225000D03*
%TO.P,C13,P*%
%TO.N,/FB5*%
X102500000Y-110775000D03*
%TD*%
D17*
%TO.P,R8,1*%
%TO.N,Net-(U2-IN2)*%
X125190000Y-108500000D03*
%TO.P,R8,2*%
%TO.N,/COM1*%
X122810000Y-108500000D03*
%TD*%
D15*
%TO.P,R13,1*%
%TO.N,/N*%
X114720000Y-96194000D03*
%TO.P,R13,2*%
%TO.N,Net-(U5-IN1)*%
X114720000Y-98574000D03*
%TD*%
D17*
%TO.P,R22,1*%
%TO.N,Net-(U7-IN2)*%
X117310000Y-108500000D03*
%TO.P,R22,2*%
%TO.N,/COM5*%
X119690000Y-108500000D03*
%TD*%
D12*
%TO.P,R15,1*%
%TO.N,/SW3*%
X107327778Y-92880000D03*
%TO.P,R15,2*%
%TO.N,Net-(U5-B)*%
X109227778Y-92880000D03*
%TD*%
%TO.P,R28,1*%
%TO.N,/FB6*%
X101783333Y-93000000D03*
%TO.P,R28,2*%
%TO.N,VCC*%
X99883333Y-93000000D03*
%TD*%
D26*
%TO.P,Y1,1*%
%TO.N,/CRY2*%
X156455000Y-92850000D03*
%TO.P,Y1,2,GND*%
%TO.N,GND*%
X156455000Y-95150000D03*
%TO.P,Y1,3*%
%TO.N,/CRY1*%
X158205000Y-95150000D03*
%TO.P,Y1,4,GND*%
%TO.N,GND*%
X158205000Y-92850000D03*
%TD*%
D23*
%TO.P,R3,1*%
%TO.N,/B*%
X149000000Y-88500000D03*
%TO.P,R3,2*%
%TO.N,Net-(U1-B)*%
X149000000Y-86830000D03*
%TD*%
D18*
%TO.P,U8,P$1,IN1*%
%TO.N,Net-(U8-IN1)*%
X108540000Y-82880000D03*
%TO.P,U8,P$2,IN2*%
%TO.N,Net-(U8-IN2)*%
X106000000Y-82880000D03*
%TO.P,U8,P$3,NC*%
%TO.N,unconnected-(U8-NC-PadP$3)*%
X103460000Y-82880000D03*
%TO.P,U8,P$4,E*%
%TO.N,GND*%
X103460000Y-90500000D03*
%TO.P,U8,P$5,C*%
%TO.N,/FB6*%
X106000000Y-90500000D03*
%TO.P,U8,P$6,B*%
%TO.N,Net-(U8-B)*%
X108540000Y-90500000D03*
%TD*%
D27*
%TO.P,C14,N*%
%TO.N,GND*%
X113000000Y-88655000D03*
%TO.P,C14,P*%
%TO.N,/FB6*%
X113000000Y-84105000D03*
%TD*%
D12*
%TO.P,R19,1*%
%TO.N,/SW4*%
X123943333Y-93000000D03*
%TO.P,R19,2*%
%TO.N,Net-(U6-B)*%
X125843333Y-93000000D03*
%TD*%
%TO.P,R20,1*%
%TO.N,/FB4*%
X127610000Y-93000000D03*
%TO.P,R20,2*%
%TO.N,VCC*%
X129510000Y-93000000D03*
%TD*%
D18*
%TO.P,U7,P$1,IN1*%
%TO.N,Net-(U7-IN1)*%
X114810000Y-111500000D03*
%TO.P,U7,P$2,IN2*%
%TO.N,Net-(U7-IN2)*%
X114810000Y-108960000D03*
%TO.P,U7,P$3,NC*%
%TO.N,unconnected-(U7-NC-PadP$3)*%
X114810000Y-106420000D03*
%TO.P,U7,P$4,E*%
%TO.N,GND*%
X107190000Y-106420000D03*
%TO.P,U7,P$5,C*%
%TO.N,/FB5*%
X107190000Y-108960000D03*
%TO.P,U7,P$6,B*%
%TO.N,Net-(U7-B)*%
X107190000Y-111500000D03*
%TD*%
D24*
%TO.P,P1,1,1*%
%TO.N,/N*%
X146420000Y-77500000D03*
D11*
%TO.P,P1,2,2*%
%TO.N,/PH*%
X151500000Y-77500000D03*
%TD*%
D28*
%TO.P,PS1,1,AC1*%
%TO.N,/PH*%
X172500000Y-81300000D03*
D29*
%TO.P,PS1,2,AC2*%
%TO.N,/N*%
X167500000Y-81300000D03*
%TO.P,PS1,3,-VO*%
%TO.N,GND*%
X177700000Y-110700000D03*
%TO.P,PS1,4,+VO*%
%TO.N,VCC*%
X162300000Y-110700000D03*
%TD*%
D17*
%TO.P,R7,1*%
%TO.N,/N*%
X122310000Y-106000000D03*
%TO.P,R7,2*%
%TO.N,Net-(U2-IN1)*%
X124690000Y-106000000D03*
%TD*%
D12*
%TO.P,R16,1*%
%TO.N,/FB3*%
X111050000Y-92920000D03*
%TO.P,R16,2*%
%TO.N,VCC*%
X112950000Y-92920000D03*
%TD*%
%TO.P,R11,1*%
%TO.N,/SW2*%
X122166667Y-93000000D03*
%TO.P,R11,2*%
%TO.N,Net-(U4-B)*%
X120266667Y-93000000D03*
%TD*%
D19*
%TO.P,C7,1*%
%TO.N,VCC*%
X153950000Y-82500000D03*
%TO.P,C7,2*%
%TO.N,GND*%
X153050000Y-82500000D03*
%TD*%
D15*
%TO.P,R9,1*%
%TO.N,/N*%
X117500000Y-88310000D03*
%TO.P,R9,2*%
%TO.N,Net-(U4-IN1)*%
X117500000Y-90690000D03*
%TD*%
D10*
%TO.P,R6,1*%
%TO.N,/SW1*%
X122500000Y-112450000D03*
%TO.P,R6,2*%
%TO.N,Net-(U2-B)*%
X122500000Y-110550000D03*
%TD*%
D11*
%TO.P,J13,1*%
%TO.N,/RX*%
X155230000Y-102500000D03*
%TO.P,J13,2*%
%TO.N,/TX*%
X157770000Y-102500000D03*
%TD*%
D18*
%TO.P,U4,P$1,IN1*%
%TO.N,Net-(U4-IN1)*%
X125060000Y-83000000D03*
%TO.P,U4,P$2,IN2*%
%TO.N,Net-(U4-IN2)*%
X122520000Y-83000000D03*
%TO.P,U4,P$3,NC*%
%TO.N,unconnected-(U4-NC-PadP$3)*%
X119980000Y-83000000D03*
%TO.P,U4,P$4,E*%
%TO.N,GND*%
X119980000Y-90620000D03*
%TO.P,U4,P$5,C*%
%TO.N,/FB2*%
X122520000Y-90620000D03*
%TO.P,U4,P$6,B*%
%TO.N,Net-(U4-B)*%
X125060000Y-90620000D03*
%TD*%
D27*
%TO.P,C11,N*%
%TO.N,GND*%
X102500000Y-102275000D03*
%TO.P,C11,P*%
%TO.N,/FB3*%
X102500000Y-97725000D03*
%TD*%
D15*
%TO.P,R10,1*%
%TO.N,Net-(U4-IN2)*%
X117500000Y-85690000D03*
%TO.P,R10,2*%
%TO.N,/COM2*%
X117500000Y-83310000D03*
%TD*%
D30*
%TO.P,C5,1*%
%TO.N,/AREF*%
X143830000Y-95550000D03*
%TO.P,C5,2*%
%TO.N,GND*%
X143830000Y-96450000D03*
%TD*%
D18*
%TO.P,U5,P$1,IN1*%
%TO.N,Net-(U5-IN1)*%
X106680000Y-103310000D03*
%TO.P,U5,P$2,IN2*%
%TO.N,Net-(U5-IN2)*%
X109220000Y-103310000D03*
%TO.P,U5,P$3,NC*%
%TO.N,unconnected-(U5-NC-PadP$3)*%
X111760000Y-103310000D03*
%TO.P,U5,P$4,E*%
%TO.N,GND*%
X111760000Y-95690000D03*
%TO.P,U5,P$5,C*%
%TO.N,/FB3*%
X109220000Y-95690000D03*
%TO.P,U5,P$6,B*%
%TO.N,Net-(U5-B)*%
X106680000Y-95690000D03*
%TD*%
D31*
%TO.P,D1,1*%
%TO.N,/A*%
X145500000Y-83500000D03*
%TO.P,D1,2*%
%TO.N,/B*%
X145500000Y-87830000D03*
%TD*%
D27*
%TO.P,C12,N*%
%TO.N,GND*%
X119140000Y-102500000D03*
%TO.P,C12,P*%
%TO.N,/FB4*%
X119140000Y-97950000D03*
%TD*%
D16*
%TO.P,C2,1*%
%TO.N,GND*%
X158180000Y-91000000D03*
%TO.P,C2,2*%
%TO.N,/CRY2*%
X156480000Y-91000000D03*
%TD*%
D32*
%TO.P,R2,1*%
%TO.N,/B*%
X156000000Y-79034000D03*
%TO.P,R2,2*%
%TO.N,Net-(J2-Pad2)*%
X156000000Y-81966000D03*
%TD*%
D11*
%TO.P,J1,1*%
%TO.N,VCC*%
X156850000Y-110740000D03*
%TO.P,J1,2*%
X154310000Y-110740000D03*
%TO.P,J1,3*%
X151770000Y-110740000D03*
%TO.P,J1,4*%
X149230000Y-110740000D03*
%TO.P,J1,5*%
X146690000Y-110740000D03*
%TO.P,J1,6*%
X144150000Y-110740000D03*
%TD*%
D27*
%TO.P,C9,N*%
%TO.N,GND*%
X139000000Y-111050000D03*
%TO.P,C9,P*%
%TO.N,/FB1*%
X139000000Y-106500000D03*
%TD*%
%TO.P,C10,N*%
%TO.N,GND*%
X129560000Y-88500000D03*
%TO.P,C10,P*%
%TO.N,/FB2*%
X129560000Y-83950000D03*
%TD*%
D18*
%TO.P,U6,P$1,IN1*%
%TO.N,Net-(U6-IN1)*%
X123640000Y-103500000D03*
%TO.P,U6,P$2,IN2*%
%TO.N,Net-(U6-IN2)*%
X126180000Y-103500000D03*
%TO.P,U6,P$3,NC*%
%TO.N,unconnected-(U6-NC-PadP$3)*%
X128720000Y-103500000D03*
%TO.P,U6,P$4,E*%
%TO.N,GND*%
X128720000Y-95880000D03*
%TO.P,U6,P$5,C*%
%TO.N,/FB4*%
X126180000Y-95880000D03*
%TO.P,U6,P$6,B*%
%TO.N,Net-(U6-B)*%
X123640000Y-95880000D03*
%TD*%
D11*
%TO.P,J11,1*%
%TO.N,GND*%
X178540000Y-76500000D03*
%TO.P,J11,2*%
%TO.N,VCC*%
X176000000Y-76500000D03*
%TO.P,J11,3*%
%TO.N,/RST*%
X173460000Y-76500000D03*
%TO.P,J11,4*%
%TO.N,/SCK*%
X170920000Y-76500000D03*
%TO.P,J11,5*%
%TO.N,/MISO*%
X168380000Y-76500000D03*
%TO.P,J11,6*%
%TO.N,/MOSI*%
X165840000Y-76500000D03*
%TD*%
D33*
%TO.P,C3,1*%
%TO.N,GND*%
X143830000Y-94450000D03*
%TO.P,C3,2*%
%TO.N,VCC*%
X143830000Y-93550000D03*
%TD*%
D24*
%TO.P,J3,1,1*%
%TO.N,GND*%
X141263750Y-77500000D03*
D11*
%TO.P,J3,2,2*%
%TO.N,/A*%
X137763750Y-77500000D03*
%TO.P,J3,3,3*%
%TO.N,/B*%
X134263750Y-77500000D03*
%TD*%
%TO.P,J2,1*%
%TO.N,/A*%
X159460000Y-76500000D03*
%TO.P,J2,2*%
%TO.N,Net-(J2-Pad2)*%
X162000000Y-76500000D03*
%TD*%
D34*
%TO.N,GND*%
X162215380Y-101365380D03*
X141000000Y-82850000D03*
X128000000Y-88000000D03*
X110000000Y-91500000D03*
X147350000Y-98485000D03*
D35*
X151708793Y-97300000D03*
D34*
X116000000Y-87000000D03*
X111000000Y-87500000D03*
X116500000Y-103500000D03*
X135500000Y-86500000D03*
X120000000Y-87000000D03*
D35*
X153050000Y-84000000D03*
D34*
X154600000Y-84000000D03*
X147850000Y-101000000D03*
%TO.N,VCC*%
X129500000Y-112000000D03*
X116000000Y-91500000D03*
X137000000Y-84500000D03*
X151525000Y-89025000D03*
X136500000Y-88500000D03*
D35*
X113000000Y-91500000D03*
D34*
X111500000Y-110065000D03*
D35*
X101000000Y-106500000D03*
D34*
X152985000Y-93500000D03*
D35*
%TO.N,/RST*%
X150400000Y-101500000D03*
%TO.N,/DE-RE*%
X164000000Y-102000000D03*
X160500000Y-105500000D03*
%TO.N,/SW3*%
X105000000Y-94500000D03*
D34*
%TO.N,/SW4*%
X115950000Y-95004914D03*
%TO.N,/SW5*%
X118599000Y-109807329D03*
D35*
%TO.N,/SW6*%
X100750000Y-96820000D03*
D34*
%TO.N,/SW1*%
X121140002Y-112750000D03*
D35*
X99086090Y-110913910D03*
%TO.N,/U1*%
X153000000Y-98300000D03*
%TO.N,/U6*%
X148000000Y-94500000D03*
%TO.N,/SCK*%
X171000000Y-87500000D03*
X147497170Y-93490951D03*
%TO.N,/U3*%
X150610001Y-97496291D03*
%TO.N,/U2*%
X150538183Y-98376738D03*
D34*
%TO.N,/FB6*%
X149450000Y-96418203D03*
X139000000Y-90000000D03*
X126500000Y-80500000D03*
%TO.N,/FB4*%
X147014461Y-94064968D03*
D35*
%TO.N,/U4*%
X150300000Y-96758793D03*
D34*
%TO.N,/FB5*%
X140701000Y-112750000D03*
X149500000Y-95150000D03*
D35*
X111250000Y-105250000D03*
D34*
X161000000Y-97500000D03*
%TO.N,/FB2*%
X144310380Y-98189620D03*
X140340090Y-94630470D03*
%TO.N,/FB3*%
X149634591Y-103365409D03*
D35*
%TO.N,/RX*%
X163000000Y-102500000D03*
%TO.N,/MOSI*%
X166000000Y-87500000D03*
X149693894Y-92565000D03*
D34*
%TO.N,/FB1*%
X138722554Y-95277445D03*
D35*
%TO.N,/TX*%
X167000000Y-100000000D03*
%TO.N,/MISO*%
X147470659Y-92529341D03*
X168655000Y-87500000D03*
D34*
%TO.N,/SW2*%
X116349001Y-94429762D03*
%TO.N,/COM1*%
X121309470Y-107611000D03*
%TO.N,/COM3*%
X117000000Y-101000000D03*
%TO.N,/COM4*%
X129500000Y-102011000D03*
%TO.N,/COM5*%
X121000000Y-109000000D03*
%TO.N,Net-(U7-B)*%
X118941002Y-112149000D03*
%TD*%
%TO.N,GND*%
D36*
X161710327Y-96355327D02*
X161710327Y-97289673D01*
X153050000Y-84000000D02*
X152955000Y-84095000D01*
X135374000Y-86374000D02*
X135500000Y-86500000D01*
D37*
X143830000Y-96450000D02*
X143554260Y-96450000D01*
D36*
X146914918Y-95900000D02*
X145830000Y-95900000D01*
X160651000Y-96849000D02*
X160651000Y-96349000D01*
X155781000Y-88601000D02*
X155365058Y-88601000D01*
X156480000Y-97000000D02*
X156480000Y-95175000D01*
D37*
X143104260Y-95175740D02*
X143104260Y-96000000D01*
D36*
X120000000Y-87000000D02*
X116000000Y-87000000D01*
D37*
X145161978Y-95900000D02*
X145830000Y-95900000D01*
D36*
X129060000Y-88000000D02*
X129560000Y-88500000D01*
X131686000Y-86374000D02*
X135374000Y-86374000D01*
D38*
X135150000Y-111050000D02*
X135120000Y-111080000D01*
D36*
X162215380Y-97794726D02*
X162215380Y-101365380D01*
X155365058Y-88601000D02*
X154600000Y-87835942D01*
X142000000Y-83850000D02*
X141000000Y-82850000D01*
X111655000Y-88655000D02*
X113000000Y-88655000D01*
X158205000Y-92850000D02*
X161710327Y-96355327D01*
X111627000Y-91500000D02*
X111956000Y-91829000D01*
X140200000Y-83000000D02*
X142000000Y-84800000D01*
X102500000Y-102275000D02*
X102500000Y-106225000D01*
X153307268Y-96824000D02*
X153133268Y-96998000D01*
X154046000Y-96824000D02*
X153307268Y-96824000D01*
X113000000Y-88655000D02*
X105305000Y-88655000D01*
X111956000Y-95494000D02*
X111760000Y-95690000D01*
X159000000Y-98500000D02*
X160651000Y-96849000D01*
X129560000Y-88500000D02*
X131686000Y-86374000D01*
D37*
X143554260Y-96450000D02*
X143104260Y-96000000D01*
D36*
X129560000Y-88500000D02*
X128604000Y-89456000D01*
X142000000Y-84800000D02*
X142000000Y-83850000D01*
X139000000Y-111050000D02*
X135150000Y-111050000D01*
X153050000Y-84000000D02*
X153050000Y-82500000D01*
X161710327Y-97289673D02*
X162215380Y-97794726D01*
X154220000Y-95150000D02*
X154170000Y-95100000D01*
X152460694Y-96998000D02*
X152059694Y-97399000D01*
X116500000Y-103500000D02*
X118140000Y-103500000D01*
X111956000Y-91829000D02*
X111956000Y-95494000D01*
X110000000Y-91500000D02*
X111627000Y-91500000D01*
X147350000Y-97850000D02*
X147012918Y-97512918D01*
X158205000Y-92850000D02*
X158205000Y-91025000D01*
X154170000Y-95100000D02*
X156405000Y-95100000D01*
X128604000Y-95764000D02*
X128720000Y-95880000D01*
X151807793Y-97399000D02*
X151708793Y-97300000D01*
X156480000Y-97000000D02*
X157450000Y-97970000D01*
X105305000Y-88655000D02*
X103460000Y-90500000D01*
X158205000Y-91025000D02*
X158180000Y-91000000D01*
X106995000Y-106225000D02*
X107190000Y-106420000D01*
X147012918Y-97512918D02*
X147012918Y-95998000D01*
X102500000Y-106225000D02*
X106995000Y-106225000D01*
X105175000Y-102275000D02*
X102500000Y-102275000D01*
X156405000Y-95100000D02*
X156455000Y-95150000D01*
X152955000Y-84095000D02*
X151525000Y-84095000D01*
X147012918Y-95998000D02*
X146914918Y-95900000D01*
X128000000Y-88000000D02*
X129060000Y-88000000D01*
D37*
X144611978Y-96450000D02*
X145161978Y-95900000D01*
X143830000Y-96450000D02*
X144611978Y-96450000D01*
D36*
X160651000Y-96349000D02*
X161177500Y-95822500D01*
X153133268Y-96998000D02*
X152460694Y-96998000D01*
X158180000Y-91000000D02*
X155781000Y-88601000D01*
X148250000Y-101500000D02*
X148250000Y-101400000D01*
X148250000Y-101400000D02*
X147850000Y-101000000D01*
X111000000Y-87500000D02*
X111000000Y-88000000D01*
X111760000Y-95690000D02*
X105175000Y-102275000D01*
X147350000Y-98485000D02*
X147350000Y-97850000D01*
X138450000Y-83000000D02*
X140200000Y-83000000D01*
X154600000Y-87835942D02*
X154600000Y-84000000D01*
X111000000Y-88000000D02*
X111655000Y-88655000D01*
X156480000Y-95175000D02*
X156455000Y-95150000D01*
X157450000Y-97970000D02*
X157450000Y-98500000D01*
X152059694Y-97399000D02*
X151807793Y-97399000D01*
X128604000Y-89456000D02*
X128604000Y-95764000D01*
X157450000Y-98500000D02*
X159000000Y-98500000D01*
X118140000Y-103500000D02*
X119140000Y-102500000D01*
D37*
X143830000Y-94450000D02*
X143104260Y-95175740D01*
%TO.N,/CRY1*%
D36*
X158180000Y-97000000D02*
X158180000Y-95175000D01*
X154908732Y-93500000D02*
X154170000Y-93500000D01*
X158205000Y-95150000D02*
X157055000Y-94000000D01*
X157055000Y-94000000D02*
X155408732Y-94000000D01*
X158180000Y-95175000D02*
X158205000Y-95150000D01*
X155408732Y-94000000D02*
X154908732Y-93500000D01*
%TO.N,/CRY2*%
X156480000Y-91000000D02*
X156480000Y-92825000D01*
X156455000Y-92850000D02*
X156305000Y-92700000D01*
X156480000Y-92825000D02*
X156455000Y-92850000D01*
X156305000Y-92700000D02*
X154170000Y-92700000D01*
%TO.N,VCC*%
X156550000Y-98682220D02*
X161201000Y-103333220D01*
X99883333Y-93000000D02*
X99500000Y-92616667D01*
D37*
X116500000Y-92000000D02*
X117380000Y-92000000D01*
D36*
X152985000Y-93853732D02*
X152985000Y-93500000D01*
X176000000Y-83491364D02*
X176000000Y-76500000D01*
X149930000Y-89500000D02*
X151525000Y-87905000D01*
X153431268Y-94300000D02*
X152985000Y-93853732D01*
X141599869Y-91454000D02*
X142116058Y-91454000D01*
X162843174Y-88201000D02*
X171290364Y-88201000D01*
X154432000Y-82982000D02*
X157624174Y-82982000D01*
X99683333Y-93200000D02*
X99883333Y-93000000D01*
X155500000Y-98000000D02*
X156050000Y-98000000D01*
X113000000Y-91500000D02*
X113000000Y-92870000D01*
D39*
X133639159Y-88864000D02*
X129510000Y-92993159D01*
D36*
X141034000Y-92820131D02*
X141034000Y-92019869D01*
D38*
X113000000Y-92870000D02*
X112950000Y-92920000D01*
D36*
X157734636Y-103726000D02*
X160209636Y-106201000D01*
D37*
X116000000Y-91500000D02*
X116500000Y-92000000D01*
X117380000Y-92000000D02*
X118450000Y-93070000D01*
D36*
X160500000Y-107500000D02*
X160500000Y-108900000D01*
X152510000Y-87905000D02*
X153950000Y-86465000D01*
X144070058Y-89500000D02*
X149930000Y-89500000D01*
X160209636Y-106201000D02*
X160500000Y-106201000D01*
X145780000Y-93550000D02*
X145830000Y-93500000D01*
X137000000Y-84500000D02*
X137000000Y-83550000D01*
D37*
X125000000Y-110550000D02*
X124050000Y-111500000D01*
D36*
X153950000Y-86465000D02*
X153950000Y-82500000D01*
X145830000Y-93500000D02*
X141713869Y-93500000D01*
X157260000Y-110740000D02*
X144150000Y-110740000D01*
X99189000Y-91651000D02*
X99189000Y-88649000D01*
D39*
X111500000Y-110065000D02*
X117065000Y-110065000D01*
D36*
X156050000Y-98000000D02*
X156550000Y-98500000D01*
D39*
X99883333Y-98633333D02*
X101000000Y-99750000D01*
D36*
X141034000Y-92019869D02*
X141599869Y-91454000D01*
D39*
X101000000Y-99750000D02*
X101000000Y-106500000D01*
D36*
X126585000Y-112135000D02*
X129365000Y-112135000D01*
X151525000Y-87905000D02*
X152510000Y-87905000D01*
D39*
X129510000Y-92993159D02*
X129510000Y-93000000D01*
D36*
X99189000Y-88649000D02*
X96500000Y-85960000D01*
X171290364Y-88201000D02*
X176000000Y-83491364D01*
X99500000Y-92616667D02*
X99500000Y-91651000D01*
X160500000Y-106201000D02*
X160500000Y-107500000D01*
D39*
X136500000Y-88500000D02*
X136228000Y-88500000D01*
D36*
X160500000Y-107500000D02*
X157260000Y-110740000D01*
D39*
X135864000Y-88864000D02*
X133639159Y-88864000D01*
D36*
X154170000Y-95900000D02*
X153431268Y-95900000D01*
D39*
X99883333Y-93000000D02*
X99883333Y-98633333D01*
D36*
X153200000Y-94300000D02*
X154170000Y-94300000D01*
X155500000Y-96491268D02*
X155500000Y-98000000D01*
D37*
X119153000Y-111500000D02*
X119000000Y-111347000D01*
X124050000Y-111500000D02*
X119153000Y-111500000D01*
D36*
X153950000Y-82500000D02*
X154432000Y-82982000D01*
X160790364Y-106201000D02*
X161201000Y-105790364D01*
D39*
X117065000Y-110065000D02*
X117500000Y-110500000D01*
D36*
X160500000Y-108900000D02*
X162300000Y-110700000D01*
X157624174Y-82982000D02*
X162843174Y-88201000D01*
D37*
X119000000Y-111347000D02*
X118347000Y-111347000D01*
D36*
X99500000Y-91651000D02*
X99189000Y-91651000D01*
X154908732Y-95900000D02*
X155500000Y-96491268D01*
X141713869Y-93500000D02*
X141034000Y-92820131D01*
X153000000Y-94500000D02*
X153200000Y-94300000D01*
X137000000Y-83550000D02*
X137550000Y-83000000D01*
X153431268Y-95900000D02*
X153000000Y-95468732D01*
X152650000Y-103000000D02*
X153376000Y-103726000D01*
X151525000Y-87905000D02*
X151525000Y-89025000D01*
X153376000Y-103726000D02*
X157734636Y-103726000D01*
X153000000Y-95468732D02*
X153000000Y-94500000D01*
X160500000Y-106201000D02*
X160790364Y-106201000D01*
X156550000Y-98500000D02*
X156550000Y-98682220D01*
D37*
X118347000Y-111347000D02*
X117500000Y-110500000D01*
D39*
X136228000Y-88500000D02*
X135864000Y-88864000D01*
D36*
X125000000Y-110550000D02*
X126585000Y-112135000D01*
X142116058Y-91454000D02*
X144070058Y-89500000D01*
X161201000Y-105790364D02*
X161201000Y-103333220D01*
X129365000Y-112135000D02*
X129500000Y-112000000D01*
X154170000Y-94300000D02*
X153431268Y-94300000D01*
%TO.N,/Rly-c6*%
D37*
X147546942Y-103197000D02*
X148546942Y-103197000D01*
X155023000Y-104673000D02*
X156850000Y-106500000D01*
X146092942Y-101743000D02*
X147546942Y-103197000D01*
X141525869Y-99000000D02*
X142500000Y-99000000D01*
X148546942Y-103197000D02*
X149421942Y-104072000D01*
X135026000Y-92500131D02*
X141525869Y-99000000D01*
X135026000Y-90846000D02*
X135026000Y-92500131D01*
X149421942Y-104072000D02*
X151832570Y-104072000D01*
X145243000Y-101743000D02*
X146092942Y-101743000D01*
X152433570Y-104673000D02*
X155023000Y-104673000D01*
X142500000Y-99000000D02*
X145243000Y-101743000D01*
X134060000Y-89880000D02*
X135026000Y-90846000D01*
X151832570Y-104072000D02*
X152433570Y-104673000D01*
%TO.N,/Rly-c5*%
D36*
X143000000Y-101013000D02*
X143000000Y-101000000D01*
X151583628Y-104673000D02*
X149173000Y-104673000D01*
X134060000Y-93560000D02*
X134060000Y-92420000D01*
X143000000Y-101000000D02*
X142994000Y-101006000D01*
X142994000Y-101006000D02*
X141506000Y-101006000D01*
X147298000Y-103798000D02*
X145844000Y-102344000D01*
X143500000Y-101000000D02*
X143227942Y-101000000D01*
X148298000Y-103798000D02*
X147298000Y-103798000D01*
X152184628Y-105274000D02*
X151583628Y-104673000D01*
X144844000Y-102344000D02*
X143500000Y-101000000D01*
X141506000Y-101006000D02*
X134060000Y-93560000D01*
X143214942Y-101013000D02*
X143000000Y-101013000D01*
X153084000Y-105274000D02*
X152184628Y-105274000D01*
X145844000Y-102344000D02*
X144844000Y-102344000D01*
X154310000Y-106500000D02*
X153084000Y-105274000D01*
X143227942Y-101000000D02*
X143214942Y-101013000D01*
X149173000Y-104673000D02*
X148298000Y-103798000D01*
%TO.N,/Rly-c3*%
X147730000Y-105000000D02*
X146500000Y-105000000D01*
X141034000Y-103546000D02*
X134988000Y-97500000D01*
X149230000Y-106500000D02*
X147730000Y-105000000D01*
X134988000Y-97500000D02*
X134060000Y-97500000D01*
X145046000Y-103546000D02*
X141034000Y-103546000D01*
X146500000Y-105000000D02*
X145046000Y-103546000D01*
%TO.N,/Rly-c4*%
X145445000Y-102945000D02*
X144520029Y-102945000D01*
X147978942Y-104399000D02*
X146899000Y-104399000D01*
X146899000Y-104399000D02*
X145445000Y-102945000D01*
X150544000Y-105274000D02*
X148853942Y-105274000D01*
X142107000Y-101607000D02*
X140721000Y-101607000D01*
X148853942Y-105274000D02*
X147978942Y-104399000D01*
X143189029Y-101614000D02*
X142114000Y-101614000D01*
X151770000Y-106500000D02*
X150544000Y-105274000D01*
X140714000Y-101614000D02*
X134060000Y-94960000D01*
X142114000Y-101614000D02*
X142107000Y-101607000D01*
X144520029Y-102945000D02*
X143189029Y-101614000D01*
X140721000Y-101607000D02*
X140714000Y-101614000D01*
%TO.N,/Rly-c2*%
X140785058Y-104147000D02*
X140606058Y-103968000D01*
X144337000Y-104147000D02*
X140785058Y-104147000D01*
X136040000Y-100040000D02*
X134060000Y-100040000D01*
X140606058Y-103968000D02*
X139968000Y-103968000D01*
X146690000Y-106500000D02*
X144337000Y-104147000D01*
X139968000Y-103968000D02*
X136040000Y-100040000D01*
%TO.N,/Rly-c1*%
X143248000Y-104748000D02*
X144150000Y-105650000D01*
X140536116Y-104748000D02*
X143248000Y-104748000D01*
X140357116Y-104569000D02*
X140536116Y-104748000D01*
X134060000Y-102580000D02*
X137580000Y-102580000D01*
X137580000Y-102580000D02*
X139569000Y-104569000D01*
X139569000Y-104569000D02*
X140357116Y-104569000D01*
X144150000Y-105650000D02*
X144150000Y-106500000D01*
%TO.N,/RST*%
X150750000Y-103000000D02*
X150750000Y-101850000D01*
X150750000Y-101850000D02*
X150400000Y-101500000D01*
X149250000Y-101500000D02*
X150750000Y-103000000D01*
X150400000Y-101500000D02*
X150400000Y-99670000D01*
X149150000Y-101500000D02*
X149250000Y-101500000D01*
%TO.N,/B*%
X134263750Y-77500000D02*
X135489750Y-76274000D01*
X141500000Y-80000000D02*
X143500000Y-80000000D01*
X144500000Y-81000000D02*
X150815058Y-81000000D01*
X148665000Y-88835000D02*
X146505000Y-88835000D01*
X143500000Y-80000000D02*
X144500000Y-81000000D01*
X145500000Y-87830000D02*
X145500000Y-86290000D01*
X138271576Y-76274000D02*
X138989750Y-76992174D01*
X141210000Y-82000000D02*
X137000000Y-82000000D01*
X138989750Y-76992174D02*
X138989750Y-77489750D01*
X150815058Y-81000000D02*
X151916058Y-79899000D01*
X145500000Y-86290000D02*
X141210000Y-82000000D01*
X138989750Y-77489750D02*
X141500000Y-80000000D01*
X134263750Y-79263750D02*
X134263750Y-77500000D01*
X151916058Y-79899000D02*
X155135000Y-79899000D01*
X135489750Y-76274000D02*
X138271576Y-76274000D01*
X137000000Y-82000000D02*
X134263750Y-79263750D01*
X149000000Y-88500000D02*
X148665000Y-88835000D01*
X146505000Y-88835000D02*
X145500000Y-87830000D01*
X155135000Y-79899000D02*
X156000000Y-79034000D01*
%TO.N,/A*%
X145665000Y-83665000D02*
X145500000Y-83500000D01*
X159460000Y-78040000D02*
X159460000Y-76500000D01*
X138000000Y-77940058D02*
X138000000Y-77736250D01*
X149000000Y-83330000D02*
X148665000Y-83665000D01*
X149335000Y-83330000D02*
X152165000Y-80500000D01*
X157000000Y-80500000D02*
X159460000Y-78040000D01*
X138000000Y-77736250D02*
X137763750Y-77500000D01*
X149000000Y-83330000D02*
X149335000Y-83330000D01*
X143559942Y-83500000D02*
X138000000Y-77940058D01*
X152165000Y-80500000D02*
X157000000Y-80500000D01*
X148665000Y-83665000D02*
X145665000Y-83665000D01*
X145500000Y-83500000D02*
X143559942Y-83500000D01*
%TO.N,Net-(J2-Pad2)*%
X156534000Y-81966000D02*
X162000000Y-76500000D01*
X156000000Y-81966000D02*
X156534000Y-81966000D01*
%TO.N,Net-(U1-B)*%
X149530000Y-86635000D02*
X149335000Y-86830000D01*
X149335000Y-86830000D02*
X149000000Y-86830000D01*
X151525000Y-86635000D02*
X149530000Y-86635000D01*
%TO.N,Net-(U1-A)*%
X149030000Y-85365000D02*
X149000000Y-85335000D01*
X151525000Y-85365000D02*
X149030000Y-85365000D01*
X149000000Y-85335000D02*
X149000000Y-85000000D01*
%TO.N,/DE-RE*%
X156475000Y-85365000D02*
X156475000Y-86635000D01*
X164000000Y-92890000D02*
X164000000Y-102000000D01*
X156475000Y-85365000D02*
X164000000Y-92890000D01*
X160500000Y-103500000D02*
X160500957Y-103499043D01*
X156671913Y-99670000D02*
X152800000Y-99670000D01*
X160500000Y-105500000D02*
X160500000Y-103500000D01*
X160500957Y-103499043D02*
X156671913Y-99670000D01*
%TO.N,/SW3*%
X107327778Y-92880000D02*
X107327778Y-93526111D01*
X106353889Y-94500000D02*
X105000000Y-94500000D01*
X107327778Y-93526111D02*
X106353889Y-94500000D01*
%TO.N,/SW4*%
X121443333Y-95500000D02*
X123943333Y-93000000D01*
X115950000Y-95004914D02*
X116445086Y-95500000D01*
X116445086Y-95500000D02*
X121443333Y-95500000D01*
%TO.N,/SW5*%
X119341671Y-110550000D02*
X118599000Y-109807329D01*
X120000000Y-110550000D02*
X119341671Y-110550000D01*
%TO.N,/SW6*%
X101080000Y-95420000D02*
X103045555Y-95420000D01*
X103045555Y-95420000D02*
X105505555Y-92960000D01*
X100750000Y-95750000D02*
X101080000Y-95420000D01*
X100750000Y-96820000D02*
X100750000Y-95750000D01*
%TO.N,/SW1*%
X98500000Y-90500000D02*
X98500000Y-95500000D01*
X96500000Y-88500000D02*
X98500000Y-90500000D01*
X98500000Y-95500000D02*
X99086090Y-96086090D01*
X122200000Y-112750000D02*
X122500000Y-112450000D01*
X121140002Y-112750000D02*
X122200000Y-112750000D01*
X99086090Y-96086090D02*
X99086090Y-110913910D01*
%TO.N,/U1*%
X153000000Y-98300000D02*
X154170000Y-98300000D01*
%TO.N,/U6*%
X148000000Y-94500000D02*
X149500000Y-94500000D01*
X150400000Y-93600000D02*
X150400000Y-91330000D01*
X149500000Y-94500000D02*
X150400000Y-93600000D01*
%TO.N,/SCK*%
X170920000Y-87420000D02*
X170920000Y-76500000D01*
X147497170Y-93490951D02*
X147359683Y-93490951D01*
X146568732Y-92700000D02*
X145830000Y-92700000D01*
X147359683Y-93490951D02*
X146568732Y-92700000D01*
X171000000Y-87500000D02*
X170920000Y-87420000D01*
%TO.N,/U5*%
X144226000Y-90194000D02*
X142000000Y-92420000D01*
X151200000Y-91330000D02*
X151200000Y-90591268D01*
X151200000Y-90591268D02*
X150802732Y-90194000D01*
X150802732Y-90194000D02*
X144226000Y-90194000D01*
%TO.N,/U3*%
X151601000Y-95309633D02*
X151601000Y-95098884D01*
X151008793Y-95901840D02*
X151601000Y-95309633D01*
X151602000Y-95097884D02*
X151602000Y-93747942D01*
X150610001Y-97496291D02*
X151008793Y-97097499D01*
X152601000Y-92748942D02*
X152601000Y-92399000D01*
X151601000Y-95098884D02*
X151602000Y-95097884D01*
X151602000Y-93747942D02*
X152601000Y-92748942D01*
X152800000Y-92200000D02*
X152800000Y-91330000D01*
X151008793Y-97097499D02*
X151008793Y-95901840D01*
X152601000Y-92399000D02*
X152800000Y-92200000D01*
%TO.N,/U2*%
X150883352Y-98376738D02*
X150538183Y-98376738D01*
X152308636Y-98000000D02*
X151260090Y-98000000D01*
X153290364Y-97599000D02*
X152709636Y-97599000D01*
X151260090Y-98000000D02*
X150883352Y-98376738D01*
X154046000Y-97624000D02*
X153315364Y-97624000D01*
X152709636Y-97599000D02*
X152308636Y-98000000D01*
X153315364Y-97624000D02*
X153290364Y-97599000D01*
X154170000Y-97500000D02*
X154046000Y-97624000D01*
%TO.N,/FB6*%
D37*
X107055000Y-89445000D02*
X106000000Y-90500000D01*
D36*
X102914333Y-91869000D02*
X103846613Y-91869000D01*
X113000000Y-84105000D02*
X113000000Y-84552500D01*
X139000000Y-88000000D02*
X139000000Y-90000000D01*
D37*
X113000000Y-85948832D02*
X114141000Y-87089832D01*
X114141000Y-90220168D02*
X113512168Y-90849000D01*
X110310285Y-90849000D02*
X108906285Y-89445000D01*
X114141000Y-89639504D02*
X114149000Y-89647504D01*
D36*
X131500000Y-80500000D02*
X139000000Y-88000000D01*
D37*
X114141000Y-87089832D02*
X114141000Y-89639504D01*
X114141000Y-89859000D02*
X114141000Y-90220168D01*
X108906285Y-89445000D02*
X107055000Y-89445000D01*
D36*
X149450000Y-96418203D02*
X149450000Y-96600000D01*
D37*
X113000000Y-84105000D02*
X113000000Y-85948832D01*
D36*
X149450000Y-96600000D02*
X149600000Y-96750000D01*
D37*
X114149000Y-89851000D02*
X114141000Y-89859000D01*
X113512168Y-90849000D02*
X110310285Y-90849000D01*
D36*
X149600000Y-96750000D02*
X149600000Y-99670000D01*
X101783333Y-93000000D02*
X102914333Y-91869000D01*
X103846613Y-91869000D02*
X105215613Y-90500000D01*
X126500000Y-80500000D02*
X131500000Y-80500000D01*
D37*
X114149000Y-89647504D02*
X114149000Y-89851000D01*
D36*
X105215613Y-90500000D02*
X106000000Y-90500000D01*
%TO.N,/FB4*%
X147613918Y-95880526D02*
X147613918Y-95613918D01*
X148000000Y-96266608D02*
X147613918Y-95880526D01*
X124110000Y-97950000D02*
X126180000Y-95880000D01*
X148000000Y-99670000D02*
X148000000Y-96266608D01*
X126180000Y-95880000D02*
X126180000Y-94430000D01*
X147014461Y-95014461D02*
X147014461Y-94064968D01*
X126180000Y-94430000D02*
X127610000Y-93000000D01*
X119140000Y-97950000D02*
X124110000Y-97950000D01*
X147613918Y-95613918D02*
X147014461Y-95014461D01*
%TO.N,/U4*%
X152000000Y-92500000D02*
X152000000Y-91330000D01*
X151001000Y-93499000D02*
X152000000Y-92500000D01*
X150407793Y-96651000D02*
X150407793Y-95442149D01*
X151001000Y-94848942D02*
X151001000Y-93499000D01*
X150300000Y-96758793D02*
X150407793Y-96651000D01*
X150407793Y-95442149D02*
X151001000Y-94848942D01*
%TO.N,/FB5*%
X161802000Y-103084278D02*
X161500000Y-102782278D01*
D37*
X117500000Y-112400000D02*
X116794000Y-113106000D01*
D36*
X161500000Y-102782278D02*
X161500000Y-98000000D01*
D37*
X111336000Y-113106000D02*
X107190000Y-108960000D01*
D36*
X161802000Y-106302000D02*
X161802000Y-103084278D01*
X140750000Y-112799000D02*
X163701000Y-112799000D01*
X161500000Y-98000000D02*
X161000000Y-97500000D01*
X164000000Y-112500000D02*
X164000000Y-108500000D01*
D37*
X107190000Y-108960000D02*
X107190000Y-108106504D01*
D36*
X163701000Y-112799000D02*
X164000000Y-112500000D01*
X148800000Y-95850000D02*
X148800000Y-99670000D01*
X164000000Y-108500000D02*
X161802000Y-106302000D01*
D37*
X107190000Y-108106504D02*
X110046504Y-105250000D01*
D36*
X149500000Y-95150000D02*
X148800000Y-95850000D01*
D37*
X110046504Y-105250000D02*
X111250000Y-105250000D01*
X116794000Y-113106000D02*
X111336000Y-113106000D01*
D36*
X140701000Y-112750000D02*
X140750000Y-112799000D01*
X104315000Y-108960000D02*
X107190000Y-108960000D01*
X102500000Y-110775000D02*
X104315000Y-108960000D01*
%TO.N,/FB2*%
D37*
X116550000Y-93070000D02*
X117828000Y-94348000D01*
D36*
X129560000Y-83950000D02*
X126505000Y-87005000D01*
X119500000Y-91675000D02*
X120416996Y-91675000D01*
X140304339Y-94630470D02*
X137500000Y-91826131D01*
D37*
X119152000Y-94348000D02*
X119306000Y-94194000D01*
D36*
X120416996Y-91675000D02*
X121471996Y-90620000D01*
X145630000Y-98500000D02*
X145830000Y-98300000D01*
X140340090Y-94630470D02*
X140304339Y-94630470D01*
X137500000Y-91826131D02*
X137500000Y-87349942D01*
D37*
X119306000Y-94194000D02*
X119306000Y-91869000D01*
X119306000Y-91869000D02*
X119500000Y-91675000D01*
D36*
X121471996Y-90620000D02*
X122520000Y-90620000D01*
X144310380Y-98189620D02*
X144620760Y-98500000D01*
X122890000Y-90620000D02*
X122520000Y-90620000D01*
X131376000Y-85766000D02*
X129560000Y-83950000D01*
X144620760Y-98500000D02*
X145630000Y-98500000D01*
X137500000Y-87349942D02*
X135916058Y-85766000D01*
X135916058Y-85766000D02*
X131376000Y-85766000D01*
X126505000Y-87005000D02*
X122890000Y-90620000D01*
D37*
X117828000Y-94348000D02*
X119152000Y-94348000D01*
%TO.N,/FB3*%
D36*
X111050000Y-93860000D02*
X109705000Y-95205000D01*
X146849942Y-101650058D02*
X147200000Y-101300000D01*
X109705000Y-95205000D02*
X109220000Y-95690000D01*
X111050000Y-92880000D02*
X111050000Y-93860000D01*
X147200000Y-101300000D02*
X147200000Y-99670000D01*
X147199884Y-102000000D02*
X146849942Y-101650058D01*
X148769182Y-102500000D02*
X148167780Y-102500000D01*
X109705000Y-95205000D02*
X107185000Y-97725000D01*
X148167780Y-102500000D02*
X147667780Y-102000000D01*
X107185000Y-97725000D02*
X102140000Y-97725000D01*
X149634591Y-103365409D02*
X148769182Y-102500000D01*
X147667780Y-102000000D02*
X147199884Y-102000000D01*
%TO.N,/RX*%
X163000000Y-93118058D02*
X157786942Y-87905000D01*
X154405000Y-101675000D02*
X152416326Y-101675000D01*
X151200000Y-100458674D02*
X151200000Y-99670000D01*
X155230000Y-102500000D02*
X154405000Y-101675000D01*
X163000000Y-102500000D02*
X163000000Y-93118058D01*
X157786942Y-87905000D02*
X156475000Y-87905000D01*
X152416326Y-101675000D02*
X151200000Y-100458674D01*
%TO.N,/MOSI*%
X149693894Y-92565000D02*
X148496268Y-92565000D01*
X148496268Y-92565000D02*
X148000000Y-92068732D01*
X148000000Y-92068732D02*
X148000000Y-91330000D01*
X165840000Y-87340000D02*
X166000000Y-87500000D01*
X165840000Y-76500000D02*
X165840000Y-87340000D01*
%TO.N,/FB1*%
X140277445Y-95277445D02*
X140926000Y-95926000D01*
X125349000Y-112799000D02*
X125000000Y-112450000D01*
X139000000Y-106500000D02*
X137160000Y-106500000D01*
X138722554Y-95277445D02*
X140277445Y-95277445D01*
X135120000Y-108540000D02*
X130861000Y-112799000D01*
X141926000Y-95926000D02*
X143500000Y-97500000D01*
X143500000Y-97500000D02*
X145830000Y-97500000D01*
X137160000Y-106500000D02*
X135120000Y-108540000D01*
X140926000Y-95926000D02*
X141926000Y-95926000D01*
X130861000Y-112799000D02*
X125349000Y-112799000D01*
%TO.N,/TX*%
X156270000Y-101000000D02*
X157770000Y-102500000D01*
X167000000Y-100000000D02*
X167000000Y-93635000D01*
X152591268Y-101000000D02*
X156270000Y-101000000D01*
X157460000Y-84095000D02*
X156475000Y-84095000D01*
X152000000Y-100408732D02*
X152591268Y-101000000D01*
X167000000Y-93635000D02*
X157460000Y-84095000D01*
X152000000Y-99670000D02*
X152000000Y-100408732D01*
%TO.N,/AREF*%
X143830000Y-95550000D02*
X144280000Y-95100000D01*
X144280000Y-95100000D02*
X145830000Y-95100000D01*
%TO.N,/MISO*%
X147470659Y-92529341D02*
X147200000Y-92258682D01*
X168655000Y-87500000D02*
X168655000Y-76775000D01*
X147200000Y-92258682D02*
X147200000Y-91330000D01*
X168655000Y-76775000D02*
X168380000Y-76500000D01*
%TO.N,/N*%
D40*
X115500000Y-89500000D02*
X115000000Y-89000000D01*
X117000000Y-75500000D02*
X118500000Y-74000000D01*
X122310000Y-106000000D02*
X119690000Y-106000000D01*
X127424739Y-97799001D02*
X122285000Y-102938740D01*
X115000000Y-80500000D02*
X117000000Y-78500000D01*
X115000000Y-90500000D02*
X115000000Y-90000000D01*
X115500000Y-89500000D02*
X116690000Y-88310000D01*
X116690000Y-88310000D02*
X117500000Y-88310000D01*
X115000000Y-90500000D02*
X115000000Y-89000000D01*
X115000000Y-95914000D02*
X115000000Y-90500000D01*
X117000000Y-99099142D02*
X118169858Y-100269000D01*
X142500000Y-74000000D02*
X142920000Y-74000000D01*
X98500000Y-80000000D02*
X104500000Y-74000000D01*
X131640000Y-95810000D02*
X130838000Y-95810000D01*
X115000000Y-89000000D02*
X115000000Y-80500000D01*
X114720000Y-96194000D02*
X115000000Y-95914000D01*
X98500000Y-86562000D02*
X98500000Y-80000000D01*
X142500000Y-74000000D02*
X143000000Y-74000000D01*
X115000000Y-90000000D02*
X115500000Y-89500000D01*
X122285000Y-105975000D02*
X122310000Y-106000000D01*
X114720000Y-96194000D02*
X115194000Y-96194000D01*
X120631000Y-105059000D02*
X119690000Y-106000000D01*
X120110142Y-100269000D02*
X120631000Y-100789858D01*
X118500000Y-74000000D02*
X142500000Y-74000000D01*
X128848999Y-97799001D02*
X127424739Y-97799001D01*
X104500000Y-74000000D02*
X118500000Y-74000000D01*
X117000000Y-98000000D02*
X117000000Y-99099142D01*
X142920000Y-74000000D02*
X146420000Y-77500000D01*
X120631000Y-100789858D02*
X120631000Y-105059000D01*
X130838000Y-95810000D02*
X128848999Y-97799001D01*
X122285000Y-102938740D02*
X122285000Y-105975000D01*
X118169858Y-100269000D02*
X120110142Y-100269000D01*
X99938000Y-88000000D02*
X98500000Y-86562000D01*
X115194000Y-96194000D02*
X117000000Y-98000000D01*
X117000000Y-78500000D02*
X117000000Y-75500000D01*
X100500000Y-88000000D02*
X99938000Y-88000000D01*
%TO.N,/SW2*%
D36*
X116349001Y-94429762D02*
X116818239Y-94899000D01*
X120267667Y-94899000D02*
X122166667Y-93000000D01*
X116818239Y-94899000D02*
X120267667Y-94899000D01*
%TO.N,Net-(U2-B)*%
D38*
X123306000Y-109744000D02*
X126832004Y-109744000D01*
X126832004Y-109744000D02*
X127088004Y-110000000D01*
X122500000Y-110550000D02*
X123306000Y-109744000D01*
D36*
X131120000Y-110000000D02*
X135120000Y-106000000D01*
X127088004Y-110000000D02*
X131120000Y-110000000D01*
%TO.N,Net-(U2-IN1)*%
D40*
X124690000Y-106000000D02*
X127500000Y-106000000D01*
%TO.N,Net-(U2-IN2)*%
X125190000Y-108500000D02*
X125230000Y-108540000D01*
X125230000Y-108540000D02*
X127500000Y-108540000D01*
%TO.N,/COM1*%
X122810000Y-108500000D02*
X122198470Y-108500000D01*
X122198470Y-108500000D02*
X121309470Y-107611000D01*
%TO.N,/COM2*%
X117500000Y-83310000D02*
X123310000Y-77500000D01*
X123310000Y-77500000D02*
X124000000Y-77500000D01*
%TO.N,/COM3*%
X114720000Y-100810000D02*
X116810000Y-100810000D01*
X116810000Y-100810000D02*
X117000000Y-101000000D01*
%TO.N,/COM4*%
X130679000Y-103190000D02*
X129500000Y-102011000D01*
X131640000Y-103190000D02*
X130679000Y-103190000D01*
%TO.N,Net-(U4-IN1)*%
X125060000Y-84440000D02*
X125060000Y-83000000D01*
X119683740Y-89000000D02*
X122500000Y-89000000D01*
X125000000Y-86500000D02*
X125000000Y-84500000D01*
X117500000Y-90690000D02*
X117993740Y-90690000D01*
X125000000Y-84500000D02*
X125060000Y-84440000D01*
X122500000Y-89000000D02*
X125000000Y-86500000D01*
X117993740Y-90690000D02*
X119683740Y-89000000D01*
%TO.N,Net-(U4-IN2)*%
X117561000Y-85751000D02*
X121520888Y-85751000D01*
X117500000Y-85690000D02*
X117561000Y-85751000D01*
X122520000Y-84751888D02*
X122520000Y-83000000D01*
X121520888Y-85751000D02*
X122520000Y-84751888D01*
%TO.N,Net-(U4-B)*%
D36*
X120266667Y-93000000D02*
X121357667Y-91909000D01*
X120276667Y-93000000D02*
X120276667Y-92863333D01*
X123771000Y-91909000D02*
X125060000Y-90620000D01*
X121357667Y-91909000D02*
X123771000Y-91909000D01*
%TO.N,Net-(U5-IN1)*%
D40*
X111416000Y-98574000D02*
X114720000Y-98574000D01*
X106680000Y-103310000D02*
X111416000Y-98574000D01*
%TO.N,Net-(U5-IN2)*%
X114720000Y-103190000D02*
X113690000Y-103190000D01*
X113690000Y-103190000D02*
X112455000Y-101955000D01*
X112455000Y-101955000D02*
X110575000Y-101955000D01*
X110575000Y-101955000D02*
X109220000Y-103310000D01*
%TO.N,Net-(U5-B)*%
D36*
X109227778Y-93142222D02*
X106680000Y-95690000D01*
X106680000Y-95690000D02*
X106680000Y-95483333D01*
X109227778Y-92880000D02*
X109227778Y-93142222D01*
%TO.N,Net-(U6-IN1)*%
D40*
X130830000Y-99000000D02*
X128140000Y-99000000D01*
X128140000Y-99000000D02*
X123640000Y-103500000D01*
X131640000Y-98190000D02*
X130830000Y-99000000D01*
%TO.N,Net-(U6-IN2)*%
X131640000Y-100810000D02*
X128870000Y-100810000D01*
X128870000Y-100810000D02*
X126180000Y-103500000D01*
%TO.N,Net-(U6-B)*%
D36*
X124564895Y-95880000D02*
X125450333Y-94994562D01*
X123640000Y-95880000D02*
X124564895Y-95880000D01*
X125843333Y-93828333D02*
X125843333Y-93000000D01*
X125450333Y-94221333D02*
X125843333Y-93828333D01*
X125450333Y-94994562D02*
X125450333Y-94221333D01*
%TO.N,Net-(U7-IN1)*%
D40*
X110000000Y-106500000D02*
X110000000Y-110000000D01*
X116375000Y-105065000D02*
X113935000Y-105065000D01*
X112750000Y-106250000D02*
X110250000Y-106250000D01*
X110000000Y-110000000D02*
X111500000Y-111500000D01*
X111500000Y-111500000D02*
X114810000Y-111500000D01*
X113935000Y-105065000D02*
X112750000Y-106250000D01*
X110250000Y-106250000D02*
X110000000Y-106500000D01*
X117310000Y-106000000D02*
X116375000Y-105065000D01*
%TO.N,/COM5*%
X119690000Y-108500000D02*
X120500000Y-108500000D01*
X120500000Y-108500000D02*
X121000000Y-109000000D01*
%TO.N,Net-(U7-IN2)*%
X115270000Y-108500000D02*
X114810000Y-108960000D01*
X117310000Y-108500000D02*
X115270000Y-108500000D01*
%TO.N,Net-(U7-B)*%
D36*
X118941002Y-112149000D02*
X119242002Y-112450000D01*
X119242002Y-112450000D02*
X120000000Y-112450000D01*
%TO.N,Net-(U8-IN1)*%
D40*
X101040000Y-90380000D02*
X100500000Y-90380000D01*
X108540000Y-82880000D02*
X101040000Y-90380000D01*
%TO.N,/COM6*%
X100500000Y-80680000D02*
X103680000Y-77500000D01*
X100500000Y-83000000D02*
X100500000Y-80680000D01*
%TO.N,Net-(U8-IN2)*%
X100500000Y-85380000D02*
X103500000Y-85380000D01*
X103500000Y-85380000D02*
X106000000Y-82880000D01*
%TO.N,Net-(U8-B)*%
D36*
X103716667Y-92880000D02*
X103716667Y-92783333D01*
X104776555Y-91789000D02*
X107251000Y-91789000D01*
X103605555Y-92960000D02*
X104776555Y-91789000D01*
X107251000Y-91789000D02*
X108540000Y-90500000D01*
%TD*%
%TA.AperFunction,Conductor*%
%TO.N,GND*%
G36*
X112020445Y-93937635D02*
G01*
X112043334Y-93939272D01*
X112056410Y-93947675D01*
X112065641Y-93950253D01*
X112072620Y-93958093D01*
X112079934Y-93962794D01*
X112080355Y-93962232D01*
X112202664Y-94053793D01*
X112202671Y-94053797D01*
X112337517Y-94104091D01*
X112337516Y-94104091D01*
X112344444Y-94104835D01*
X112397127Y-94110500D01*
X113502872Y-94110499D01*
X113562483Y-94104091D01*
X113697331Y-94053796D01*
X113801189Y-93976047D01*
X113866653Y-93951630D01*
X113934926Y-93966481D01*
X113984332Y-94015886D01*
X113999500Y-94075314D01*
X113999500Y-94699500D01*
X113979815Y-94766539D01*
X113927011Y-94812294D01*
X113875501Y-94823500D01*
X113762130Y-94823500D01*
X113762123Y-94823501D01*
X113702516Y-94829908D01*
X113567671Y-94880202D01*
X113567664Y-94880206D01*
X113452455Y-94966452D01*
X113452452Y-94966455D01*
X113366206Y-95081664D01*
X113366202Y-95081671D01*
X113315908Y-95216517D01*
X113309501Y-95276116D01*
X113309500Y-95276135D01*
X113309500Y-97111870D01*
X113309501Y-97111876D01*
X113315908Y-97171483D01*
X113366202Y-97306328D01*
X113366204Y-97306332D01*
X113368721Y-97309694D01*
X113370186Y-97313624D01*
X113370454Y-97314114D01*
X113370383Y-97314152D01*
X113393134Y-97375160D01*
X113381496Y-97437119D01*
X113376166Y-97448360D01*
X113366204Y-97461669D01*
X113352726Y-97497804D01*
X113350444Y-97502619D01*
X113330589Y-97524880D01*
X113312709Y-97548767D01*
X113307580Y-97550679D01*
X113303939Y-97554763D01*
X113275200Y-97562756D01*
X113247244Y-97573184D01*
X113238398Y-97573500D01*
X111317456Y-97573500D01*
X111124171Y-97611947D01*
X111124163Y-97611949D01*
X111052549Y-97641613D01*
X111052548Y-97641613D01*
X110942088Y-97687366D01*
X110839426Y-97755963D01*
X110839425Y-97755963D01*
X110778222Y-97796857D01*
X110778214Y-97796863D01*
X106403296Y-102171782D01*
X106353934Y-102202032D01*
X106236821Y-102240084D01*
X106074909Y-102322583D01*
X106004141Y-102374000D01*
X105927894Y-102429397D01*
X105927892Y-102429399D01*
X105927891Y-102429399D01*
X105799399Y-102557891D01*
X105799399Y-102557892D01*
X105799397Y-102557894D01*
X105753525Y-102621030D01*
X105692583Y-102704909D01*
X105610083Y-102866825D01*
X105610081Y-102866828D01*
X105553928Y-103039649D01*
X105553928Y-103039652D01*
X105529369Y-103194714D01*
X105525500Y-103219139D01*
X105525500Y-103400861D01*
X105526572Y-103407627D01*
X105553928Y-103580347D01*
X105553928Y-103580350D01*
X105610081Y-103753171D01*
X105610083Y-103753174D01*
X105692583Y-103915090D01*
X105799397Y-104062106D01*
X105927894Y-104190603D01*
X106074910Y-104297417D01*
X106236826Y-104379917D01*
X106236828Y-104379918D01*
X106380194Y-104426500D01*
X106409654Y-104436072D01*
X106589139Y-104464500D01*
X106589140Y-104464500D01*
X106770860Y-104464500D01*
X106770861Y-104464500D01*
X106950346Y-104436072D01*
X106950349Y-104436071D01*
X106950350Y-104436071D01*
X107123171Y-104379918D01*
X107123171Y-104379917D01*
X107123174Y-104379917D01*
X107285090Y-104297417D01*
X107432106Y-104190603D01*
X107560603Y-104062106D01*
X107667417Y-103915090D01*
X107749917Y-103753174D01*
X107787968Y-103636061D01*
X107818212Y-103586706D01*
X107885217Y-103519701D01*
X107946539Y-103486219D01*
X108016230Y-103491204D01*
X108072164Y-103533075D01*
X108092219Y-103575778D01*
X108092422Y-103575713D01*
X108092947Y-103577329D01*
X108093472Y-103578447D01*
X108093928Y-103580350D01*
X108150081Y-103753171D01*
X108150083Y-103753174D01*
X108232583Y-103915090D01*
X108339397Y-104062106D01*
X108467894Y-104190603D01*
X108614910Y-104297417D01*
X108776826Y-104379917D01*
X108776828Y-104379918D01*
X108920194Y-104426500D01*
X108949654Y-104436072D01*
X109129139Y-104464500D01*
X109129140Y-104464500D01*
X109310860Y-104464500D01*
X109310861Y-104464500D01*
X109490346Y-104436072D01*
X109490349Y-104436071D01*
X109490350Y-104436071D01*
X109663171Y-104379918D01*
X109663171Y-104379917D01*
X109663174Y-104379917D01*
X109825090Y-104297417D01*
X109972106Y-104190603D01*
X110100603Y-104062106D01*
X110207417Y-103915090D01*
X110289917Y-103753174D01*
X110327968Y-103636061D01*
X110358212Y-103586706D01*
X110425217Y-103519701D01*
X110486539Y-103486219D01*
X110556230Y-103491204D01*
X110612164Y-103533075D01*
X110632219Y-103575778D01*
X110632422Y-103575713D01*
X110632947Y-103577329D01*
X110633472Y-103578447D01*
X110633928Y-103580350D01*
X110690081Y-103753171D01*
X110690083Y-103753174D01*
X110772583Y-103915090D01*
X110879397Y-104062106D01*
X111007894Y-104190603D01*
X111093391Y-104252720D01*
X111136055Y-104308049D01*
X111142034Y-104377662D01*
X111109428Y-104439457D01*
X111048589Y-104473815D01*
X111044698Y-104474654D01*
X111016505Y-104480262D01*
X111016498Y-104480264D01*
X110870827Y-104540602D01*
X110870820Y-104540606D01*
X110852001Y-104553181D01*
X110813955Y-104578602D01*
X110747279Y-104599480D01*
X110745065Y-104599500D01*
X109982433Y-104599500D01*
X109856765Y-104624497D01*
X109856759Y-104624499D01*
X109751283Y-104668189D01*
X109738378Y-104673534D01*
X109631830Y-104744726D01*
X108427420Y-105949136D01*
X108366097Y-105982621D01*
X108296405Y-105977637D01*
X108240472Y-105935765D01*
X108229254Y-105917749D01*
X108176993Y-105815179D01*
X108176985Y-105815165D01*
X108164950Y-105798603D01*
X108164949Y-105798602D01*
X107590000Y-106373553D01*
X107590000Y-106367339D01*
X107562741Y-106265606D01*
X107510080Y-106174394D01*
X107435606Y-106099920D01*
X107344394Y-106047259D01*
X107242661Y-106020000D01*
X107236447Y-106020000D01*
X107811396Y-105445049D01*
X107811395Y-105445048D01*
X107794834Y-105433014D01*
X107794830Y-105433012D01*
X107632984Y-105350548D01*
X107460225Y-105294415D01*
X107280821Y-105266000D01*
X107099179Y-105266000D01*
X106919774Y-105294415D01*
X106747015Y-105350548D01*
X106585170Y-105433012D01*
X106585161Y-105433018D01*
X106568603Y-105445048D01*
X106568602Y-105445049D01*
X107143554Y-106020000D01*
X107137339Y-106020000D01*
X107035606Y-106047259D01*
X106944394Y-106099920D01*
X106869920Y-106174394D01*
X106817259Y-106265606D01*
X106790000Y-106367339D01*
X106790000Y-106373553D01*
X106215049Y-105798602D01*
X106215048Y-105798603D01*
X106203018Y-105815161D01*
X106203012Y-105815170D01*
X106120548Y-105977015D01*
X106064415Y-106149774D01*
X106036000Y-106329178D01*
X106036000Y-106510821D01*
X106064415Y-106690225D01*
X106120548Y-106862984D01*
X106203012Y-107024830D01*
X106203014Y-107024834D01*
X106215048Y-107041395D01*
X106215049Y-107041396D01*
X106790000Y-106466445D01*
X106790000Y-106472661D01*
X106817259Y-106574394D01*
X106869920Y-106665606D01*
X106944394Y-106740080D01*
X107035606Y-106792741D01*
X107137339Y-106820000D01*
X107143553Y-106820000D01*
X106568602Y-107394949D01*
X106568603Y-107394950D01*
X106585165Y-107406985D01*
X106585179Y-107406993D01*
X106687749Y-107459254D01*
X106738545Y-107507227D01*
X106755341Y-107575048D01*
X106732804Y-107641183D01*
X106730142Y-107644818D01*
X106725059Y-107651498D01*
X106684723Y-107691835D01*
X106617220Y-107792862D01*
X106615115Y-107796011D01*
X106615103Y-107796028D01*
X106613538Y-107798370D01*
X106613533Y-107798379D01*
X106564498Y-107916761D01*
X106564497Y-107916764D01*
X106557538Y-107951750D01*
X106525152Y-108013661D01*
X106508807Y-108027875D01*
X106437894Y-108079396D01*
X106309399Y-108207891D01*
X106309399Y-108207892D01*
X106309397Y-108207894D01*
X106309036Y-108208390D01*
X106308852Y-108208532D01*
X106306233Y-108211599D01*
X106305588Y-108211048D01*
X106253706Y-108251053D01*
X106208722Y-108259500D01*
X104246004Y-108259500D01*
X104110677Y-108286418D01*
X104110667Y-108286421D01*
X103983192Y-108339222D01*
X103868454Y-108415887D01*
X103511806Y-108772535D01*
X103450483Y-108806020D01*
X103387234Y-108803239D01*
X103219246Y-108750891D01*
X103219238Y-108750889D01*
X103170003Y-108746415D01*
X103148921Y-108744500D01*
X103148918Y-108744500D01*
X101851071Y-108744500D01*
X101780764Y-108750888D01*
X101780757Y-108750890D01*
X101618934Y-108801316D01*
X101618926Y-108801319D01*
X101473871Y-108889007D01*
X101473867Y-108889010D01*
X101354010Y-109008867D01*
X101354007Y-109008871D01*
X101266319Y-109153926D01*
X101266317Y-109153931D01*
X101215891Y-109315753D01*
X101215889Y-109315761D01*
X101209500Y-109386081D01*
X101209500Y-112163928D01*
X101215888Y-112234235D01*
X101215890Y-112234242D01*
X101266316Y-112396065D01*
X101266319Y-112396073D01*
X101354007Y-112541128D01*
X101354010Y-112541132D01*
X101473867Y-112660989D01*
X101473871Y-112660992D01*
X101545548Y-112704322D01*
X101618928Y-112748681D01*
X101780758Y-112799110D01*
X101851079Y-112805500D01*
X103148920Y-112805499D01*
X103148927Y-112805499D01*
X103219235Y-112799111D01*
X103219236Y-112799110D01*
X103219242Y-112799110D01*
X103381072Y-112748681D01*
X103526132Y-112660990D01*
X103645990Y-112541132D01*
X103733681Y-112396072D01*
X103784110Y-112234242D01*
X103790500Y-112163921D01*
X103790499Y-110526518D01*
X103810184Y-110459480D01*
X103826818Y-110438838D01*
X104568838Y-109696819D01*
X104630161Y-109663334D01*
X104656519Y-109660500D01*
X106208722Y-109660500D01*
X106275761Y-109680185D01*
X106305921Y-109708667D01*
X106306233Y-109708401D01*
X106308710Y-109711301D01*
X106309035Y-109711609D01*
X106309397Y-109712106D01*
X106437894Y-109840603D01*
X106584910Y-109947417D01*
X106746826Y-110029917D01*
X106746828Y-110029918D01*
X106908029Y-110082294D01*
X106919654Y-110086072D01*
X107039469Y-110105049D01*
X107055114Y-110107527D01*
X107118249Y-110137456D01*
X107155180Y-110196768D01*
X107154182Y-110266630D01*
X107115572Y-110324863D01*
X107055114Y-110352473D01*
X106919652Y-110373928D01*
X106919649Y-110373928D01*
X106746828Y-110430081D01*
X106746825Y-110430083D01*
X106584909Y-110512583D01*
X106501030Y-110573525D01*
X106437894Y-110619397D01*
X106437892Y-110619399D01*
X106437891Y-110619399D01*
X106309399Y-110747891D01*
X106309399Y-110747892D01*
X106309397Y-110747894D01*
X106275774Y-110794172D01*
X106202583Y-110894909D01*
X106120083Y-111056825D01*
X106120081Y-111056828D01*
X106063928Y-111229649D01*
X106063928Y-111229652D01*
X106047256Y-111334916D01*
X106035500Y-111409139D01*
X106035500Y-111590861D01*
X106043997Y-111644511D01*
X106063928Y-111770347D01*
X106063928Y-111770350D01*
X106120081Y-111943171D01*
X106120083Y-111943174D01*
X106202583Y-112105090D01*
X106309397Y-112252106D01*
X106437894Y-112380603D01*
X106584910Y-112487417D01*
X106746826Y-112569917D01*
X106746828Y-112569918D01*
X106908029Y-112622294D01*
X106919654Y-112626072D01*
X107099139Y-112654500D01*
X107099140Y-112654500D01*
X107280860Y-112654500D01*
X107280861Y-112654500D01*
X107460346Y-112626072D01*
X107460349Y-112626071D01*
X107460350Y-112626071D01*
X107633171Y-112569918D01*
X107633171Y-112569917D01*
X107633174Y-112569917D01*
X107795090Y-112487417D01*
X107942106Y-112380603D01*
X108070603Y-112252106D01*
X108177417Y-112105090D01*
X108259917Y-111943174D01*
X108265471Y-111926082D01*
X108316071Y-111770350D01*
X108316071Y-111770349D01*
X108316072Y-111770346D01*
X108344500Y-111590861D01*
X108344500Y-111409139D01*
X108333686Y-111340863D01*
X108342640Y-111271572D01*
X108387636Y-111218120D01*
X108454388Y-111197480D01*
X108521702Y-111216205D01*
X108543840Y-111233786D01*
X110597873Y-113287819D01*
X110631358Y-113349142D01*
X110626374Y-113418834D01*
X110584502Y-113474767D01*
X110519038Y-113499184D01*
X110510192Y-113499500D01*
X95124500Y-113499500D01*
X95057461Y-113479815D01*
X95011706Y-113427011D01*
X95000500Y-113375500D01*
X95000500Y-101657327D01*
X95020185Y-101590288D01*
X95072989Y-101544533D01*
X95142147Y-101534589D01*
X95205703Y-101563614D01*
X95242430Y-101619008D01*
X95271611Y-101708816D01*
X95366330Y-101894714D01*
X95488965Y-102063505D01*
X95636495Y-102211035D01*
X95805286Y-102333670D01*
X95884439Y-102374000D01*
X95991179Y-102428387D01*
X95991181Y-102428387D01*
X95991184Y-102428389D01*
X96075679Y-102455843D01*
X96189610Y-102492862D01*
X96395676Y-102525500D01*
X96395681Y-102525500D01*
X96604324Y-102525500D01*
X96810389Y-102492862D01*
X97008816Y-102428389D01*
X97194714Y-102333670D01*
X97363505Y-102211035D01*
X97511035Y-102063505D01*
X97633670Y-101894714D01*
X97728389Y-101708816D01*
X97792862Y-101510389D01*
X97798639Y-101473915D01*
X97825500Y-101304324D01*
X97825500Y-101095675D01*
X97792862Y-100889610D01*
X97757569Y-100780991D01*
X97728389Y-100691184D01*
X97728387Y-100691181D01*
X97728387Y-100691179D01*
X97653754Y-100544703D01*
X97633670Y-100505286D01*
X97511035Y-100336495D01*
X97363505Y-100188965D01*
X97211941Y-100078846D01*
X97194712Y-100066328D01*
X97143990Y-100040485D01*
X97093194Y-99992511D01*
X97076398Y-99924690D01*
X97098935Y-99858555D01*
X97143990Y-99819515D01*
X97194712Y-99793671D01*
X97194711Y-99793671D01*
X97194714Y-99793670D01*
X97363505Y-99671035D01*
X97511035Y-99523505D01*
X97633670Y-99354714D01*
X97728389Y-99168816D01*
X97792862Y-98970389D01*
X97806470Y-98884472D01*
X97825500Y-98764324D01*
X97825500Y-98555675D01*
X97792862Y-98349610D01*
X97747000Y-98208463D01*
X97728389Y-98151184D01*
X97728387Y-98151181D01*
X97728387Y-98151179D01*
X97676742Y-98049821D01*
X97633670Y-97965286D01*
X97511035Y-97796495D01*
X97363505Y-97648965D01*
X97281987Y-97589738D01*
X97194712Y-97526328D01*
X97143990Y-97500485D01*
X97093194Y-97452511D01*
X97076398Y-97384690D01*
X97098935Y-97318555D01*
X97143990Y-97279515D01*
X97194712Y-97253671D01*
X97194711Y-97253671D01*
X97194714Y-97253670D01*
X97363505Y-97131035D01*
X97511035Y-96983505D01*
X97633670Y-96814714D01*
X97728389Y-96628816D01*
X97792862Y-96430389D01*
X97798860Y-96392517D01*
X97825500Y-96224324D01*
X97825500Y-96115519D01*
X97845185Y-96048480D01*
X97897989Y-96002725D01*
X97967147Y-95992781D01*
X98030703Y-96021806D01*
X98037181Y-96027838D01*
X98349271Y-96339927D01*
X98382756Y-96401250D01*
X98385590Y-96427608D01*
X98385590Y-110488594D01*
X98376151Y-110536046D01*
X98316354Y-110680408D01*
X98316351Y-110680420D01*
X98285590Y-110835063D01*
X98285590Y-110992756D01*
X98316351Y-111147399D01*
X98316354Y-111147411D01*
X98376692Y-111293082D01*
X98376699Y-111293095D01*
X98464300Y-111424198D01*
X98464303Y-111424202D01*
X98575797Y-111535696D01*
X98575801Y-111535699D01*
X98706904Y-111623300D01*
X98706917Y-111623307D01*
X98813644Y-111667514D01*
X98852593Y-111683647D01*
X98941818Y-111701395D01*
X99007243Y-111714409D01*
X99007246Y-111714410D01*
X99007248Y-111714410D01*
X99164934Y-111714410D01*
X99164935Y-111714409D01*
X99319587Y-111683647D01*
X99465269Y-111623304D01*
X99596379Y-111535699D01*
X99707879Y-111424199D01*
X99795484Y-111293089D01*
X99855827Y-111147407D01*
X99886590Y-110992752D01*
X99886590Y-110835068D01*
X99886590Y-110835065D01*
X99886589Y-110835063D01*
X99878455Y-110794172D01*
X99855827Y-110680413D01*
X99831124Y-110620775D01*
X99796029Y-110536046D01*
X99786590Y-110488594D01*
X99786590Y-99897319D01*
X99806275Y-99830280D01*
X99859079Y-99784525D01*
X99928237Y-99774581D01*
X99991793Y-99803606D01*
X99998271Y-99809638D01*
X100213181Y-100024548D01*
X100246666Y-100085871D01*
X100249500Y-100112229D01*
X100249500Y-106195396D01*
X100240062Y-106242844D01*
X100230635Y-106265606D01*
X100230262Y-106266506D01*
X100230260Y-106266511D01*
X100199500Y-106421153D01*
X100199500Y-106578846D01*
X100230261Y-106733489D01*
X100230264Y-106733501D01*
X100290602Y-106879172D01*
X100290609Y-106879185D01*
X100378210Y-107010288D01*
X100378213Y-107010292D01*
X100489707Y-107121786D01*
X100489711Y-107121789D01*
X100620814Y-107209390D01*
X100620827Y-107209397D01*
X100747114Y-107261706D01*
X100766503Y-107269737D01*
X100889974Y-107294297D01*
X100921153Y-107300499D01*
X100921156Y-107300500D01*
X101084934Y-107300500D01*
X101084934Y-107303094D01*
X101142491Y-107314010D01*
X101193202Y-107362075D01*
X101210000Y-107424395D01*
X101210000Y-107613873D01*
X101216386Y-107684152D01*
X101266776Y-107845862D01*
X101266778Y-107845866D01*
X101354404Y-107990818D01*
X101354407Y-107990822D01*
X101474177Y-108110592D01*
X101474181Y-108110595D01*
X101619133Y-108198221D01*
X101619137Y-108198223D01*
X101780848Y-108248613D01*
X101780846Y-108248613D01*
X101851127Y-108255000D01*
X102250000Y-108255000D01*
X102750000Y-108255000D01*
X103148873Y-108255000D01*
X103219152Y-108248613D01*
X103380862Y-108198223D01*
X103380866Y-108198221D01*
X103525818Y-108110595D01*
X103525822Y-108110592D01*
X103645592Y-107990822D01*
X103645595Y-107990818D01*
X103733221Y-107845866D01*
X103733223Y-107845862D01*
X103783613Y-107684152D01*
X103790000Y-107613873D01*
X103790000Y-106475000D01*
X102750000Y-106475000D01*
X102750000Y-108255000D01*
X102250000Y-108255000D01*
X102250000Y-105975000D01*
X102750000Y-105975000D01*
X103790000Y-105975000D01*
X103790000Y-104836126D01*
X103783613Y-104765847D01*
X103733223Y-104604137D01*
X103733221Y-104604133D01*
X103645595Y-104459181D01*
X103645592Y-104459177D01*
X103524096Y-104337681D01*
X103490611Y-104276358D01*
X103495595Y-104206666D01*
X103524096Y-104162319D01*
X103645592Y-104040822D01*
X103645595Y-104040818D01*
X103733221Y-103895866D01*
X103733223Y-103895862D01*
X103783613Y-103734152D01*
X103790000Y-103663873D01*
X103790000Y-102525000D01*
X102750000Y-102525000D01*
X102750000Y-105975000D01*
X102250000Y-105975000D01*
X102250000Y-102025000D01*
X102750000Y-102025000D01*
X103790000Y-102025000D01*
X103790000Y-100886126D01*
X103783613Y-100815847D01*
X103733223Y-100654137D01*
X103733221Y-100654133D01*
X103645595Y-100509181D01*
X103645592Y-100509177D01*
X103525822Y-100389407D01*
X103525818Y-100389404D01*
X103380866Y-100301778D01*
X103380862Y-100301776D01*
X103219151Y-100251386D01*
X103219153Y-100251386D01*
X103148873Y-100245000D01*
X102750000Y-100245000D01*
X102750000Y-102025000D01*
X102250000Y-102025000D01*
X102250000Y-100245000D01*
X101874500Y-100245000D01*
X101807461Y-100225315D01*
X101761706Y-100172511D01*
X101750500Y-100121000D01*
X101750500Y-99879499D01*
X101770185Y-99812460D01*
X101822989Y-99766705D01*
X101874495Y-99755499D01*
X103148920Y-99755499D01*
X103148927Y-99755499D01*
X103219235Y-99749111D01*
X103219236Y-99749110D01*
X103219242Y-99749110D01*
X103381072Y-99698681D01*
X103526132Y-99610990D01*
X103645990Y-99491132D01*
X103733681Y-99346072D01*
X103784110Y-99184242D01*
X103790500Y-99113921D01*
X103790500Y-98549500D01*
X103810185Y-98482461D01*
X103862989Y-98436706D01*
X103914500Y-98425500D01*
X107253996Y-98425500D01*
X107345040Y-98407389D01*
X107389328Y-98398580D01*
X107453069Y-98372177D01*
X107516807Y-98345777D01*
X107516808Y-98345776D01*
X107516811Y-98345775D01*
X107631543Y-98269114D01*
X109021461Y-96879194D01*
X109082782Y-96845711D01*
X109124255Y-96844528D01*
X109124288Y-96844118D01*
X109128106Y-96844418D01*
X109128546Y-96844406D01*
X109129139Y-96844500D01*
X109129146Y-96844500D01*
X109310860Y-96844500D01*
X109310861Y-96844500D01*
X109490346Y-96816072D01*
X109490349Y-96816071D01*
X109490350Y-96816071D01*
X109663171Y-96759918D01*
X109663171Y-96759917D01*
X109663174Y-96759917D01*
X109825090Y-96677417D01*
X109972106Y-96570603D01*
X110100603Y-96442106D01*
X110207417Y-96295090D01*
X110289917Y-96133174D01*
X110319434Y-96042329D01*
X110346071Y-95960350D01*
X110346071Y-95960349D01*
X110346072Y-95960346D01*
X110367780Y-95823286D01*
X110397709Y-95760152D01*
X110457021Y-95723221D01*
X110526883Y-95724219D01*
X110585116Y-95762829D01*
X110612726Y-95823287D01*
X110634415Y-95960225D01*
X110690548Y-96132984D01*
X110773012Y-96294830D01*
X110773014Y-96294834D01*
X110785048Y-96311395D01*
X110785049Y-96311396D01*
X111360000Y-95736445D01*
X111360000Y-95742661D01*
X111387259Y-95844394D01*
X111439920Y-95935606D01*
X111514394Y-96010080D01*
X111605606Y-96062741D01*
X111707339Y-96090000D01*
X111713554Y-96090000D01*
X111138602Y-96664949D01*
X111138603Y-96664950D01*
X111155165Y-96676985D01*
X111155179Y-96676993D01*
X111317012Y-96759450D01*
X111489774Y-96815584D01*
X111669179Y-96844000D01*
X111850821Y-96844000D01*
X112030225Y-96815584D01*
X112202984Y-96759451D01*
X112364831Y-96676986D01*
X112381396Y-96664949D01*
X111806447Y-96090000D01*
X111812661Y-96090000D01*
X111914394Y-96062741D01*
X112005606Y-96010080D01*
X112080080Y-95935606D01*
X112132741Y-95844394D01*
X112160000Y-95742661D01*
X112160000Y-95736446D01*
X112734949Y-96311395D01*
X112746986Y-96294831D01*
X112829451Y-96132984D01*
X112885584Y-95960225D01*
X112914000Y-95780821D01*
X112914000Y-95599178D01*
X112885584Y-95419774D01*
X112829450Y-95247012D01*
X112746993Y-95085179D01*
X112746985Y-95085165D01*
X112734950Y-95068603D01*
X112734949Y-95068602D01*
X112160000Y-95643552D01*
X112160000Y-95637339D01*
X112132741Y-95535606D01*
X112080080Y-95444394D01*
X112005606Y-95369920D01*
X111914394Y-95317259D01*
X111812661Y-95290000D01*
X111806446Y-95290000D01*
X112381396Y-94715049D01*
X112381395Y-94715048D01*
X112364834Y-94703014D01*
X112364830Y-94703012D01*
X112202984Y-94620548D01*
X112030225Y-94564415D01*
X111850821Y-94536000D01*
X111664306Y-94536000D01*
X111664306Y-94533702D01*
X111605180Y-94521188D01*
X111555498Y-94472061D01*
X111540263Y-94403873D01*
X111564312Y-94338272D01*
X111576316Y-94324341D01*
X111594112Y-94306545D01*
X111594112Y-94306544D01*
X111594114Y-94306543D01*
X111670775Y-94191811D01*
X111671319Y-94190499D01*
X111694608Y-94134272D01*
X111738448Y-94079868D01*
X111740743Y-94078313D01*
X111752559Y-94070494D01*
X111797331Y-94053796D01*
X111912546Y-93967546D01*
X111916866Y-93961774D01*
X111931574Y-93952043D01*
X111953503Y-93945284D01*
X111973642Y-93934288D01*
X111986257Y-93935190D01*
X111998345Y-93931465D01*
X112020445Y-93937635D01*
G37*
%TD.AperFunction*%
%TA.AperFunction,Conductor*%
G36*
X157460156Y-104446185D02*
G01*
X157480798Y-104462819D01*
X159763181Y-106745202D01*
X159796666Y-106806525D01*
X159799500Y-106832883D01*
X159799500Y-107158480D01*
X159779815Y-107225519D01*
X159763181Y-107246161D01*
X157514545Y-109494796D01*
X157453222Y-109528281D01*
X157383530Y-109523297D01*
X157370568Y-109517599D01*
X157358812Y-109511609D01*
X157160391Y-109447138D01*
X156954324Y-109414500D01*
X156954319Y-109414500D01*
X156745681Y-109414500D01*
X156745676Y-109414500D01*
X156539610Y-109447137D01*
X156341179Y-109511612D01*
X156155285Y-109606330D01*
X155986493Y-109728966D01*
X155838966Y-109876493D01*
X155757671Y-109988386D01*
X155702340Y-110031051D01*
X155657353Y-110039500D01*
X155502647Y-110039500D01*
X155435608Y-110019815D01*
X155402329Y-109988386D01*
X155398067Y-109982520D01*
X155321035Y-109876495D01*
X155173505Y-109728965D01*
X155004714Y-109606330D01*
X154974327Y-109590847D01*
X154818820Y-109511612D01*
X154620389Y-109447137D01*
X154414324Y-109414500D01*
X154414319Y-109414500D01*
X154205681Y-109414500D01*
X154205676Y-109414500D01*
X153999610Y-109447137D01*
X153801179Y-109511612D01*
X153615285Y-109606330D01*
X153446493Y-109728966D01*
X153298966Y-109876493D01*
X153217671Y-109988386D01*
X153162340Y-110031051D01*
X153117353Y-110039500D01*
X152962647Y-110039500D01*
X152895608Y-110019815D01*
X152862329Y-109988386D01*
X152858067Y-109982520D01*
X152781035Y-109876495D01*
X152633505Y-109728965D01*
X152464714Y-109606330D01*
X152434327Y-109590847D01*
X152278820Y-109511612D01*
X152080389Y-109447137D01*
X151874324Y-109414500D01*
X151874319Y-109414500D01*
X151665681Y-109414500D01*
X151665676Y-109414500D01*
X151459610Y-109447137D01*
X151261179Y-109511612D01*
X151075285Y-109606330D01*
X150906493Y-109728966D01*
X150758966Y-109876493D01*
X150677671Y-109988386D01*
X150622340Y-110031051D01*
X150577353Y-110039500D01*
X150422647Y-110039500D01*
X150355608Y-110019815D01*
X150322329Y-109988386D01*
X150318067Y-109982520D01*
X150241035Y-109876495D01*
X150093505Y-109728965D01*
X149924714Y-109606330D01*
X149894327Y-109590847D01*
X149738820Y-109511612D01*
X149540389Y-109447137D01*
X149334324Y-109414500D01*
X149334319Y-109414500D01*
X149125681Y-109414500D01*
X149125676Y-109414500D01*
X148919610Y-109447137D01*
X148721179Y-109511612D01*
X148535285Y-109606330D01*
X148366493Y-109728966D01*
X148218966Y-109876493D01*
X148137671Y-109988386D01*
X148082340Y-110031051D01*
X148037353Y-110039500D01*
X147882647Y-110039500D01*
X147815608Y-110019815D01*
X147782329Y-109988386D01*
X147778067Y-109982520D01*
X147701035Y-109876495D01*
X147553505Y-109728965D01*
X147384714Y-109606330D01*
X147354327Y-109590847D01*
X147198820Y-109511612D01*
X147000389Y-109447137D01*
X146794324Y-109414500D01*
X146794319Y-109414500D01*
X146585681Y-109414500D01*
X146585676Y-109414500D01*
X146379610Y-109447137D01*
X146181179Y-109511612D01*
X145995285Y-109606330D01*
X145826493Y-109728966D01*
X145678966Y-109876493D01*
X145597671Y-109988386D01*
X145542340Y-110031051D01*
X145497353Y-110039500D01*
X145342647Y-110039500D01*
X145275608Y-110019815D01*
X145242329Y-109988386D01*
X145238067Y-109982520D01*
X145161035Y-109876495D01*
X145013505Y-109728965D01*
X144844714Y-109606330D01*
X144814327Y-109590847D01*
X144658820Y-109511612D01*
X144460389Y-109447137D01*
X144254324Y-109414500D01*
X144254319Y-109414500D01*
X144045681Y-109414500D01*
X144045676Y-109414500D01*
X143839610Y-109447137D01*
X143641179Y-109511612D01*
X143455285Y-109606330D01*
X143286493Y-109728966D01*
X143138966Y-109876493D01*
X143016330Y-110045285D01*
X142921612Y-110231179D01*
X142857137Y-110429610D01*
X142824500Y-110635675D01*
X142824500Y-110844324D01*
X142857137Y-111050389D01*
X142921612Y-111248820D01*
X143005573Y-111413602D01*
X143016330Y-111434714D01*
X143138965Y-111603505D01*
X143286495Y-111751035D01*
X143441997Y-111864015D01*
X143455991Y-111874182D01*
X143498656Y-111929513D01*
X143504635Y-111999126D01*
X143472029Y-112060921D01*
X143411190Y-112095278D01*
X143383105Y-112098500D01*
X141112970Y-112098500D01*
X141062680Y-112085903D01*
X141062124Y-112087247D01*
X140919917Y-112028343D01*
X140919907Y-112028340D01*
X140774920Y-111999500D01*
X140774918Y-111999500D01*
X140627082Y-111999500D01*
X140627080Y-111999500D01*
X140482092Y-112028340D01*
X140482087Y-112028342D01*
X140461449Y-112036890D01*
X140391979Y-112044356D01*
X140329501Y-112013079D01*
X140293851Y-111952989D01*
X140290000Y-111922327D01*
X140290000Y-111300000D01*
X139250000Y-111300000D01*
X139250000Y-113080000D01*
X139648873Y-113080000D01*
X139719152Y-113073613D01*
X139879892Y-113023525D01*
X139949752Y-113022373D01*
X140009144Y-113059174D01*
X140031341Y-113094453D01*
X140035911Y-113105487D01*
X140035919Y-113105501D01*
X140118048Y-113228415D01*
X140118051Y-113228419D01*
X140177451Y-113287819D01*
X140210936Y-113349142D01*
X140205952Y-113418834D01*
X140164080Y-113474767D01*
X140098616Y-113499184D01*
X140089770Y-113499500D01*
X131450520Y-113499500D01*
X131383481Y-113479815D01*
X131337726Y-113427011D01*
X131327782Y-113357853D01*
X131356807Y-113294297D01*
X131362839Y-113287819D01*
X132211784Y-112438873D01*
X137710000Y-112438873D01*
X137716386Y-112509152D01*
X137766776Y-112670862D01*
X137766778Y-112670866D01*
X137854404Y-112815818D01*
X137854407Y-112815822D01*
X137974177Y-112935592D01*
X137974181Y-112935595D01*
X138119133Y-113023221D01*
X138119137Y-113023223D01*
X138280848Y-113073613D01*
X138280846Y-113073613D01*
X138351127Y-113080000D01*
X138750000Y-113080000D01*
X138750000Y-111300000D01*
X137710000Y-111300000D01*
X137710000Y-112438873D01*
X132211784Y-112438873D01*
X132379073Y-112271584D01*
X133754348Y-110896308D01*
X133815666Y-110862826D01*
X133885357Y-110867810D01*
X133941291Y-110909681D01*
X133965708Y-110975146D01*
X133965685Y-110984306D01*
X133966000Y-110984306D01*
X133966000Y-111170821D01*
X133994415Y-111350225D01*
X134050548Y-111522984D01*
X134133012Y-111684830D01*
X134133014Y-111684834D01*
X134145048Y-111701395D01*
X134145049Y-111701396D01*
X134720000Y-111126445D01*
X134720000Y-111132661D01*
X134747259Y-111234394D01*
X134799920Y-111325606D01*
X134874394Y-111400080D01*
X134965606Y-111452741D01*
X135067339Y-111480000D01*
X135073554Y-111480000D01*
X134498602Y-112054949D01*
X134498603Y-112054950D01*
X134515165Y-112066985D01*
X134515179Y-112066993D01*
X134677012Y-112149450D01*
X134849774Y-112205584D01*
X135029179Y-112234000D01*
X135210821Y-112234000D01*
X135390225Y-112205584D01*
X135562984Y-112149451D01*
X135724831Y-112066986D01*
X135741396Y-112054949D01*
X135166447Y-111480000D01*
X135172661Y-111480000D01*
X135274394Y-111452741D01*
X135365606Y-111400080D01*
X135440080Y-111325606D01*
X135492741Y-111234394D01*
X135520000Y-111132661D01*
X135520000Y-111126446D01*
X136094949Y-111701395D01*
X136106986Y-111684831D01*
X136189451Y-111522984D01*
X136245584Y-111350225D01*
X136264747Y-111229240D01*
X136264747Y-111229239D01*
X136274000Y-111170819D01*
X136274000Y-110989178D01*
X136245584Y-110809774D01*
X136189450Y-110637012D01*
X136106993Y-110475179D01*
X136106985Y-110475165D01*
X136094950Y-110458603D01*
X136094949Y-110458602D01*
X135520000Y-111033552D01*
X135520000Y-111027339D01*
X135492741Y-110925606D01*
X135440080Y-110834394D01*
X135365606Y-110759920D01*
X135274394Y-110707259D01*
X135172661Y-110680000D01*
X135166446Y-110680000D01*
X135741396Y-110105049D01*
X135741395Y-110105048D01*
X135724834Y-110093014D01*
X135724830Y-110093012D01*
X135562984Y-110010548D01*
X135390225Y-109954415D01*
X135253287Y-109932726D01*
X135190152Y-109902797D01*
X135153221Y-109843485D01*
X135154219Y-109773622D01*
X135192829Y-109715390D01*
X135253286Y-109687780D01*
X135390346Y-109666072D01*
X135390349Y-109666071D01*
X135390350Y-109666071D01*
X135405569Y-109661126D01*
X137710000Y-109661126D01*
X137710000Y-110800000D01*
X138750000Y-110800000D01*
X139250000Y-110800000D01*
X140290000Y-110800000D01*
X140290000Y-109661126D01*
X140283613Y-109590847D01*
X140233223Y-109429137D01*
X140233221Y-109429133D01*
X140145595Y-109284181D01*
X140145592Y-109284177D01*
X140025822Y-109164407D01*
X140025818Y-109164404D01*
X139880866Y-109076778D01*
X139880862Y-109076776D01*
X139719151Y-109026386D01*
X139719153Y-109026386D01*
X139648873Y-109020000D01*
X139250000Y-109020000D01*
X139250000Y-110800000D01*
X138750000Y-110800000D01*
X138750000Y-109020000D01*
X138351127Y-109020000D01*
X138280847Y-109026386D01*
X138119137Y-109076776D01*
X138119133Y-109076778D01*
X137974181Y-109164404D01*
X137974177Y-109164407D01*
X137854407Y-109284177D01*
X137854404Y-109284181D01*
X137766778Y-109429133D01*
X137766776Y-109429137D01*
X137716386Y-109590847D01*
X137710000Y-109661126D01*
X135405569Y-109661126D01*
X135563171Y-109609918D01*
X135563171Y-109609917D01*
X135563174Y-109609917D01*
X135725090Y-109527417D01*
X135872106Y-109420603D01*
X136000603Y-109292106D01*
X136107417Y-109145090D01*
X136189917Y-108983174D01*
X136246072Y-108810346D01*
X136274500Y-108630861D01*
X136274500Y-108449139D01*
X136274406Y-108448548D01*
X136274435Y-108448322D01*
X136274118Y-108444288D01*
X136274965Y-108444221D01*
X136283353Y-108379258D01*
X136309193Y-108341462D01*
X137413838Y-107236819D01*
X137475161Y-107203334D01*
X137501519Y-107200500D01*
X137585501Y-107200500D01*
X137652540Y-107220185D01*
X137698295Y-107272989D01*
X137709501Y-107324500D01*
X137709501Y-107888928D01*
X137715888Y-107959235D01*
X137715890Y-107959242D01*
X137766316Y-108121065D01*
X137766319Y-108121073D01*
X137854007Y-108266128D01*
X137854010Y-108266132D01*
X137973867Y-108385989D01*
X137973871Y-108385992D01*
X138078341Y-108449146D01*
X138118928Y-108473681D01*
X138280758Y-108524110D01*
X138351079Y-108530500D01*
X139648920Y-108530499D01*
X139648927Y-108530499D01*
X139719235Y-108524111D01*
X139719236Y-108524110D01*
X139719242Y-108524110D01*
X139881072Y-108473681D01*
X140026132Y-108385990D01*
X140145990Y-108266132D01*
X140233681Y-108121072D01*
X140284110Y-107959242D01*
X140290500Y-107888921D01*
X140290499Y-105564460D01*
X140310184Y-105497422D01*
X140362987Y-105451667D01*
X140432146Y-105441723D01*
X140438655Y-105442837D01*
X140467123Y-105448500D01*
X142906481Y-105448500D01*
X142973520Y-105468185D01*
X142994162Y-105484819D01*
X143066969Y-105557626D01*
X143100454Y-105618949D01*
X143095470Y-105688641D01*
X143079607Y-105718192D01*
X143016329Y-105805286D01*
X142921612Y-105991179D01*
X142857137Y-106189610D01*
X142824500Y-106395675D01*
X142824500Y-106604324D01*
X142857137Y-106810389D01*
X142921612Y-107008820D01*
X142991613Y-107146204D01*
X143016330Y-107194714D01*
X143138965Y-107363505D01*
X143286495Y-107511035D01*
X143455286Y-107633670D01*
X143543116Y-107678421D01*
X143641179Y-107728387D01*
X143641181Y-107728387D01*
X143641184Y-107728389D01*
X143747545Y-107762948D01*
X143839610Y-107792862D01*
X144045676Y-107825500D01*
X144045681Y-107825500D01*
X144254324Y-107825500D01*
X144460389Y-107792862D01*
X144475688Y-107787891D01*
X144658816Y-107728389D01*
X144844714Y-107633670D01*
X145013505Y-107511035D01*
X145161035Y-107363505D01*
X145283670Y-107194714D01*
X145309515Y-107143990D01*
X145357489Y-107093194D01*
X145425310Y-107076398D01*
X145491445Y-107098935D01*
X145530485Y-107143990D01*
X145556328Y-107194712D01*
X145638086Y-107307241D01*
X145678965Y-107363505D01*
X145826495Y-107511035D01*
X145995286Y-107633670D01*
X146083116Y-107678421D01*
X146181179Y-107728387D01*
X146181181Y-107728387D01*
X146181184Y-107728389D01*
X146287545Y-107762948D01*
X146379610Y-107792862D01*
X146585676Y-107825500D01*
X146585681Y-107825500D01*
X146794324Y-107825500D01*
X147000389Y-107792862D01*
X147015688Y-107787891D01*
X147198816Y-107728389D01*
X147384714Y-107633670D01*
X147553505Y-107511035D01*
X147701035Y-107363505D01*
X147823670Y-107194714D01*
X147849515Y-107143990D01*
X147897489Y-107093194D01*
X147965310Y-107076398D01*
X148031445Y-107098935D01*
X148070485Y-107143990D01*
X148096328Y-107194712D01*
X148178086Y-107307241D01*
X148218965Y-107363505D01*
X148366495Y-107511035D01*
X148535286Y-107633670D01*
X148623116Y-107678421D01*
X148721179Y-107728387D01*
X148721181Y-107728387D01*
X148721184Y-107728389D01*
X148827545Y-107762948D01*
X148919610Y-107792862D01*
X149125676Y-107825500D01*
X149125681Y-107825500D01*
X149334324Y-107825500D01*
X149540389Y-107792862D01*
X149555688Y-107787891D01*
X149738816Y-107728389D01*
X149924714Y-107633670D01*
X150093505Y-107511035D01*
X150241035Y-107363505D01*
X150363670Y-107194714D01*
X150389515Y-107143990D01*
X150437489Y-107093194D01*
X150505310Y-107076398D01*
X150571445Y-107098935D01*
X150610485Y-107143990D01*
X150636328Y-107194712D01*
X150718086Y-107307241D01*
X150758965Y-107363505D01*
X150906495Y-107511035D01*
X151075286Y-107633670D01*
X151163116Y-107678421D01*
X151261179Y-107728387D01*
X151261181Y-107728387D01*
X151261184Y-107728389D01*
X151367545Y-107762948D01*
X151459610Y-107792862D01*
X151665676Y-107825500D01*
X151665681Y-107825500D01*
X151874324Y-107825500D01*
X152080389Y-107792862D01*
X152095688Y-107787891D01*
X152278816Y-107728389D01*
X152464714Y-107633670D01*
X152633505Y-107511035D01*
X152781035Y-107363505D01*
X152903670Y-107194714D01*
X152929515Y-107143990D01*
X152977489Y-107093194D01*
X153045310Y-107076398D01*
X153111445Y-107098935D01*
X153150485Y-107143990D01*
X153176328Y-107194712D01*
X153258086Y-107307241D01*
X153298965Y-107363505D01*
X153446495Y-107511035D01*
X153615286Y-107633670D01*
X153703116Y-107678421D01*
X153801179Y-107728387D01*
X153801181Y-107728387D01*
X153801184Y-107728389D01*
X153907545Y-107762948D01*
X153999610Y-107792862D01*
X154205676Y-107825500D01*
X154205681Y-107825500D01*
X154414324Y-107825500D01*
X154620389Y-107792862D01*
X154635688Y-107787891D01*
X154818816Y-107728389D01*
X155004714Y-107633670D01*
X155173505Y-107511035D01*
X155321035Y-107363505D01*
X155443670Y-107194714D01*
X155469515Y-107143990D01*
X155517489Y-107093194D01*
X155585310Y-107076398D01*
X155651445Y-107098935D01*
X155690485Y-107143990D01*
X155716328Y-107194712D01*
X155798086Y-107307241D01*
X155838965Y-107363505D01*
X155986495Y-107511035D01*
X156155286Y-107633670D01*
X156243116Y-107678421D01*
X156341179Y-107728387D01*
X156341181Y-107728387D01*
X156341184Y-107728389D01*
X156447545Y-107762948D01*
X156539610Y-107792862D01*
X156745676Y-107825500D01*
X156745681Y-107825500D01*
X156954324Y-107825500D01*
X157160389Y-107792862D01*
X157175688Y-107787891D01*
X157358816Y-107728389D01*
X157544714Y-107633670D01*
X157713505Y-107511035D01*
X157861035Y-107363505D01*
X157983670Y-107194714D01*
X158077637Y-107010292D01*
X158078387Y-107008820D01*
X158078387Y-107008819D01*
X158078389Y-107008816D01*
X158142862Y-106810389D01*
X158152093Y-106752106D01*
X158175500Y-106604324D01*
X158175500Y-106395675D01*
X158142862Y-106189610D01*
X158087752Y-106020000D01*
X158078389Y-105991184D01*
X158078387Y-105991181D01*
X158078387Y-105991179D01*
X158021342Y-105879222D01*
X157983670Y-105805286D01*
X157861035Y-105636495D01*
X157713505Y-105488965D01*
X157544714Y-105366330D01*
X157513740Y-105350548D01*
X157358820Y-105271612D01*
X157160389Y-105207137D01*
X156954324Y-105174500D01*
X156954319Y-105174500D01*
X156745681Y-105174500D01*
X156745676Y-105174500D01*
X156548035Y-105205803D01*
X156478741Y-105196848D01*
X156440956Y-105171011D01*
X155908127Y-104638181D01*
X155874642Y-104576858D01*
X155879626Y-104507166D01*
X155921498Y-104451233D01*
X155986962Y-104426816D01*
X155995808Y-104426500D01*
X157393117Y-104426500D01*
X157460156Y-104446185D01*
G37*
%TD.AperFunction*%
%TA.AperFunction,Conductor*%
G36*
X179637371Y-77243818D02*
G01*
X179637372Y-77243818D01*
X179673240Y-77194451D01*
X179765015Y-77014336D01*
X179812990Y-76963540D01*
X179880811Y-76946745D01*
X179946946Y-76969283D01*
X179990397Y-77023998D01*
X179999500Y-77070631D01*
X179999500Y-113375500D01*
X179979815Y-113442539D01*
X179927011Y-113488294D01*
X179875500Y-113499500D01*
X164290520Y-113499500D01*
X164223481Y-113479815D01*
X164177726Y-113427011D01*
X164167782Y-113357853D01*
X164196807Y-113294297D01*
X164202839Y-113287819D01*
X164544111Y-112946546D01*
X164544112Y-112946545D01*
X164544114Y-112946543D01*
X164620775Y-112831811D01*
X164624045Y-112823918D01*
X164673578Y-112704332D01*
X164673580Y-112704328D01*
X164689147Y-112626071D01*
X164700500Y-112568996D01*
X164700500Y-110601302D01*
X176446000Y-110601302D01*
X176446000Y-110798697D01*
X176476876Y-110993646D01*
X176537873Y-111181373D01*
X176627483Y-111357239D01*
X176653457Y-111392988D01*
X176653457Y-111392989D01*
X177217037Y-110829409D01*
X177234075Y-110892993D01*
X177299901Y-111007007D01*
X177392993Y-111100099D01*
X177507007Y-111165925D01*
X177570590Y-111182962D01*
X177007009Y-111746541D01*
X177007010Y-111746542D01*
X177042755Y-111772512D01*
X177042768Y-111772520D01*
X177218626Y-111862126D01*
X177406353Y-111923123D01*
X177601303Y-111954000D01*
X177798697Y-111954000D01*
X177993646Y-111923123D01*
X178181373Y-111862126D01*
X178357241Y-111772516D01*
X178392988Y-111746543D01*
X178392988Y-111746541D01*
X177829410Y-111182962D01*
X177892993Y-111165925D01*
X178007007Y-111100099D01*
X178100099Y-111007007D01*
X178165925Y-110892993D01*
X178182962Y-110829409D01*
X178746541Y-111392988D01*
X178746543Y-111392988D01*
X178772516Y-111357241D01*
X178862126Y-111181373D01*
X178923123Y-110993646D01*
X178954000Y-110798697D01*
X178954000Y-110601302D01*
X178923123Y-110406353D01*
X178862126Y-110218626D01*
X178772520Y-110042768D01*
X178772512Y-110042755D01*
X178746542Y-110007010D01*
X178746541Y-110007009D01*
X178182962Y-110570589D01*
X178165925Y-110507007D01*
X178100099Y-110392993D01*
X178007007Y-110299901D01*
X177892993Y-110234075D01*
X177829409Y-110217037D01*
X178392989Y-109653457D01*
X178357239Y-109627483D01*
X178181373Y-109537873D01*
X177993646Y-109476876D01*
X177798697Y-109446000D01*
X177601303Y-109446000D01*
X177406353Y-109476876D01*
X177218626Y-109537873D01*
X177042762Y-109627482D01*
X177042760Y-109627483D01*
X177007010Y-109653456D01*
X177007010Y-109653457D01*
X177570591Y-110217037D01*
X177507007Y-110234075D01*
X177392993Y-110299901D01*
X177299901Y-110392993D01*
X177234075Y-110507007D01*
X177217037Y-110570590D01*
X176653457Y-110007010D01*
X176653456Y-110007010D01*
X176627483Y-110042760D01*
X176627482Y-110042762D01*
X176537873Y-110218626D01*
X176476876Y-110406353D01*
X176446000Y-110601302D01*
X164700500Y-110601302D01*
X164700500Y-108431004D01*
X164700499Y-108431002D01*
X164673581Y-108295677D01*
X164673579Y-108295670D01*
X164669747Y-108286420D01*
X164666767Y-108279225D01*
X164637343Y-108208188D01*
X164620775Y-108168189D01*
X164620771Y-108168182D01*
X164544115Y-108053459D01*
X164504317Y-108013661D01*
X164446542Y-107955886D01*
X163493989Y-107003333D01*
X162538819Y-106048162D01*
X162505334Y-105986839D01*
X162502500Y-105960481D01*
X162502500Y-103345962D01*
X162522185Y-103278923D01*
X162574989Y-103233168D01*
X162644147Y-103223224D01*
X162673947Y-103231399D01*
X162766503Y-103269737D01*
X162863470Y-103289025D01*
X162921153Y-103300499D01*
X162921156Y-103300500D01*
X162921158Y-103300500D01*
X163078844Y-103300500D01*
X163078845Y-103300499D01*
X163233497Y-103269737D01*
X163379179Y-103209394D01*
X163510289Y-103121789D01*
X163621789Y-103010289D01*
X163709394Y-102879179D01*
X163716677Y-102861593D01*
X163760514Y-102807190D01*
X163826807Y-102785122D01*
X163855431Y-102787426D01*
X163921155Y-102800500D01*
X163921158Y-102800500D01*
X164078844Y-102800500D01*
X164078845Y-102800499D01*
X164233497Y-102769737D01*
X164379179Y-102709394D01*
X164510289Y-102621789D01*
X164621789Y-102510289D01*
X164709394Y-102379179D01*
X164769737Y-102233497D01*
X164800500Y-102078842D01*
X164800500Y-101921158D01*
X164800500Y-101921155D01*
X164800499Y-101921153D01*
X164793666Y-101886802D01*
X164769737Y-101766503D01*
X164760051Y-101743119D01*
X164709939Y-101622136D01*
X164700500Y-101574684D01*
X164700500Y-92821007D01*
X164699104Y-92813991D01*
X164673580Y-92685672D01*
X164636175Y-92595370D01*
X164634226Y-92588549D01*
X164634427Y-92560422D01*
X164631420Y-92532451D01*
X164634673Y-92525950D01*
X164634726Y-92518682D01*
X164650101Y-92495129D01*
X164662695Y-92469972D01*
X164668947Y-92466262D01*
X164672921Y-92460176D01*
X164698589Y-92448674D01*
X164722784Y-92434320D01*
X164730048Y-92434579D01*
X164736683Y-92431607D01*
X164764497Y-92435809D01*
X164792609Y-92436814D01*
X164799560Y-92441108D01*
X164805768Y-92442046D01*
X164816848Y-92451787D01*
X164841131Y-92466787D01*
X166263181Y-93888837D01*
X166296666Y-93950160D01*
X166299500Y-93976518D01*
X166299500Y-99574684D01*
X166290061Y-99622136D01*
X166230264Y-99766498D01*
X166230261Y-99766510D01*
X166199500Y-99921153D01*
X166199500Y-100078846D01*
X166230261Y-100233489D01*
X166230264Y-100233501D01*
X166290602Y-100379172D01*
X166290609Y-100379185D01*
X166378210Y-100510288D01*
X166378213Y-100510292D01*
X166489707Y-100621786D01*
X166489711Y-100621789D01*
X166620814Y-100709390D01*
X166620827Y-100709397D01*
X166743442Y-100760185D01*
X166766503Y-100769737D01*
X166921153Y-100800499D01*
X166921156Y-100800500D01*
X166921158Y-100800500D01*
X167078844Y-100800500D01*
X167078845Y-100800499D01*
X167233497Y-100769737D01*
X167379179Y-100709394D01*
X167510289Y-100621789D01*
X167621789Y-100510289D01*
X167709394Y-100379179D01*
X167711722Y-100373560D01*
X167769735Y-100233501D01*
X167769737Y-100233497D01*
X167800500Y-100078842D01*
X167800500Y-99921158D01*
X167800500Y-99921155D01*
X167800499Y-99921153D01*
X167778317Y-99809638D01*
X167769737Y-99766503D01*
X167769735Y-99766498D01*
X167709939Y-99622136D01*
X167700500Y-99574684D01*
X167700500Y-93566006D01*
X167700499Y-93566003D01*
X167677486Y-93450306D01*
X167677485Y-93450304D01*
X167675616Y-93440906D01*
X167673580Y-93430671D01*
X167646585Y-93365500D01*
X167645586Y-93363088D01*
X167620778Y-93303195D01*
X167620771Y-93303182D01*
X167544115Y-93188459D01*
X167507594Y-93151938D01*
X167446542Y-93090886D01*
X163468837Y-89113181D01*
X163435352Y-89051858D01*
X163440336Y-88982166D01*
X163482208Y-88926233D01*
X163547672Y-88901816D01*
X163556518Y-88901500D01*
X171359360Y-88901500D01*
X171471350Y-88879223D01*
X171494692Y-88874580D01*
X171589629Y-88835256D01*
X171622171Y-88821777D01*
X171622172Y-88821776D01*
X171622175Y-88821775D01*
X171736907Y-88745114D01*
X176544114Y-83937907D01*
X176620775Y-83823175D01*
X176621781Y-83820748D01*
X176661920Y-83723841D01*
X176673580Y-83695692D01*
X176692281Y-83601678D01*
X176700500Y-83560360D01*
X176700500Y-77692647D01*
X176720185Y-77625608D01*
X176746270Y-77596439D01*
X176748892Y-77594306D01*
X176863505Y-77511035D01*
X177011035Y-77363505D01*
X177133670Y-77194714D01*
X177159796Y-77143437D01*
X177207769Y-77092642D01*
X177275590Y-77075846D01*
X177341725Y-77098383D01*
X177380766Y-77143437D01*
X177406759Y-77194451D01*
X177442627Y-77243818D01*
X177442627Y-77243819D01*
X178016212Y-76670234D01*
X178027482Y-76712292D01*
X178099890Y-76837708D01*
X178202292Y-76940110D01*
X178327708Y-77012518D01*
X178369765Y-77023787D01*
X177796179Y-77597371D01*
X177796180Y-77597372D01*
X177845543Y-77633236D01*
X177845556Y-77633244D01*
X178031372Y-77727924D01*
X178229727Y-77792373D01*
X178435721Y-77825000D01*
X178644279Y-77825000D01*
X178850272Y-77792373D01*
X179048627Y-77727924D01*
X179234451Y-77633240D01*
X179283818Y-77597372D01*
X179283818Y-77597371D01*
X178710234Y-77023787D01*
X178752292Y-77012518D01*
X178877708Y-76940110D01*
X178980110Y-76837708D01*
X179052518Y-76712292D01*
X179063787Y-76670234D01*
X179637371Y-77243818D01*
G37*
%TD.AperFunction*%
%TA.AperFunction,Conductor*%
G36*
X117769334Y-101748103D02*
G01*
X117825267Y-101789975D01*
X117849684Y-101855439D01*
X117850000Y-101864285D01*
X117850000Y-102250000D01*
X119016000Y-102250000D01*
X119083039Y-102269685D01*
X119128794Y-102322489D01*
X119140000Y-102374000D01*
X119140000Y-102626000D01*
X119120315Y-102693039D01*
X119067511Y-102738794D01*
X119016000Y-102750000D01*
X117850000Y-102750000D01*
X117850000Y-103888873D01*
X117856386Y-103959152D01*
X117906776Y-104120862D01*
X117906778Y-104120866D01*
X117994404Y-104265818D01*
X117994407Y-104265822D01*
X118106404Y-104377819D01*
X118139889Y-104439142D01*
X118134905Y-104508834D01*
X118093033Y-104564767D01*
X118027569Y-104589184D01*
X118018723Y-104589500D01*
X117365782Y-104589500D01*
X117298743Y-104569815D01*
X117278101Y-104553181D01*
X117159209Y-104434289D01*
X117159206Y-104434285D01*
X117159206Y-104434286D01*
X117152139Y-104427219D01*
X117152139Y-104427218D01*
X117012782Y-104287861D01*
X117012781Y-104287860D01*
X117012780Y-104287859D01*
X116848920Y-104178371D01*
X116848907Y-104178364D01*
X116715039Y-104122915D01*
X116715035Y-104122914D01*
X116707561Y-104119818D01*
X116666836Y-104102949D01*
X116570188Y-104083724D01*
X116566166Y-104082924D01*
X116566155Y-104082921D01*
X116473544Y-104064500D01*
X116473541Y-104064500D01*
X116254500Y-104064500D01*
X116187461Y-104044815D01*
X116141706Y-103992011D01*
X116130500Y-103940500D01*
X116130499Y-102272129D01*
X116130498Y-102272123D01*
X116124091Y-102212516D01*
X116073797Y-102077671D01*
X116072020Y-102075297D01*
X116071284Y-102074313D01*
X116069818Y-102070385D01*
X116069547Y-102069888D01*
X116069618Y-102069848D01*
X116046864Y-102008854D01*
X116058503Y-101946879D01*
X116063829Y-101935644D01*
X116073796Y-101922331D01*
X116087274Y-101886194D01*
X116089557Y-101881379D01*
X116109411Y-101859117D01*
X116127291Y-101835233D01*
X116132419Y-101833320D01*
X116136063Y-101829235D01*
X116164804Y-101821241D01*
X116192756Y-101810816D01*
X116201602Y-101810500D01*
X116374531Y-101810500D01*
X116441570Y-101830185D01*
X116443422Y-101831398D01*
X116526079Y-101886628D01*
X116526088Y-101886633D01*
X116560252Y-101900784D01*
X116708165Y-101962052D01*
X116894527Y-101999122D01*
X116901455Y-102000500D01*
X116901458Y-102000501D01*
X116901460Y-102000501D01*
X117098543Y-102000501D01*
X117098544Y-102000500D01*
X117291836Y-101962052D01*
X117473915Y-101886632D01*
X117637782Y-101777140D01*
X117637785Y-101777137D01*
X117638319Y-101776604D01*
X117638667Y-101776413D01*
X117642492Y-101773275D01*
X117643087Y-101774000D01*
X117699642Y-101743119D01*
X117769334Y-101748103D01*
G37*
%TD.AperFunction*%
%TA.AperFunction,Conductor*%
G36*
X154935368Y-83702185D02*
G01*
X154981123Y-83754989D01*
X154991267Y-83822686D01*
X154990240Y-83830493D01*
X154989500Y-83836110D01*
X154989500Y-84353888D01*
X155004279Y-84466151D01*
X155004282Y-84466162D01*
X155062143Y-84605853D01*
X155099482Y-84654514D01*
X155124676Y-84719684D01*
X155110637Y-84788128D01*
X155099482Y-84805486D01*
X155062143Y-84854146D01*
X155004282Y-84993837D01*
X155004281Y-84993841D01*
X154989500Y-85106105D01*
X154989500Y-85623888D01*
X155004279Y-85736151D01*
X155004282Y-85736162D01*
X155062143Y-85875853D01*
X155099482Y-85924514D01*
X155124676Y-85989684D01*
X155110637Y-86058128D01*
X155099482Y-86075486D01*
X155062143Y-86124146D01*
X155004282Y-86263837D01*
X155004281Y-86263841D01*
X154989500Y-86376105D01*
X154989500Y-86893888D01*
X155004279Y-87006151D01*
X155004282Y-87006162D01*
X155062143Y-87145853D01*
X155099482Y-87194514D01*
X155124676Y-87259684D01*
X155110637Y-87328128D01*
X155099482Y-87345486D01*
X155062143Y-87394146D01*
X155004282Y-87533837D01*
X155004281Y-87533841D01*
X154989500Y-87646105D01*
X154989500Y-88163888D01*
X155004279Y-88276151D01*
X155004282Y-88276162D01*
X155062142Y-88415850D01*
X155062143Y-88415852D01*
X155062144Y-88415853D01*
X155154190Y-88535810D01*
X155274147Y-88627856D01*
X155413841Y-88685719D01*
X155526113Y-88700500D01*
X157423886Y-88700499D01*
X157511627Y-88688948D01*
X157580660Y-88699714D01*
X157615491Y-88724206D01*
X158679604Y-89788319D01*
X158713089Y-89849642D01*
X158708105Y-89919334D01*
X158666233Y-89975267D01*
X158600769Y-89999684D01*
X158591923Y-90000000D01*
X158430000Y-90000000D01*
X158430000Y-90750000D01*
X159230000Y-90750000D01*
X159230000Y-90638076D01*
X159249685Y-90571037D01*
X159302489Y-90525282D01*
X159371647Y-90515338D01*
X159435203Y-90544363D01*
X159441672Y-90550386D01*
X159945511Y-91054225D01*
X162263181Y-93371895D01*
X162296666Y-93433218D01*
X162299500Y-93459576D01*
X162299500Y-97526895D01*
X162279815Y-97593934D01*
X162227011Y-97639689D01*
X162157853Y-97649633D01*
X162094297Y-97620608D01*
X162072398Y-97595786D01*
X162044114Y-97553457D01*
X162044111Y-97553453D01*
X161703683Y-97213026D01*
X161676803Y-97172797D01*
X161665087Y-97144512D01*
X161665086Y-97144511D01*
X161665084Y-97144505D01*
X161658877Y-97135216D01*
X161582954Y-97021588D01*
X161582948Y-97021580D01*
X161478419Y-96917051D01*
X161478415Y-96917048D01*
X161355501Y-96834919D01*
X161355488Y-96834912D01*
X161218917Y-96778343D01*
X161218907Y-96778340D01*
X161073920Y-96749500D01*
X161073918Y-96749500D01*
X160926082Y-96749500D01*
X160926080Y-96749500D01*
X160781092Y-96778340D01*
X160781082Y-96778343D01*
X160644511Y-96834912D01*
X160644498Y-96834919D01*
X160521584Y-96917048D01*
X160521580Y-96917051D01*
X160417051Y-97021580D01*
X160417048Y-97021584D01*
X160334919Y-97144498D01*
X160334912Y-97144511D01*
X160278343Y-97281082D01*
X160278340Y-97281092D01*
X160249500Y-97426079D01*
X160249500Y-97426082D01*
X160249500Y-97573918D01*
X160249500Y-97573920D01*
X160249499Y-97573920D01*
X160278340Y-97718907D01*
X160278343Y-97718917D01*
X160334912Y-97855488D01*
X160334919Y-97855501D01*
X160417048Y-97978415D01*
X160417051Y-97978419D01*
X160521580Y-98082948D01*
X160521588Y-98082954D01*
X160644494Y-98165077D01*
X160644497Y-98165078D01*
X160644505Y-98165084D01*
X160644511Y-98165086D01*
X160644512Y-98165087D01*
X160672797Y-98176803D01*
X160713026Y-98203683D01*
X160763181Y-98253838D01*
X160796666Y-98315161D01*
X160799500Y-98341519D01*
X160799500Y-101641701D01*
X160779815Y-101708740D01*
X160727011Y-101754495D01*
X160657853Y-101764439D01*
X160594297Y-101735414D01*
X160587819Y-101729382D01*
X158097528Y-99239091D01*
X158064043Y-99177768D01*
X158069027Y-99108076D01*
X158086834Y-99075922D01*
X158128843Y-99021176D01*
X158185521Y-98884342D01*
X158185521Y-98884341D01*
X158199999Y-98774377D01*
X158200000Y-98774363D01*
X158200000Y-98750000D01*
X157659799Y-98750000D01*
X157592760Y-98730315D01*
X157572118Y-98713681D01*
X157486319Y-98627882D01*
X157452834Y-98566559D01*
X157450000Y-98540201D01*
X157450000Y-98374000D01*
X157469685Y-98306961D01*
X157522489Y-98261206D01*
X157574000Y-98250000D01*
X158200000Y-98250000D01*
X158200000Y-98225636D01*
X158199998Y-98225619D01*
X158188817Y-98140684D01*
X158199583Y-98071649D01*
X158245963Y-98019393D01*
X158311754Y-98000499D01*
X158777872Y-98000499D01*
X158837483Y-97994091D01*
X158972331Y-97943796D01*
X159087546Y-97857546D01*
X159173796Y-97742331D01*
X159224091Y-97607483D01*
X159230500Y-97547873D01*
X159230499Y-96452128D01*
X159224091Y-96392517D01*
X159219421Y-96379996D01*
X159173797Y-96257670D01*
X159163083Y-96243359D01*
X159148823Y-96224310D01*
X159124406Y-96158849D01*
X159139257Y-96090575D01*
X159148820Y-96075694D01*
X159173796Y-96042331D01*
X159176757Y-96034394D01*
X159195346Y-95984552D01*
X159224091Y-95907483D01*
X159230500Y-95847873D01*
X159230499Y-94452128D01*
X159224091Y-94392517D01*
X159200884Y-94330297D01*
X159173797Y-94257671D01*
X159173793Y-94257664D01*
X159087547Y-94142455D01*
X159072810Y-94131423D01*
X159069909Y-94129251D01*
X159029437Y-94098953D01*
X158987567Y-94043019D01*
X158982583Y-93973327D01*
X159016069Y-93912004D01*
X159029439Y-93900420D01*
X159087189Y-93857188D01*
X159087190Y-93857187D01*
X159173350Y-93742093D01*
X159173354Y-93742086D01*
X159223596Y-93607379D01*
X159223598Y-93607372D01*
X159229999Y-93547844D01*
X159230000Y-93547827D01*
X159230000Y-93100000D01*
X158329000Y-93100000D01*
X158261961Y-93080315D01*
X158216206Y-93027511D01*
X158205000Y-92976000D01*
X158205000Y-92850000D01*
X158079000Y-92850000D01*
X158011961Y-92830315D01*
X157966206Y-92777511D01*
X157955000Y-92726000D01*
X157955000Y-92120589D01*
X157932834Y-92079996D01*
X157930000Y-92053638D01*
X157930000Y-91579410D01*
X158430000Y-91579410D01*
X158452166Y-91620004D01*
X158455000Y-91646362D01*
X158455000Y-92600000D01*
X159230000Y-92600000D01*
X159230000Y-92152172D01*
X159229999Y-92152155D01*
X159223598Y-92092627D01*
X159223597Y-92092623D01*
X159173351Y-91957909D01*
X159148200Y-91924312D01*
X159123782Y-91858848D01*
X159138633Y-91790575D01*
X159148200Y-91775688D01*
X159173351Y-91742090D01*
X159223597Y-91607376D01*
X159223598Y-91607372D01*
X159229999Y-91547844D01*
X159230000Y-91547827D01*
X159230000Y-91250000D01*
X158430000Y-91250000D01*
X158430000Y-91579410D01*
X157930000Y-91579410D01*
X157930000Y-90000000D01*
X157582155Y-90000000D01*
X157522627Y-90006401D01*
X157522620Y-90006403D01*
X157379601Y-90059746D01*
X157378924Y-90057931D01*
X157321674Y-90070383D01*
X157280967Y-90058428D01*
X157280641Y-90059303D01*
X157137482Y-90005908D01*
X157137483Y-90005908D01*
X157077883Y-89999501D01*
X157077881Y-89999500D01*
X157077873Y-89999500D01*
X157077864Y-89999500D01*
X155882129Y-89999500D01*
X155882123Y-89999501D01*
X155822516Y-90005908D01*
X155687671Y-90056202D01*
X155687664Y-90056206D01*
X155572455Y-90142452D01*
X155572452Y-90142455D01*
X155486206Y-90257664D01*
X155486202Y-90257671D01*
X155435908Y-90392517D01*
X155429501Y-90452116D01*
X155429500Y-90452135D01*
X155429500Y-91547870D01*
X155429501Y-91547876D01*
X155435908Y-91607483D01*
X155486202Y-91742328D01*
X155486203Y-91742330D01*
X155511176Y-91775690D01*
X155535592Y-91841155D01*
X155520740Y-91909428D01*
X155511177Y-91924308D01*
X155492089Y-91949808D01*
X155436157Y-91991681D01*
X155392820Y-91999500D01*
X155155212Y-91999500D01*
X155107759Y-91990061D01*
X154984854Y-91939152D01*
X154967012Y-91936803D01*
X154873568Y-91924500D01*
X154873561Y-91924500D01*
X153699499Y-91924500D01*
X153632460Y-91904815D01*
X153586705Y-91852011D01*
X153575499Y-91800500D01*
X153575499Y-90626437D01*
X153560849Y-90515153D01*
X153560848Y-90515152D01*
X153560848Y-90515146D01*
X153503489Y-90376669D01*
X153412244Y-90257756D01*
X153293331Y-90166511D01*
X153282877Y-90162181D01*
X153252770Y-90149710D01*
X153154854Y-90109152D01*
X153043561Y-90094500D01*
X152556437Y-90094500D01*
X152445153Y-90109150D01*
X152437300Y-90111255D01*
X152436788Y-90109345D01*
X152377969Y-90115662D01*
X152362723Y-90111185D01*
X152362705Y-90111256D01*
X152354855Y-90109152D01*
X152354854Y-90109152D01*
X152243561Y-90094500D01*
X151756432Y-90094500D01*
X151753790Y-90094674D01*
X151753017Y-90094500D01*
X151752381Y-90094501D01*
X151752381Y-90094358D01*
X151685608Y-90079411D01*
X151658009Y-90058620D01*
X151576097Y-89976708D01*
X151542612Y-89915385D01*
X151547596Y-89845693D01*
X151589468Y-89789760D01*
X151639586Y-89767410D01*
X151743913Y-89746658D01*
X151880495Y-89690084D01*
X152003416Y-89607951D01*
X152107951Y-89503416D01*
X152190084Y-89380495D01*
X152197122Y-89363505D01*
X152207234Y-89339090D01*
X152246658Y-89243913D01*
X152275500Y-89098918D01*
X152275500Y-88951082D01*
X152275500Y-88951079D01*
X152255133Y-88848691D01*
X152261360Y-88779099D01*
X152304223Y-88723922D01*
X152370112Y-88700677D01*
X152376750Y-88700499D01*
X152473888Y-88700499D01*
X152586151Y-88685720D01*
X152586150Y-88685720D01*
X152586159Y-88685719D01*
X152725853Y-88627856D01*
X152845810Y-88535810D01*
X152853356Y-88525974D01*
X152882839Y-88498360D01*
X152956543Y-88449114D01*
X154494114Y-86911543D01*
X154570775Y-86796811D01*
X154582128Y-86769404D01*
X154601786Y-86721944D01*
X154623580Y-86669328D01*
X154635750Y-86608147D01*
X154650500Y-86533995D01*
X154650500Y-83806500D01*
X154670185Y-83739461D01*
X154722989Y-83693706D01*
X154774500Y-83682500D01*
X154868329Y-83682500D01*
X154935368Y-83702185D01*
G37*
%TD.AperFunction*%
%TA.AperFunction,Conductor*%
G36*
X152335361Y-95726390D02*
G01*
X152367067Y-95771192D01*
X152379223Y-95800540D01*
X152455887Y-95915277D01*
X152896301Y-96355691D01*
X152896309Y-96355698D01*
X152984725Y-96444114D01*
X153099457Y-96520775D01*
X153104838Y-96523004D01*
X153132867Y-96539186D01*
X153214239Y-96601624D01*
X153255441Y-96658052D01*
X153259596Y-96727798D01*
X153225384Y-96788719D01*
X153214243Y-96798372D01*
X153117147Y-96872876D01*
X153051979Y-96898070D01*
X153041662Y-96898500D01*
X152640640Y-96898500D01*
X152505313Y-96925418D01*
X152505303Y-96925421D01*
X152377828Y-96978222D01*
X152263090Y-97054887D01*
X152263089Y-97054888D01*
X152054798Y-97263181D01*
X151993475Y-97296666D01*
X151967117Y-97299500D01*
X151833006Y-97299500D01*
X151765967Y-97279815D01*
X151720212Y-97227011D01*
X151711142Y-97172585D01*
X151709293Y-97172585D01*
X151709293Y-96243359D01*
X151728978Y-96176320D01*
X151745612Y-96155678D01*
X152145111Y-95756179D01*
X152145114Y-95756176D01*
X152149400Y-95749761D01*
X152203007Y-95704953D01*
X152272331Y-95696240D01*
X152335361Y-95726390D01*
G37*
%TD.AperFunction*%
%TA.AperFunction,Conductor*%
G36*
X155500677Y-94869685D02*
G01*
X155521319Y-94886319D01*
X155535000Y-94900000D01*
X156331000Y-94900000D01*
X156398039Y-94919685D01*
X156443794Y-94972489D01*
X156455000Y-95024000D01*
X156455000Y-95150000D01*
X156581000Y-95150000D01*
X156648039Y-95169685D01*
X156693794Y-95222489D01*
X156705000Y-95274000D01*
X156705000Y-95879410D01*
X156727166Y-95920004D01*
X156730000Y-95946362D01*
X156730000Y-96876000D01*
X156710315Y-96943039D01*
X156657511Y-96988794D01*
X156606000Y-97000000D01*
X156354000Y-97000000D01*
X156286961Y-96980315D01*
X156241206Y-96927511D01*
X156230000Y-96876000D01*
X156230000Y-96420589D01*
X156207834Y-96379996D01*
X156205000Y-96353638D01*
X156205000Y-95400000D01*
X155450752Y-95400000D01*
X155383713Y-95380315D01*
X155381347Y-95378757D01*
X155371484Y-95372095D01*
X155355275Y-95355886D01*
X155240543Y-95279225D01*
X155223588Y-95272201D01*
X155213209Y-95265191D01*
X155211831Y-95263525D01*
X155207128Y-95260810D01*
X155125761Y-95198375D01*
X155084558Y-95141947D01*
X155080403Y-95072201D01*
X155114615Y-95011281D01*
X155125746Y-95001635D01*
X155242244Y-94912244D01*
X155252779Y-94898513D01*
X155309207Y-94857311D01*
X155351155Y-94850000D01*
X155433638Y-94850000D01*
X155500677Y-94869685D01*
G37*
%TD.AperFunction*%
%TA.AperFunction,Conductor*%
G36*
X133165598Y-90501441D02*
G01*
X133221531Y-90543313D01*
X133225365Y-90548730D01*
X133232372Y-90559217D01*
X133380781Y-90707626D01*
X133555298Y-90824234D01*
X133652251Y-90864393D01*
X133749205Y-90904553D01*
X133749209Y-90904553D01*
X133749210Y-90904554D01*
X133955054Y-90945500D01*
X134154192Y-90945500D01*
X134221231Y-90965185D01*
X134241873Y-90981819D01*
X134339181Y-91079127D01*
X134372666Y-91140450D01*
X134375500Y-91166808D01*
X134375500Y-91245287D01*
X134355815Y-91312326D01*
X134303011Y-91358081D01*
X134233853Y-91368025D01*
X134227310Y-91366905D01*
X134164943Y-91354500D01*
X133955057Y-91354500D01*
X133955055Y-91354500D01*
X133749210Y-91395445D01*
X133749204Y-91395447D01*
X133555298Y-91475765D01*
X133380781Y-91592373D01*
X133232373Y-91740781D01*
X133115765Y-91915298D01*
X133035447Y-92109204D01*
X133035445Y-92109210D01*
X132994500Y-92315054D01*
X132994500Y-92315057D01*
X132994500Y-92524943D01*
X132994500Y-92524945D01*
X132994499Y-92524945D01*
X133035445Y-92730789D01*
X133035447Y-92730795D01*
X133115765Y-92924701D01*
X133150042Y-92976000D01*
X133232372Y-93099216D01*
X133323182Y-93190026D01*
X133356666Y-93251347D01*
X133359500Y-93277706D01*
X133359500Y-93491006D01*
X133359500Y-93628994D01*
X133359500Y-93628996D01*
X133359499Y-93628996D01*
X133386418Y-93764322D01*
X133386421Y-93764332D01*
X133437993Y-93888837D01*
X133439225Y-93891811D01*
X133454445Y-93914589D01*
X133463421Y-93928023D01*
X133484298Y-93994701D01*
X133465813Y-94062081D01*
X133429209Y-94100015D01*
X133380784Y-94132371D01*
X133380780Y-94132374D01*
X133232373Y-94280781D01*
X133115766Y-94455297D01*
X133087365Y-94523864D01*
X133043523Y-94578267D01*
X132977229Y-94600331D01*
X132909529Y-94583051D01*
X132898493Y-94575677D01*
X132792330Y-94496203D01*
X132792328Y-94496202D01*
X132657482Y-94445908D01*
X132657483Y-94445908D01*
X132597883Y-94439501D01*
X132597881Y-94439500D01*
X132597873Y-94439500D01*
X132597864Y-94439500D01*
X130682129Y-94439500D01*
X130682123Y-94439501D01*
X130622516Y-94445908D01*
X130487671Y-94496202D01*
X130487664Y-94496206D01*
X130372455Y-94582452D01*
X130372452Y-94582455D01*
X130286206Y-94697664D01*
X130286202Y-94697671D01*
X130235908Y-94832517D01*
X130229501Y-94892116D01*
X130229500Y-94892135D01*
X130229500Y-94952216D01*
X130209815Y-95019255D01*
X130193182Y-95039897D01*
X130060861Y-95172218D01*
X130060858Y-95172221D01*
X130023689Y-95209390D01*
X129912366Y-95320712D01*
X129851042Y-95354196D01*
X129781351Y-95349211D01*
X129725417Y-95307340D01*
X129714199Y-95289322D01*
X129706993Y-95275178D01*
X129706985Y-95275165D01*
X129694950Y-95258603D01*
X129694949Y-95258602D01*
X129120000Y-95833551D01*
X129120000Y-95827339D01*
X129092741Y-95725606D01*
X129040080Y-95634394D01*
X128965606Y-95559920D01*
X128874394Y-95507259D01*
X128772661Y-95480000D01*
X128766447Y-95480000D01*
X129341396Y-94905049D01*
X129341395Y-94905048D01*
X129324834Y-94893014D01*
X129324830Y-94893012D01*
X129162984Y-94810548D01*
X128990225Y-94754415D01*
X128810821Y-94726000D01*
X128629179Y-94726000D01*
X128449774Y-94754415D01*
X128277015Y-94810548D01*
X128115170Y-94893012D01*
X128115161Y-94893018D01*
X128098603Y-94905048D01*
X128098602Y-94905049D01*
X128673554Y-95480000D01*
X128667339Y-95480000D01*
X128565606Y-95507259D01*
X128474394Y-95559920D01*
X128399920Y-95634394D01*
X128347259Y-95725606D01*
X128320000Y-95827339D01*
X128320000Y-95833553D01*
X127745049Y-95258602D01*
X127745048Y-95258603D01*
X127733018Y-95275161D01*
X127733012Y-95275170D01*
X127650548Y-95437015D01*
X127594415Y-95609774D01*
X127572726Y-95746712D01*
X127542797Y-95809847D01*
X127483485Y-95846778D01*
X127413622Y-95845780D01*
X127355390Y-95807170D01*
X127327780Y-95746712D01*
X127306072Y-95609654D01*
X127306071Y-95609650D01*
X127306071Y-95609649D01*
X127249918Y-95436828D01*
X127249916Y-95436825D01*
X127246952Y-95431006D01*
X127167417Y-95274910D01*
X127060603Y-95127894D01*
X126932106Y-94999397D01*
X126924778Y-94994073D01*
X126918674Y-94988219D01*
X126905326Y-94964946D01*
X126888945Y-94943700D01*
X126886903Y-94932826D01*
X126883912Y-94927611D01*
X126884338Y-94919165D01*
X126880500Y-94898721D01*
X126880500Y-94771517D01*
X126900185Y-94704478D01*
X126916815Y-94683840D01*
X127373837Y-94226817D01*
X127435160Y-94193333D01*
X127461518Y-94190499D01*
X128162871Y-94190499D01*
X128162872Y-94190499D01*
X128222483Y-94184091D01*
X128357331Y-94133796D01*
X128367140Y-94126453D01*
X128479645Y-94042232D01*
X128480463Y-94043325D01*
X128533642Y-94014288D01*
X128603334Y-94019272D01*
X128639934Y-94042794D01*
X128640355Y-94042232D01*
X128762664Y-94133793D01*
X128762671Y-94133797D01*
X128897517Y-94184091D01*
X128897516Y-94184091D01*
X128904444Y-94184835D01*
X128957127Y-94190500D01*
X130062872Y-94190499D01*
X130122483Y-94184091D01*
X130257331Y-94133796D01*
X130372546Y-94047546D01*
X130458796Y-93932331D01*
X130509091Y-93797483D01*
X130515500Y-93737873D01*
X130515499Y-93100387D01*
X130535183Y-93033349D01*
X130551813Y-93012712D01*
X133034585Y-90529940D01*
X133095906Y-90496457D01*
X133165598Y-90501441D01*
G37*
%TD.AperFunction*%
%TA.AperFunction,Conductor*%
G36*
X140935520Y-82720185D02*
G01*
X140956162Y-82736819D01*
X141780474Y-83561131D01*
X141813959Y-83622454D01*
X141808975Y-83692146D01*
X141767103Y-83748079D01*
X141716988Y-83770429D01*
X141689352Y-83775926D01*
X141689350Y-83775927D01*
X141495535Y-83856207D01*
X141495532Y-83856209D01*
X141444117Y-83890564D01*
X141963554Y-84410000D01*
X141948656Y-84410000D01*
X141849466Y-84436578D01*
X141760535Y-84487923D01*
X141687923Y-84560535D01*
X141636578Y-84649466D01*
X141610000Y-84748656D01*
X141610000Y-84763553D01*
X141090564Y-84244117D01*
X141056209Y-84295532D01*
X141056207Y-84295535D01*
X140975927Y-84489350D01*
X140975925Y-84489358D01*
X140935000Y-84695102D01*
X140935000Y-84904897D01*
X140975925Y-85110641D01*
X140975927Y-85110649D01*
X141056207Y-85304464D01*
X141090563Y-85355882D01*
X141610000Y-84836445D01*
X141610000Y-84851344D01*
X141636578Y-84950534D01*
X141687923Y-85039465D01*
X141760535Y-85112077D01*
X141849466Y-85163422D01*
X141948656Y-85190000D01*
X141963553Y-85190000D01*
X141444116Y-85709434D01*
X141444117Y-85709435D01*
X141495528Y-85743788D01*
X141495534Y-85743791D01*
X141689350Y-85824072D01*
X141689358Y-85824074D01*
X141895102Y-85864999D01*
X141895106Y-85865000D01*
X142104894Y-85865000D01*
X142104897Y-85864999D01*
X142310641Y-85824074D01*
X142310649Y-85824072D01*
X142504465Y-85743791D01*
X142504473Y-85743787D01*
X142555881Y-85709435D01*
X142555882Y-85709434D01*
X142036448Y-85190000D01*
X142051344Y-85190000D01*
X142150534Y-85163422D01*
X142239465Y-85112077D01*
X142312077Y-85039465D01*
X142363422Y-84950534D01*
X142390000Y-84851344D01*
X142390000Y-84836446D01*
X142909434Y-85355882D01*
X142909435Y-85355881D01*
X142943787Y-85304473D01*
X142943791Y-85304465D01*
X143024072Y-85110649D01*
X143029569Y-85083016D01*
X143061954Y-85021104D01*
X143122670Y-84986530D01*
X143192439Y-84990269D01*
X143238868Y-85019525D01*
X144256341Y-86036998D01*
X144289826Y-86098321D01*
X144284842Y-86168013D01*
X144242970Y-86223946D01*
X144211993Y-86240861D01*
X144197671Y-86246202D01*
X144197664Y-86246206D01*
X144082455Y-86332452D01*
X144082452Y-86332455D01*
X143996206Y-86447664D01*
X143996202Y-86447671D01*
X143945908Y-86582517D01*
X143939983Y-86637632D01*
X143939501Y-86642123D01*
X143939500Y-86642135D01*
X143939500Y-88713008D01*
X143919815Y-88780047D01*
X143867011Y-88825802D01*
X143862959Y-88827566D01*
X143844404Y-88835253D01*
X143844397Y-88835256D01*
X143738249Y-88879223D01*
X143704910Y-88901500D01*
X143669470Y-88925180D01*
X143669469Y-88925181D01*
X143623516Y-88955884D01*
X143623511Y-88955888D01*
X143151571Y-89427828D01*
X143090248Y-89461313D01*
X143020556Y-89456329D01*
X142964623Y-89414457D01*
X142949328Y-89387598D01*
X142946388Y-89380501D01*
X142944233Y-89375297D01*
X142827628Y-89200784D01*
X142827626Y-89200781D01*
X142679218Y-89052373D01*
X142504701Y-88935765D01*
X142310795Y-88855447D01*
X142310789Y-88855445D01*
X142104945Y-88814500D01*
X142104943Y-88814500D01*
X141895057Y-88814500D01*
X141895055Y-88814500D01*
X141689210Y-88855445D01*
X141689204Y-88855447D01*
X141495298Y-88935765D01*
X141320781Y-89052373D01*
X141172373Y-89200781D01*
X141055765Y-89375298D01*
X140975447Y-89569204D01*
X140975445Y-89569210D01*
X140934500Y-89775054D01*
X140934500Y-89775057D01*
X140934500Y-89984943D01*
X140934500Y-89984945D01*
X140934499Y-89984945D01*
X140975445Y-90190789D01*
X140975447Y-90190795D01*
X141055765Y-90384701D01*
X141172373Y-90559218D01*
X141268114Y-90654959D01*
X141301599Y-90716282D01*
X141296615Y-90785974D01*
X141254743Y-90841907D01*
X141249324Y-90845742D01*
X141153325Y-90909885D01*
X140489887Y-91573323D01*
X140413222Y-91688061D01*
X140360421Y-91815536D01*
X140360418Y-91815547D01*
X140342662Y-91904815D01*
X140335025Y-91943211D01*
X140333500Y-91950876D01*
X140333500Y-92751137D01*
X140333500Y-92889125D01*
X140333500Y-92889127D01*
X140333499Y-92889127D01*
X140360418Y-93024453D01*
X140360421Y-93024463D01*
X140413222Y-93151938D01*
X140489887Y-93266676D01*
X141250502Y-94027291D01*
X141283987Y-94088614D01*
X141279003Y-94158306D01*
X141250502Y-94202654D01*
X141181310Y-94271845D01*
X141119986Y-94305329D01*
X141050295Y-94300344D01*
X140994361Y-94258473D01*
X140990527Y-94253053D01*
X140923044Y-94152058D01*
X140923038Y-94152050D01*
X140818509Y-94047521D01*
X140818505Y-94047518D01*
X140695591Y-93965389D01*
X140695581Y-93965384D01*
X140606260Y-93928386D01*
X140566032Y-93901506D01*
X138236819Y-91572293D01*
X138203334Y-91510970D01*
X138200500Y-91484612D01*
X138200500Y-90561107D01*
X138220185Y-90494068D01*
X138272989Y-90448313D01*
X138342147Y-90438369D01*
X138405703Y-90467394D01*
X138412485Y-90474364D01*
X138412741Y-90474109D01*
X138521580Y-90582948D01*
X138521584Y-90582951D01*
X138644498Y-90665080D01*
X138644511Y-90665087D01*
X138768108Y-90716282D01*
X138781087Y-90721658D01*
X138781091Y-90721658D01*
X138781092Y-90721659D01*
X138926079Y-90750500D01*
X138926082Y-90750500D01*
X139073920Y-90750500D01*
X139171462Y-90731096D01*
X139218913Y-90721658D01*
X139329619Y-90675802D01*
X139355488Y-90665087D01*
X139355488Y-90665086D01*
X139355495Y-90665084D01*
X139478416Y-90582951D01*
X139582951Y-90478416D01*
X139665084Y-90355495D01*
X139667506Y-90349649D01*
X139706961Y-90254394D01*
X139721658Y-90218913D01*
X139736867Y-90142454D01*
X139750500Y-90073920D01*
X139750500Y-89926079D01*
X139723383Y-89789760D01*
X139721658Y-89781087D01*
X139709937Y-89752790D01*
X139700500Y-89705342D01*
X139700500Y-87931006D01*
X139699124Y-87924091D01*
X139699123Y-87924085D01*
X139684811Y-87852135D01*
X139673580Y-87795672D01*
X139666401Y-87778341D01*
X139620777Y-87668192D01*
X139544112Y-87553454D01*
X139435603Y-87444945D01*
X140934499Y-87444945D01*
X140975445Y-87650789D01*
X140975447Y-87650795D01*
X141055765Y-87844701D01*
X141172373Y-88019218D01*
X141320781Y-88167626D01*
X141495298Y-88284234D01*
X141592251Y-88324393D01*
X141689205Y-88364553D01*
X141689209Y-88364553D01*
X141689210Y-88364554D01*
X141895054Y-88405500D01*
X141895057Y-88405500D01*
X142104945Y-88405500D01*
X142243433Y-88377952D01*
X142310795Y-88364553D01*
X142476305Y-88295995D01*
X142504701Y-88284234D01*
X142504701Y-88284233D01*
X142504703Y-88284233D01*
X142679216Y-88167628D01*
X142827628Y-88019216D01*
X142944233Y-87844703D01*
X143024553Y-87650795D01*
X143045870Y-87543631D01*
X143065500Y-87444945D01*
X143065500Y-87235054D01*
X143024554Y-87029210D01*
X143024553Y-87029209D01*
X143024553Y-87029205D01*
X142975816Y-86911545D01*
X142944234Y-86835298D01*
X142827626Y-86660781D01*
X142679218Y-86512373D01*
X142504701Y-86395765D01*
X142310795Y-86315447D01*
X142310789Y-86315445D01*
X142104945Y-86274500D01*
X142104943Y-86274500D01*
X141895057Y-86274500D01*
X141895055Y-86274500D01*
X141689210Y-86315445D01*
X141689204Y-86315447D01*
X141495298Y-86395765D01*
X141320781Y-86512373D01*
X141172373Y-86660781D01*
X141055765Y-86835298D01*
X140975447Y-87029204D01*
X140975445Y-87029210D01*
X140934500Y-87235054D01*
X140934500Y-87235057D01*
X140934500Y-87444943D01*
X140934500Y-87444945D01*
X140934499Y-87444945D01*
X139435603Y-87444945D01*
X139307304Y-87316646D01*
X137741561Y-85750904D01*
X137342591Y-85351934D01*
X137309106Y-85290611D01*
X137314090Y-85220919D01*
X137355962Y-85164986D01*
X137361382Y-85161151D01*
X137443750Y-85106114D01*
X137478416Y-85082951D01*
X137582951Y-84978416D01*
X137665084Y-84855495D01*
X137721658Y-84718913D01*
X137724391Y-84705171D01*
X137732418Y-84664823D01*
X137750500Y-84573918D01*
X137750500Y-84426079D01*
X137724485Y-84295298D01*
X137721658Y-84281087D01*
X137709937Y-84252790D01*
X137700500Y-84205342D01*
X137700500Y-83918973D01*
X137720185Y-83851934D01*
X137772989Y-83806179D01*
X137792615Y-83799143D01*
X137800364Y-83797081D01*
X137884472Y-83786009D01*
X137960811Y-83754387D01*
X137968767Y-83752271D01*
X137995786Y-83752961D01*
X138022667Y-83750071D01*
X138036009Y-83753988D01*
X138038613Y-83754055D01*
X138040422Y-83755284D01*
X138048105Y-83757540D01*
X138115658Y-83785521D01*
X138115665Y-83785523D01*
X138199998Y-83796625D01*
X138200000Y-83796624D01*
X138700000Y-83796624D01*
X138700001Y-83796625D01*
X138784334Y-83785523D01*
X138784342Y-83785521D01*
X138921175Y-83728843D01*
X139038679Y-83638679D01*
X139128843Y-83521175D01*
X139185521Y-83384342D01*
X139185521Y-83384341D01*
X139199999Y-83274377D01*
X139200000Y-83274363D01*
X139200000Y-83250000D01*
X138700000Y-83250000D01*
X138700000Y-83796624D01*
X138200000Y-83796624D01*
X138200000Y-83601678D01*
X138219685Y-83534639D01*
X138225616Y-83526201D01*
X138229279Y-83521429D01*
X138286009Y-83384472D01*
X138300500Y-83274401D01*
X138300499Y-83123997D01*
X138320184Y-83056961D01*
X138372988Y-83011206D01*
X138424499Y-83000000D01*
X138450000Y-83000000D01*
X138450000Y-82874000D01*
X138469685Y-82806961D01*
X138522489Y-82761206D01*
X138574000Y-82750000D01*
X139200000Y-82750000D01*
X139213181Y-82736819D01*
X139274504Y-82703334D01*
X139300862Y-82700500D01*
X140868481Y-82700500D01*
X140935520Y-82720185D01*
G37*
%TD.AperFunction*%
%TA.AperFunction,Conductor*%
G36*
X128672762Y-85921760D02*
G01*
X128737307Y-85941873D01*
X128840758Y-85974110D01*
X128911079Y-85980500D01*
X130208920Y-85980499D01*
X130208927Y-85980499D01*
X130279235Y-85974111D01*
X130279237Y-85974110D01*
X130279242Y-85974110D01*
X130441072Y-85923681D01*
X130441073Y-85923679D01*
X130447235Y-85921760D01*
X130517095Y-85920608D01*
X130571807Y-85952464D01*
X130929453Y-86310111D01*
X130929454Y-86310112D01*
X131044192Y-86386777D01*
X131164709Y-86436696D01*
X131171672Y-86439580D01*
X131171676Y-86439580D01*
X131171677Y-86439581D01*
X131307003Y-86466500D01*
X131307006Y-86466500D01*
X131307007Y-86466500D01*
X133130200Y-86466500D01*
X133197239Y-86486185D01*
X133242994Y-86538989D01*
X133252938Y-86608147D01*
X133233303Y-86659390D01*
X133115766Y-86835298D01*
X133035447Y-87029204D01*
X133035445Y-87029210D01*
X132994500Y-87235054D01*
X132994500Y-87235057D01*
X132994500Y-87444943D01*
X132994500Y-87444945D01*
X132994499Y-87444945D01*
X133035445Y-87650789D01*
X133035447Y-87650795D01*
X133115765Y-87844701D01*
X133232373Y-88019218D01*
X133253798Y-88040643D01*
X133287283Y-88101966D01*
X133282299Y-88171658D01*
X133240427Y-88227591D01*
X133235012Y-88231423D01*
X133226955Y-88236807D01*
X133226951Y-88236810D01*
X133160741Y-88281049D01*
X133160738Y-88281052D01*
X129668608Y-91773181D01*
X129607285Y-91806666D01*
X129580927Y-91809500D01*
X128957129Y-91809500D01*
X128957123Y-91809501D01*
X128897516Y-91815908D01*
X128762671Y-91866202D01*
X128762664Y-91866206D01*
X128640355Y-91957768D01*
X128639536Y-91956674D01*
X128586358Y-91985712D01*
X128516666Y-91980728D01*
X128480065Y-91957205D01*
X128479645Y-91957768D01*
X128357335Y-91866206D01*
X128357328Y-91866202D01*
X128222482Y-91815908D01*
X128222483Y-91815908D01*
X128162883Y-91809501D01*
X128162881Y-91809500D01*
X128162873Y-91809500D01*
X128162864Y-91809500D01*
X127057129Y-91809500D01*
X127057123Y-91809501D01*
X126997516Y-91815908D01*
X126862671Y-91866202D01*
X126862665Y-91866206D01*
X126800976Y-91912386D01*
X126735512Y-91936803D01*
X126667239Y-91921951D01*
X126652355Y-91912386D01*
X126590663Y-91866203D01*
X126590661Y-91866202D01*
X126455815Y-91815908D01*
X126455816Y-91815908D01*
X126396216Y-91809501D01*
X126396214Y-91809500D01*
X126396206Y-91809500D01*
X126396198Y-91809500D01*
X125768578Y-91809500D01*
X125701539Y-91789815D01*
X125655784Y-91737011D01*
X125645840Y-91667853D01*
X125674865Y-91604297D01*
X125695690Y-91585184D01*
X125812106Y-91500603D01*
X125940603Y-91372106D01*
X126047417Y-91225090D01*
X126129917Y-91063174D01*
X126143945Y-91020000D01*
X126186071Y-90890350D01*
X126186071Y-90890349D01*
X126186072Y-90890346D01*
X126214500Y-90710861D01*
X126214500Y-90529139D01*
X126186072Y-90349654D01*
X126186071Y-90349650D01*
X126186071Y-90349649D01*
X126129918Y-90176828D01*
X126129916Y-90176825D01*
X126124661Y-90166510D01*
X126047417Y-90014910D01*
X125955845Y-89888873D01*
X128270000Y-89888873D01*
X128276386Y-89959152D01*
X128326776Y-90120862D01*
X128326778Y-90120866D01*
X128414404Y-90265818D01*
X128414407Y-90265822D01*
X128534177Y-90385592D01*
X128534181Y-90385595D01*
X128679133Y-90473221D01*
X128679137Y-90473223D01*
X128840848Y-90523613D01*
X128840846Y-90523613D01*
X128911127Y-90530000D01*
X129310000Y-90530000D01*
X129810000Y-90530000D01*
X130208873Y-90530000D01*
X130279152Y-90523613D01*
X130440862Y-90473223D01*
X130440866Y-90473221D01*
X130585818Y-90385595D01*
X130585822Y-90385592D01*
X130705592Y-90265822D01*
X130705595Y-90265818D01*
X130793221Y-90120866D01*
X130793223Y-90120862D01*
X130843613Y-89959152D01*
X130850000Y-89888873D01*
X130850000Y-88750000D01*
X129810000Y-88750000D01*
X129810000Y-90530000D01*
X129310000Y-90530000D01*
X129310000Y-88750000D01*
X128270000Y-88750000D01*
X128270000Y-89888873D01*
X125955845Y-89888873D01*
X125940603Y-89867894D01*
X125812106Y-89739397D01*
X125665090Y-89632583D01*
X125503174Y-89550083D01*
X125503171Y-89550081D01*
X125330349Y-89493928D01*
X125291342Y-89487750D01*
X125228208Y-89457820D01*
X125191277Y-89398508D01*
X125192275Y-89328646D01*
X125223058Y-89277598D01*
X127049114Y-87451543D01*
X127049114Y-87451542D01*
X127389530Y-87111126D01*
X128270000Y-87111126D01*
X128270000Y-88250000D01*
X129310000Y-88250000D01*
X129810000Y-88250000D01*
X130850000Y-88250000D01*
X130850000Y-87111126D01*
X130843613Y-87040847D01*
X130793223Y-86879137D01*
X130793221Y-86879133D01*
X130705595Y-86734181D01*
X130705592Y-86734177D01*
X130585822Y-86614407D01*
X130585818Y-86614404D01*
X130440866Y-86526778D01*
X130440862Y-86526776D01*
X130279151Y-86476386D01*
X130279153Y-86476386D01*
X130208873Y-86470000D01*
X129810000Y-86470000D01*
X129810000Y-88250000D01*
X129310000Y-88250000D01*
X129310000Y-86470000D01*
X128911127Y-86470000D01*
X128840847Y-86476386D01*
X128679137Y-86526776D01*
X128679133Y-86526778D01*
X128534181Y-86614404D01*
X128534177Y-86614407D01*
X128414407Y-86734177D01*
X128414404Y-86734181D01*
X128326778Y-86879133D01*
X128326776Y-86879137D01*
X128276386Y-87040847D01*
X128270000Y-87111126D01*
X127389530Y-87111126D01*
X128548192Y-85952462D01*
X128609513Y-85918979D01*
X128672762Y-85921760D01*
G37*
%TD.AperFunction*%
%TA.AperFunction,Conductor*%
G36*
X112148993Y-91519185D02*
G01*
X112194748Y-91571989D01*
X112203571Y-91599309D01*
X112220568Y-91684760D01*
X112219129Y-91700841D01*
X112222716Y-91716587D01*
X112216079Y-91734926D01*
X112214341Y-91754352D01*
X112204270Y-91767557D01*
X112198940Y-91782287D01*
X112177316Y-91802901D01*
X112173263Y-91808217D01*
X112162988Y-91815909D01*
X112087454Y-91872454D01*
X112087453Y-91872454D01*
X112080356Y-91877768D01*
X112079536Y-91876673D01*
X112026358Y-91905712D01*
X111956666Y-91900728D01*
X111937289Y-91886222D01*
X111928369Y-91883737D01*
X111919645Y-91877768D01*
X111797335Y-91786206D01*
X111797328Y-91786202D01*
X111672600Y-91739682D01*
X111616666Y-91697811D01*
X111592249Y-91632347D01*
X111607101Y-91564074D01*
X111656506Y-91514668D01*
X111715933Y-91499500D01*
X112081954Y-91499500D01*
X112148993Y-91519185D01*
G37*
%TD.AperFunction*%
%TA.AperFunction,Conductor*%
G36*
X109678898Y-91137577D02*
G01*
X109680159Y-91138820D01*
X109895610Y-91354272D01*
X109895617Y-91354278D01*
X109964788Y-91400496D01*
X109964791Y-91400497D01*
X109964795Y-91400500D01*
X110002158Y-91425465D01*
X110120541Y-91474501D01*
X110120545Y-91474501D01*
X110120546Y-91474502D01*
X110246213Y-91499500D01*
X110246216Y-91499500D01*
X110384067Y-91499500D01*
X110451106Y-91519185D01*
X110496861Y-91571989D01*
X110506805Y-91641147D01*
X110477780Y-91704703D01*
X110440000Y-91734168D01*
X110433846Y-91737277D01*
X110302669Y-91786204D01*
X110231228Y-91839684D01*
X110221538Y-91844582D01*
X110197427Y-91849028D01*
X110174452Y-91857598D01*
X110163674Y-91855253D01*
X110152827Y-91857254D01*
X110130138Y-91847958D01*
X110106179Y-91842747D01*
X110091294Y-91833180D01*
X109975113Y-91746206D01*
X109975106Y-91746202D01*
X109840260Y-91695908D01*
X109840261Y-91695908D01*
X109780661Y-91689501D01*
X109780659Y-91689500D01*
X109780651Y-91689500D01*
X109780643Y-91689500D01*
X109248578Y-91689500D01*
X109181539Y-91669815D01*
X109135784Y-91617011D01*
X109125840Y-91547853D01*
X109154865Y-91484297D01*
X109175690Y-91465184D01*
X109292106Y-91380603D01*
X109420603Y-91252106D01*
X109492161Y-91153614D01*
X109547490Y-91110950D01*
X109617103Y-91104971D01*
X109678898Y-91137577D01*
G37*
%TD.AperFunction*%
%TA.AperFunction,Conductor*%
G36*
X115969856Y-75009740D02*
G01*
X116001659Y-75017857D01*
X116003224Y-75019538D01*
X116005426Y-75020185D01*
X116026900Y-75044967D01*
X116049270Y-75068994D01*
X116049677Y-75071254D01*
X116051181Y-75072989D01*
X116055849Y-75105457D01*
X116061677Y-75137753D01*
X116060931Y-75140804D01*
X116061125Y-75142147D01*
X116056380Y-75159441D01*
X116053910Y-75169559D01*
X116053425Y-75170801D01*
X116037949Y-75208165D01*
X116037010Y-75212884D01*
X116037008Y-75212890D01*
X115999500Y-75401456D01*
X115999500Y-78034217D01*
X115979815Y-78101256D01*
X115963181Y-78121898D01*
X115179413Y-78905666D01*
X114362221Y-79722858D01*
X114362218Y-79722861D01*
X114306739Y-79778340D01*
X114222859Y-79862219D01*
X114113371Y-80026079D01*
X114113364Y-80026092D01*
X114037950Y-80208160D01*
X114037947Y-80208170D01*
X113999500Y-80401456D01*
X113999500Y-81999701D01*
X113979815Y-82066740D01*
X113927011Y-82112495D01*
X113857853Y-82122439D01*
X113838610Y-82118086D01*
X113719249Y-82080892D01*
X113719238Y-82080889D01*
X113670003Y-82076415D01*
X113648921Y-82074500D01*
X113648918Y-82074500D01*
X112351071Y-82074500D01*
X112280764Y-82080888D01*
X112280757Y-82080890D01*
X112118934Y-82131316D01*
X112118926Y-82131319D01*
X111973871Y-82219007D01*
X111973867Y-82219010D01*
X111854010Y-82338867D01*
X111854007Y-82338871D01*
X111766319Y-82483926D01*
X111766317Y-82483931D01*
X111715891Y-82645753D01*
X111715889Y-82645761D01*
X111713031Y-82677221D01*
X111709846Y-82712278D01*
X111709500Y-82716081D01*
X111709500Y-85493928D01*
X111715888Y-85564235D01*
X111715890Y-85564242D01*
X111766316Y-85726065D01*
X111766319Y-85726073D01*
X111854007Y-85871128D01*
X111854010Y-85871132D01*
X111973867Y-85990989D01*
X111973871Y-85990992D01*
X112113642Y-86075486D01*
X112118928Y-86078681D01*
X112280758Y-86129110D01*
X112299438Y-86130807D01*
X112364420Y-86156477D01*
X112402777Y-86206845D01*
X112420294Y-86249136D01*
X112423535Y-86256959D01*
X112494723Y-86363501D01*
X112494726Y-86363505D01*
X112544540Y-86413319D01*
X112578025Y-86474642D01*
X112573041Y-86544334D01*
X112531169Y-86600267D01*
X112465705Y-86624684D01*
X112456859Y-86625000D01*
X112351127Y-86625000D01*
X112280847Y-86631386D01*
X112119137Y-86681776D01*
X112119133Y-86681778D01*
X111974181Y-86769404D01*
X111974177Y-86769407D01*
X111854407Y-86889177D01*
X111854404Y-86889181D01*
X111766778Y-87034133D01*
X111766776Y-87034137D01*
X111716386Y-87195847D01*
X111710000Y-87266126D01*
X111710000Y-88405000D01*
X112876000Y-88405000D01*
X112943039Y-88424685D01*
X112988794Y-88477489D01*
X113000000Y-88529000D01*
X113000000Y-88781000D01*
X112980315Y-88848039D01*
X112927511Y-88893794D01*
X112876000Y-88905000D01*
X111710000Y-88905000D01*
X111710000Y-90043875D01*
X111711763Y-90063280D01*
X111698225Y-90131826D01*
X111649778Y-90182171D01*
X111588272Y-90198500D01*
X110631093Y-90198500D01*
X110564054Y-90178815D01*
X110543412Y-90162181D01*
X109320959Y-88939727D01*
X109320958Y-88939726D01*
X109320954Y-88939723D01*
X109214412Y-88868535D01*
X109166504Y-88848691D01*
X109096029Y-88819499D01*
X109096023Y-88819497D01*
X108970356Y-88794500D01*
X108970354Y-88794500D01*
X106990931Y-88794500D01*
X106990929Y-88794500D01*
X106865261Y-88819497D01*
X106865255Y-88819499D01*
X106746870Y-88868535D01*
X106640331Y-88939722D01*
X106640324Y-88939728D01*
X106259581Y-89320471D01*
X106198258Y-89353956D01*
X106152502Y-89355263D01*
X106090861Y-89345500D01*
X105909139Y-89345500D01*
X105879408Y-89350209D01*
X105729652Y-89373928D01*
X105729649Y-89373928D01*
X105556828Y-89430081D01*
X105556825Y-89430083D01*
X105394909Y-89512583D01*
X105247895Y-89619396D01*
X105119397Y-89747893D01*
X105119395Y-89747895D01*
X105099493Y-89775287D01*
X105044161Y-89817951D01*
X105023372Y-89824015D01*
X105011288Y-89826418D01*
X104976080Y-89841001D01*
X104958479Y-89848292D01*
X104958477Y-89848293D01*
X104958476Y-89848292D01*
X104883804Y-89879223D01*
X104789631Y-89942148D01*
X104789628Y-89942149D01*
X104781426Y-89947631D01*
X104769070Y-89955887D01*
X104695260Y-90029696D01*
X104693532Y-90031300D01*
X104664266Y-90045884D01*
X104635556Y-90061561D01*
X104633152Y-90061389D01*
X104630997Y-90062463D01*
X104598487Y-90058909D01*
X104565864Y-90056575D01*
X104563936Y-90055131D01*
X104561542Y-90054870D01*
X104536113Y-90034303D01*
X104509931Y-90014703D01*
X104507954Y-90011528D01*
X104507217Y-90010932D01*
X104506802Y-90009677D01*
X104498714Y-89996688D01*
X104446993Y-89895179D01*
X104446985Y-89895165D01*
X104434950Y-89878603D01*
X104434949Y-89878602D01*
X103860000Y-90453551D01*
X103860000Y-90447339D01*
X103832741Y-90345606D01*
X103780080Y-90254394D01*
X103705606Y-90179920D01*
X103614394Y-90127259D01*
X103512661Y-90100000D01*
X103506444Y-90100000D01*
X104081396Y-89525048D01*
X104064834Y-89513014D01*
X104064830Y-89513012D01*
X103902984Y-89430548D01*
X103730223Y-89374414D01*
X103728014Y-89373884D01*
X103727262Y-89373452D01*
X103725596Y-89372911D01*
X103725709Y-89372560D01*
X103667424Y-89339090D01*
X103635264Y-89277062D01*
X103641744Y-89207493D01*
X103669284Y-89165634D01*
X108816704Y-84018215D01*
X108866066Y-83987967D01*
X108983168Y-83949919D01*
X108983168Y-83949918D01*
X108983174Y-83949917D01*
X109145090Y-83867417D01*
X109292106Y-83760603D01*
X109420603Y-83632106D01*
X109527417Y-83485090D01*
X109609917Y-83323174D01*
X109644453Y-83216884D01*
X109666071Y-83150350D01*
X109666071Y-83150349D01*
X109666072Y-83150346D01*
X109694500Y-82970861D01*
X109694500Y-82789139D01*
X109666072Y-82609654D01*
X109666071Y-82609650D01*
X109666071Y-82609649D01*
X109609918Y-82436828D01*
X109609916Y-82436825D01*
X109597037Y-82411547D01*
X109527417Y-82274910D01*
X109420603Y-82127894D01*
X109292106Y-81999397D01*
X109145090Y-81892583D01*
X108983174Y-81810083D01*
X108983171Y-81810081D01*
X108810348Y-81753928D01*
X108687438Y-81734461D01*
X108630861Y-81725500D01*
X108449139Y-81725500D01*
X108392562Y-81734461D01*
X108269652Y-81753928D01*
X108269649Y-81753928D01*
X108096828Y-81810081D01*
X108096825Y-81810083D01*
X107934909Y-81892583D01*
X107870333Y-81939501D01*
X107787894Y-81999397D01*
X107787892Y-81999399D01*
X107787891Y-81999399D01*
X107659399Y-82127891D01*
X107659399Y-82127892D01*
X107659397Y-82127894D01*
X107637887Y-82157500D01*
X107552583Y-82274909D01*
X107470084Y-82436821D01*
X107432032Y-82553933D01*
X107401782Y-82603295D01*
X107334784Y-82670293D01*
X107273461Y-82703778D01*
X107203769Y-82698794D01*
X107147836Y-82656922D01*
X107127782Y-82614220D01*
X107127578Y-82614287D01*
X107127048Y-82612658D01*
X107126526Y-82611545D01*
X107126071Y-82609649D01*
X107069918Y-82436828D01*
X107069916Y-82436825D01*
X107057037Y-82411547D01*
X106987417Y-82274910D01*
X106880603Y-82127894D01*
X106752106Y-81999397D01*
X106605090Y-81892583D01*
X106443174Y-81810083D01*
X106443171Y-81810081D01*
X106270348Y-81753928D01*
X106147438Y-81734461D01*
X106090861Y-81725500D01*
X105909139Y-81725500D01*
X105852562Y-81734461D01*
X105729652Y-81753928D01*
X105729649Y-81753928D01*
X105556828Y-81810081D01*
X105556825Y-81810083D01*
X105394909Y-81892583D01*
X105330333Y-81939501D01*
X105247894Y-81999397D01*
X105247892Y-81999399D01*
X105247891Y-81999399D01*
X105119399Y-82127891D01*
X105119399Y-82127892D01*
X105119397Y-82127894D01*
X105097887Y-82157500D01*
X105012583Y-82274909D01*
X104930084Y-82436821D01*
X104892032Y-82553934D01*
X104861782Y-82603296D01*
X104794784Y-82670294D01*
X104733461Y-82703779D01*
X104663769Y-82698795D01*
X104607836Y-82656923D01*
X104587782Y-82614220D01*
X104587578Y-82614287D01*
X104587047Y-82612655D01*
X104586525Y-82611542D01*
X104586070Y-82609646D01*
X104529918Y-82436828D01*
X104529916Y-82436825D01*
X104517037Y-82411547D01*
X104447417Y-82274910D01*
X104340603Y-82127894D01*
X104212106Y-81999397D01*
X104065090Y-81892583D01*
X103903174Y-81810083D01*
X103903171Y-81810081D01*
X103730348Y-81753928D01*
X103607438Y-81734461D01*
X103550861Y-81725500D01*
X103369139Y-81725500D01*
X103312562Y-81734461D01*
X103189652Y-81753928D01*
X103189649Y-81753928D01*
X103016828Y-81810081D01*
X103016825Y-81810083D01*
X102854909Y-81892583D01*
X102790333Y-81939501D01*
X102707894Y-81999397D01*
X102707892Y-81999399D01*
X102707891Y-81999399D01*
X102579399Y-82127891D01*
X102579399Y-82127892D01*
X102579397Y-82127894D01*
X102557887Y-82157500D01*
X102472583Y-82274909D01*
X102390083Y-82436825D01*
X102390081Y-82436828D01*
X102333928Y-82609649D01*
X102333928Y-82609652D01*
X102324323Y-82670294D01*
X102305500Y-82789139D01*
X102305500Y-82970861D01*
X102310115Y-83000000D01*
X102333928Y-83150347D01*
X102333928Y-83150350D01*
X102390081Y-83323171D01*
X102390083Y-83323174D01*
X102472583Y-83485090D01*
X102579397Y-83632106D01*
X102707894Y-83760603D01*
X102854910Y-83867417D01*
X103016826Y-83949917D01*
X103016828Y-83949918D01*
X103189644Y-84006069D01*
X103189646Y-84006069D01*
X103189654Y-84006072D01*
X103189661Y-84006073D01*
X103191539Y-84006524D01*
X103192186Y-84006895D01*
X103194287Y-84007578D01*
X103194143Y-84008018D01*
X103252137Y-84041303D01*
X103284312Y-84103323D01*
X103277850Y-84172893D01*
X103250296Y-84214784D01*
X103121897Y-84343182D01*
X103060577Y-84376666D01*
X103034218Y-84379500D01*
X101981602Y-84379500D01*
X101914563Y-84359815D01*
X101868808Y-84307011D01*
X101865420Y-84298833D01*
X101853797Y-84267671D01*
X101852186Y-84265519D01*
X101851284Y-84264313D01*
X101849818Y-84260385D01*
X101849547Y-84259888D01*
X101849618Y-84259848D01*
X101826864Y-84198854D01*
X101841712Y-84130580D01*
X101851279Y-84115692D01*
X101853796Y-84112331D01*
X101904091Y-83977483D01*
X101910500Y-83917873D01*
X101910499Y-82082128D01*
X101904091Y-82022517D01*
X101903058Y-82019748D01*
X101853797Y-81887671D01*
X101853793Y-81887664D01*
X101767547Y-81772455D01*
X101767544Y-81772452D01*
X101652335Y-81686206D01*
X101652328Y-81686202D01*
X101581167Y-81659661D01*
X101525233Y-81617790D01*
X101500816Y-81552325D01*
X101500500Y-81543479D01*
X101500500Y-81145782D01*
X101520185Y-81078743D01*
X101536819Y-81058101D01*
X102636976Y-79957944D01*
X103738127Y-78856792D01*
X103799448Y-78823309D01*
X103806408Y-78822002D01*
X103990389Y-78792862D01*
X103993574Y-78791827D01*
X104188816Y-78728389D01*
X104374714Y-78633670D01*
X104543505Y-78511035D01*
X104691035Y-78363505D01*
X104813670Y-78194714D01*
X104908389Y-78008816D01*
X104972862Y-77810389D01*
X104982427Y-77750000D01*
X105005500Y-77604324D01*
X105005500Y-77395675D01*
X107434500Y-77395675D01*
X107434500Y-77604324D01*
X107467137Y-77810389D01*
X107531612Y-78008820D01*
X107617133Y-78176664D01*
X107626330Y-78194714D01*
X107748965Y-78363505D01*
X107896495Y-78511035D01*
X108065286Y-78633670D01*
X108149392Y-78676524D01*
X108251179Y-78728387D01*
X108251181Y-78728387D01*
X108251184Y-78728389D01*
X108327486Y-78753181D01*
X108449610Y-78792862D01*
X108655676Y-78825500D01*
X108655681Y-78825500D01*
X108864324Y-78825500D01*
X109070389Y-78792862D01*
X109073574Y-78791827D01*
X109268816Y-78728389D01*
X109454714Y-78633670D01*
X109623505Y-78511035D01*
X109771035Y-78363505D01*
X109893670Y-78194714D01*
X109988389Y-78008816D01*
X110052862Y-77810389D01*
X110062427Y-77750000D01*
X110085500Y-77604324D01*
X110085500Y-77395675D01*
X112514500Y-77395675D01*
X112514500Y-77604324D01*
X112547137Y-77810389D01*
X112611612Y-78008820D01*
X112697133Y-78176664D01*
X112706330Y-78194714D01*
X112828965Y-78363505D01*
X112976495Y-78511035D01*
X113145286Y-78633670D01*
X113229392Y-78676524D01*
X113331179Y-78728387D01*
X113331181Y-78728387D01*
X113331184Y-78728389D01*
X113407486Y-78753181D01*
X113529610Y-78792862D01*
X113735676Y-78825500D01*
X113735681Y-78825500D01*
X113944324Y-78825500D01*
X114150389Y-78792862D01*
X114153574Y-78791827D01*
X114348816Y-78728389D01*
X114534714Y-78633670D01*
X114703505Y-78511035D01*
X114851035Y-78363505D01*
X114973670Y-78194714D01*
X115068389Y-78008816D01*
X115132862Y-77810389D01*
X115142427Y-77750000D01*
X115165500Y-77604324D01*
X115165500Y-77395675D01*
X115132862Y-77189610D01*
X115090713Y-77059890D01*
X115068389Y-76991184D01*
X115068387Y-76991181D01*
X115068387Y-76991179D01*
X115018421Y-76893116D01*
X114973670Y-76805286D01*
X114851035Y-76636495D01*
X114703505Y-76488965D01*
X114534714Y-76366330D01*
X114348820Y-76271612D01*
X114150389Y-76207137D01*
X113944324Y-76174500D01*
X113944319Y-76174500D01*
X113735681Y-76174500D01*
X113735676Y-76174500D01*
X113529610Y-76207137D01*
X113331179Y-76271612D01*
X113145285Y-76366330D01*
X112976493Y-76488966D01*
X112828966Y-76636493D01*
X112706330Y-76805285D01*
X112611612Y-76991179D01*
X112547137Y-77189610D01*
X112514500Y-77395675D01*
X110085500Y-77395675D01*
X110052862Y-77189610D01*
X110010713Y-77059890D01*
X109988389Y-76991184D01*
X109988387Y-76991181D01*
X109988387Y-76991179D01*
X109938421Y-76893116D01*
X109893670Y-76805286D01*
X109771035Y-76636495D01*
X109623505Y-76488965D01*
X109454714Y-76366330D01*
X109268820Y-76271612D01*
X109070389Y-76207137D01*
X108864324Y-76174500D01*
X108864319Y-76174500D01*
X108655681Y-76174500D01*
X108655676Y-76174500D01*
X108449610Y-76207137D01*
X108251179Y-76271612D01*
X108065285Y-76366330D01*
X107896493Y-76488966D01*
X107748966Y-76636493D01*
X107626330Y-76805285D01*
X107531612Y-76991179D01*
X107467137Y-77189610D01*
X107434500Y-77395675D01*
X105005500Y-77395675D01*
X104972862Y-77189610D01*
X104930713Y-77059890D01*
X104908389Y-76991184D01*
X104908387Y-76991181D01*
X104908387Y-76991179D01*
X104858421Y-76893116D01*
X104813670Y-76805286D01*
X104691035Y-76636495D01*
X104543505Y-76488965D01*
X104374714Y-76366330D01*
X104188820Y-76271612D01*
X103990389Y-76207137D01*
X103990383Y-76207136D01*
X103986778Y-76206565D01*
X103923646Y-76176630D01*
X103886721Y-76117315D01*
X103887725Y-76047452D01*
X103918505Y-75996415D01*
X104878102Y-75036819D01*
X104939425Y-75003334D01*
X104965783Y-75000500D01*
X115938387Y-75000500D01*
X115969856Y-75009740D01*
G37*
%TD.AperFunction*%
%TA.AperFunction,Conductor*%
G36*
X123826630Y-83035817D02*
G01*
X123884863Y-83074427D01*
X123912473Y-83134885D01*
X123933928Y-83270349D01*
X123990081Y-83443171D01*
X123990082Y-83443174D01*
X124045985Y-83552888D01*
X124059500Y-83609183D01*
X124059500Y-84131470D01*
X124055334Y-84163342D01*
X124053215Y-84171307D01*
X124037949Y-84208164D01*
X124022511Y-84285775D01*
X124021742Y-84289638D01*
X124021740Y-84289648D01*
X123999500Y-84401456D01*
X123999500Y-86034218D01*
X123979815Y-86101257D01*
X123963181Y-86121899D01*
X122121899Y-87963181D01*
X122060576Y-87996666D01*
X122034218Y-87999500D01*
X119585198Y-87999500D01*
X119558079Y-88004894D01*
X119530960Y-88010289D01*
X119530959Y-88010289D01*
X119391911Y-88037946D01*
X119391902Y-88037949D01*
X119385078Y-88040775D01*
X119385079Y-88040776D01*
X119209828Y-88113366D01*
X119209814Y-88113374D01*
X119103389Y-88184485D01*
X119036712Y-88205363D01*
X118969332Y-88186878D01*
X118922642Y-88134899D01*
X118910499Y-88081383D01*
X118910499Y-87392129D01*
X118910498Y-87392123D01*
X118904091Y-87332516D01*
X118853797Y-87197671D01*
X118853796Y-87197670D01*
X118853796Y-87197669D01*
X118767546Y-87082454D01*
X118762231Y-87075354D01*
X118764943Y-87073323D01*
X118739300Y-87026416D01*
X118744251Y-86956722D01*
X118761288Y-86925555D01*
X118766985Y-86917965D01*
X118767546Y-86917546D01*
X118853796Y-86802331D01*
X118853797Y-86802325D01*
X118854752Y-86801055D01*
X118882715Y-86780180D01*
X118910585Y-86759318D01*
X118910687Y-86759299D01*
X118910742Y-86759259D01*
X118911020Y-86759239D01*
X118953918Y-86751500D01*
X121619430Y-86751500D01*
X121646036Y-86746207D01*
X121716076Y-86732275D01*
X121812724Y-86713051D01*
X121877538Y-86686204D01*
X121994802Y-86637632D01*
X122158670Y-86528139D01*
X122298027Y-86388782D01*
X122298027Y-86388780D01*
X122308235Y-86378573D01*
X122308236Y-86378570D01*
X123297140Y-85389669D01*
X123331049Y-85338920D01*
X123406632Y-85225802D01*
X123465802Y-85082951D01*
X123482051Y-85043724D01*
X123507218Y-84917201D01*
X123520500Y-84850430D01*
X123520500Y-83609183D01*
X123534015Y-83552888D01*
X123589917Y-83443174D01*
X123589918Y-83443171D01*
X123646071Y-83270349D01*
X123646071Y-83270348D01*
X123646072Y-83270346D01*
X123667527Y-83134884D01*
X123697456Y-83071750D01*
X123756768Y-83034819D01*
X123826630Y-83035817D01*
G37*
%TD.AperFunction*%
%TA.AperFunction,Conductor*%
G36*
X135641578Y-86486185D02*
G01*
X135662220Y-86502819D01*
X136703032Y-87543631D01*
X136736517Y-87604954D01*
X136731533Y-87674646D01*
X136689661Y-87730579D01*
X136624197Y-87754996D01*
X136591160Y-87752929D01*
X136573921Y-87749500D01*
X136573918Y-87749500D01*
X136154082Y-87749500D01*
X136154081Y-87749500D01*
X136141622Y-87751978D01*
X136129162Y-87754457D01*
X136129161Y-87754457D01*
X136009095Y-87778339D01*
X136009092Y-87778340D01*
X136009088Y-87778341D01*
X135929080Y-87811481D01*
X135929078Y-87811481D01*
X135872506Y-87834915D01*
X135872498Y-87834919D01*
X135825174Y-87866541D01*
X135825173Y-87866541D01*
X135749585Y-87917046D01*
X135749584Y-87917047D01*
X135703451Y-87963181D01*
X135589449Y-88077182D01*
X135528128Y-88110666D01*
X135501770Y-88113500D01*
X135056617Y-88113500D01*
X134989578Y-88093815D01*
X134943823Y-88041011D01*
X134933879Y-87971853D01*
X134953514Y-87920610D01*
X134978711Y-87882899D01*
X135004233Y-87844703D01*
X135084553Y-87650795D01*
X135105870Y-87543631D01*
X135125500Y-87444945D01*
X135125500Y-87235054D01*
X135084554Y-87029210D01*
X135084553Y-87029209D01*
X135084553Y-87029205D01*
X135004233Y-86835297D01*
X134924800Y-86716416D01*
X134886697Y-86659390D01*
X134865820Y-86592713D01*
X134884305Y-86525332D01*
X134936284Y-86478643D01*
X134989800Y-86466500D01*
X135574539Y-86466500D01*
X135641578Y-86486185D01*
G37*
%TD.AperFunction*%
%TA.AperFunction,Conductor*%
G36*
X179942539Y-73520185D02*
G01*
X179988294Y-73572989D01*
X179999500Y-73624500D01*
X179999500Y-75929368D01*
X179979815Y-75996407D01*
X179927011Y-76042162D01*
X179857853Y-76052106D01*
X179794297Y-76023081D01*
X179765016Y-75985664D01*
X179673247Y-75805561D01*
X179673236Y-75805543D01*
X179637372Y-75756180D01*
X179637371Y-75756179D01*
X179063787Y-76329764D01*
X179052518Y-76287708D01*
X178980110Y-76162292D01*
X178877708Y-76059890D01*
X178752292Y-75987482D01*
X178710233Y-75976212D01*
X179283819Y-75402627D01*
X179234451Y-75366759D01*
X179048627Y-75272075D01*
X178850272Y-75207626D01*
X178644279Y-75175000D01*
X178435721Y-75175000D01*
X178229727Y-75207626D01*
X178031372Y-75272075D01*
X177845552Y-75366757D01*
X177796180Y-75402627D01*
X178369766Y-75976212D01*
X178327708Y-75987482D01*
X178202292Y-76059890D01*
X178099890Y-76162292D01*
X178027482Y-76287708D01*
X178016212Y-76329765D01*
X177442627Y-75756180D01*
X177406755Y-75805555D01*
X177380765Y-75856563D01*
X177332790Y-75907358D01*
X177264969Y-75924153D01*
X177198834Y-75901615D01*
X177159796Y-75856561D01*
X177133671Y-75805287D01*
X177023188Y-75653222D01*
X177011035Y-75636495D01*
X176863505Y-75488965D01*
X176694714Y-75366330D01*
X176508820Y-75271612D01*
X176310389Y-75207137D01*
X176104324Y-75174500D01*
X176104319Y-75174500D01*
X175895681Y-75174500D01*
X175895676Y-75174500D01*
X175689610Y-75207137D01*
X175491179Y-75271612D01*
X175305285Y-75366330D01*
X175136493Y-75488966D01*
X174988966Y-75636493D01*
X174866330Y-75805285D01*
X174840485Y-75856010D01*
X174792510Y-75906806D01*
X174724690Y-75923601D01*
X174658555Y-75901064D01*
X174619515Y-75856010D01*
X174593807Y-75805555D01*
X174593670Y-75805286D01*
X174471035Y-75636495D01*
X174323505Y-75488965D01*
X174154714Y-75366330D01*
X173968820Y-75271612D01*
X173770389Y-75207137D01*
X173564324Y-75174500D01*
X173564319Y-75174500D01*
X173355681Y-75174500D01*
X173355676Y-75174500D01*
X173149610Y-75207137D01*
X172951179Y-75271612D01*
X172765285Y-75366330D01*
X172596493Y-75488966D01*
X172448966Y-75636493D01*
X172326330Y-75805285D01*
X172300485Y-75856010D01*
X172252510Y-75906806D01*
X172184690Y-75923601D01*
X172118555Y-75901064D01*
X172079515Y-75856010D01*
X172053807Y-75805555D01*
X172053670Y-75805286D01*
X171931035Y-75636495D01*
X171783505Y-75488965D01*
X171614714Y-75366330D01*
X171428820Y-75271612D01*
X171230389Y-75207137D01*
X171024324Y-75174500D01*
X171024319Y-75174500D01*
X170815681Y-75174500D01*
X170815676Y-75174500D01*
X170609610Y-75207137D01*
X170411179Y-75271612D01*
X170225285Y-75366330D01*
X170056493Y-75488966D01*
X169908966Y-75636493D01*
X169786330Y-75805285D01*
X169760485Y-75856010D01*
X169712510Y-75906806D01*
X169644690Y-75923601D01*
X169578555Y-75901064D01*
X169539515Y-75856010D01*
X169513807Y-75805555D01*
X169513670Y-75805286D01*
X169391035Y-75636495D01*
X169243505Y-75488965D01*
X169074714Y-75366330D01*
X168888820Y-75271612D01*
X168690389Y-75207137D01*
X168484324Y-75174500D01*
X168484319Y-75174500D01*
X168275681Y-75174500D01*
X168275676Y-75174500D01*
X168069610Y-75207137D01*
X167871179Y-75271612D01*
X167685285Y-75366330D01*
X167516493Y-75488966D01*
X167368966Y-75636493D01*
X167246330Y-75805285D01*
X167220485Y-75856010D01*
X167172510Y-75906806D01*
X167104690Y-75923601D01*
X167038555Y-75901064D01*
X166999515Y-75856010D01*
X166973807Y-75805555D01*
X166973670Y-75805286D01*
X166851035Y-75636495D01*
X166703505Y-75488965D01*
X166534714Y-75366330D01*
X166348820Y-75271612D01*
X166150389Y-75207137D01*
X165944324Y-75174500D01*
X165944319Y-75174500D01*
X165735681Y-75174500D01*
X165735676Y-75174500D01*
X165529610Y-75207137D01*
X165331179Y-75271612D01*
X165145285Y-75366330D01*
X164976493Y-75488966D01*
X164828966Y-75636493D01*
X164706330Y-75805285D01*
X164611612Y-75991179D01*
X164547137Y-76189610D01*
X164514500Y-76395675D01*
X164514500Y-76604324D01*
X164547137Y-76810389D01*
X164611612Y-77008820D01*
X164684566Y-77151999D01*
X164706330Y-77194714D01*
X164828965Y-77363505D01*
X164976495Y-77511035D01*
X165088386Y-77592329D01*
X165131051Y-77647660D01*
X165139500Y-77692647D01*
X165139500Y-87376500D01*
X165119815Y-87443539D01*
X165067011Y-87489294D01*
X165015500Y-87500500D01*
X163184693Y-87500500D01*
X163117654Y-87480815D01*
X163097012Y-87464181D01*
X158070720Y-82437888D01*
X158070719Y-82437887D01*
X157955981Y-82361222D01*
X157828506Y-82308421D01*
X157828496Y-82308418D01*
X157693170Y-82281500D01*
X157693168Y-82281500D01*
X157693167Y-82281500D01*
X157509499Y-82281500D01*
X157442460Y-82261815D01*
X157396705Y-82209011D01*
X157385499Y-82157500D01*
X157385499Y-82156518D01*
X157405184Y-82089479D01*
X157421813Y-82068842D01*
X161652001Y-77838653D01*
X161713322Y-77805170D01*
X161759073Y-77803863D01*
X161895681Y-77825500D01*
X161895683Y-77825500D01*
X162104324Y-77825500D01*
X162310389Y-77792862D01*
X162311894Y-77792373D01*
X162508816Y-77728389D01*
X162694714Y-77633670D01*
X162863505Y-77511035D01*
X163011035Y-77363505D01*
X163133670Y-77194714D01*
X163228389Y-77008816D01*
X163292862Y-76810389D01*
X163296432Y-76787851D01*
X163325500Y-76604324D01*
X163325500Y-76395675D01*
X163292862Y-76189610D01*
X163248184Y-76052106D01*
X163228389Y-75991184D01*
X163228387Y-75991181D01*
X163228387Y-75991179D01*
X163133807Y-75805555D01*
X163133670Y-75805286D01*
X163011035Y-75636495D01*
X162863505Y-75488965D01*
X162694714Y-75366330D01*
X162508820Y-75271612D01*
X162310389Y-75207137D01*
X162104324Y-75174500D01*
X162104319Y-75174500D01*
X161895681Y-75174500D01*
X161895676Y-75174500D01*
X161689610Y-75207137D01*
X161491179Y-75271612D01*
X161305285Y-75366330D01*
X161136493Y-75488966D01*
X160988966Y-75636493D01*
X160866330Y-75805285D01*
X160840485Y-75856010D01*
X160792510Y-75906806D01*
X160724690Y-75923601D01*
X160658555Y-75901064D01*
X160619515Y-75856010D01*
X160593807Y-75805555D01*
X160593670Y-75805286D01*
X160471035Y-75636495D01*
X160323505Y-75488965D01*
X160154714Y-75366330D01*
X159968820Y-75271612D01*
X159770389Y-75207137D01*
X159564324Y-75174500D01*
X159564319Y-75174500D01*
X159355681Y-75174500D01*
X159355676Y-75174500D01*
X159149610Y-75207137D01*
X158951179Y-75271612D01*
X158765285Y-75366330D01*
X158596493Y-75488966D01*
X158448966Y-75636493D01*
X158326330Y-75805285D01*
X158231612Y-75991179D01*
X158167137Y-76189610D01*
X158134500Y-76395675D01*
X158134500Y-76604324D01*
X158167137Y-76810389D01*
X158231612Y-77008820D01*
X158304566Y-77151999D01*
X158326330Y-77194714D01*
X158448965Y-77363505D01*
X158596495Y-77511035D01*
X158708386Y-77592329D01*
X158751051Y-77647660D01*
X158759500Y-77692647D01*
X158759500Y-77698480D01*
X158739815Y-77765519D01*
X158723181Y-77786161D01*
X157597180Y-78912162D01*
X157535857Y-78945647D01*
X157466165Y-78940663D01*
X157410232Y-78898791D01*
X157385815Y-78833327D01*
X157385499Y-78824481D01*
X157385499Y-78371129D01*
X157385498Y-78371123D01*
X157385497Y-78371116D01*
X157379091Y-78311517D01*
X157335526Y-78194714D01*
X157328797Y-78176671D01*
X157328793Y-78176664D01*
X157242547Y-78061455D01*
X157242544Y-78061452D01*
X157127335Y-77975206D01*
X157127328Y-77975202D01*
X156992482Y-77924908D01*
X156992483Y-77924908D01*
X156932883Y-77918501D01*
X156932881Y-77918500D01*
X156932873Y-77918500D01*
X156932864Y-77918500D01*
X155067129Y-77918500D01*
X155067123Y-77918501D01*
X155007516Y-77924908D01*
X154872671Y-77975202D01*
X154872664Y-77975206D01*
X154757455Y-78061452D01*
X154757452Y-78061455D01*
X154671206Y-78176664D01*
X154671202Y-78176671D01*
X154620908Y-78311517D01*
X154615319Y-78363505D01*
X154614500Y-78371127D01*
X154614500Y-78783431D01*
X154614501Y-79074500D01*
X154594817Y-79141539D01*
X154542013Y-79187294D01*
X154490501Y-79198500D01*
X151847063Y-79198500D01*
X151765418Y-79214740D01*
X151724595Y-79222861D01*
X151720285Y-79223718D01*
X151711731Y-79225419D01*
X151711725Y-79225421D01*
X151584250Y-79278222D01*
X151469512Y-79354887D01*
X151469511Y-79354888D01*
X150561220Y-80263181D01*
X150499897Y-80296666D01*
X150473539Y-80299500D01*
X144841519Y-80299500D01*
X144774480Y-80279815D01*
X144753838Y-80263181D01*
X143946546Y-79455888D01*
X143946545Y-79455887D01*
X143831807Y-79379222D01*
X143704332Y-79326421D01*
X143704322Y-79326418D01*
X143568996Y-79299500D01*
X143568994Y-79299500D01*
X143568993Y-79299500D01*
X141841519Y-79299500D01*
X141774480Y-79279815D01*
X141753838Y-79263181D01*
X141527338Y-79036681D01*
X141493853Y-78975358D01*
X141498837Y-78905666D01*
X141540709Y-78849733D01*
X141606173Y-78825316D01*
X141615019Y-78825000D01*
X142136578Y-78825000D01*
X142136594Y-78824999D01*
X142196122Y-78818598D01*
X142196129Y-78818596D01*
X142330836Y-78768354D01*
X142330843Y-78768350D01*
X142445937Y-78682190D01*
X142445940Y-78682187D01*
X142532100Y-78567093D01*
X142532104Y-78567086D01*
X142582346Y-78432379D01*
X142582348Y-78432372D01*
X142588749Y-78372844D01*
X142588750Y-78372827D01*
X142588750Y-77750000D01*
X141754498Y-77750000D01*
X141776268Y-77712292D01*
X141813750Y-77572409D01*
X141813750Y-77427591D01*
X141776268Y-77287708D01*
X141754498Y-77250000D01*
X142588750Y-77250000D01*
X142588750Y-76627172D01*
X142588749Y-76627155D01*
X142582348Y-76567627D01*
X142582346Y-76567620D01*
X142532104Y-76432913D01*
X142532100Y-76432906D01*
X142445940Y-76317812D01*
X142445937Y-76317809D01*
X142330843Y-76231649D01*
X142330836Y-76231645D01*
X142196129Y-76181403D01*
X142196122Y-76181401D01*
X142136594Y-76175000D01*
X141513750Y-76175000D01*
X141513750Y-77009252D01*
X141476042Y-76987482D01*
X141336159Y-76950000D01*
X141191341Y-76950000D01*
X141051458Y-76987482D01*
X141013750Y-77009252D01*
X141013750Y-76175000D01*
X140390905Y-76175000D01*
X140331377Y-76181401D01*
X140331370Y-76181403D01*
X140196663Y-76231645D01*
X140196656Y-76231649D01*
X140081562Y-76317809D01*
X140081559Y-76317812D01*
X139995399Y-76432906D01*
X139995395Y-76432913D01*
X139945153Y-76567620D01*
X139945151Y-76567627D01*
X139938750Y-76627155D01*
X139938750Y-77148731D01*
X139919065Y-77215770D01*
X139866261Y-77261525D01*
X139797103Y-77271469D01*
X139733547Y-77242444D01*
X139727069Y-77236412D01*
X139726569Y-77235912D01*
X139693084Y-77174589D01*
X139690250Y-77148231D01*
X139690250Y-76923178D01*
X139663331Y-76787851D01*
X139663330Y-76787850D01*
X139663330Y-76787846D01*
X139663328Y-76787841D01*
X139610528Y-76660369D01*
X139610521Y-76660356D01*
X139533864Y-76545632D01*
X139488231Y-76499999D01*
X139436292Y-76448060D01*
X139259843Y-76271611D01*
X138718122Y-75729888D01*
X138718121Y-75729887D01*
X138603383Y-75653222D01*
X138475908Y-75600421D01*
X138475898Y-75600418D01*
X138340572Y-75573500D01*
X138340570Y-75573500D01*
X138340569Y-75573500D01*
X135558744Y-75573500D01*
X135420756Y-75573500D01*
X135420754Y-75573500D01*
X135285427Y-75600418D01*
X135285417Y-75600421D01*
X135157942Y-75653222D01*
X135043204Y-75729887D01*
X134611748Y-76161343D01*
X134550425Y-76194828D01*
X134504669Y-76196135D01*
X134368074Y-76174500D01*
X134368069Y-76174500D01*
X134159431Y-76174500D01*
X134159426Y-76174500D01*
X133953360Y-76207137D01*
X133754929Y-76271612D01*
X133569035Y-76366330D01*
X133400243Y-76488966D01*
X133252716Y-76636493D01*
X133130080Y-76805285D01*
X133035362Y-76991179D01*
X132970887Y-77189610D01*
X132938250Y-77395675D01*
X132938250Y-77604324D01*
X132970887Y-77810389D01*
X133035362Y-78008820D01*
X133120883Y-78176664D01*
X133130080Y-78194714D01*
X133252715Y-78363505D01*
X133400245Y-78511035D01*
X133512136Y-78592329D01*
X133554801Y-78647660D01*
X133563250Y-78692647D01*
X133563250Y-79194756D01*
X133563250Y-79332744D01*
X133563250Y-79332746D01*
X133563249Y-79332746D01*
X133590168Y-79468072D01*
X133590171Y-79468082D01*
X133642972Y-79595557D01*
X133719637Y-79710295D01*
X136553454Y-82544112D01*
X136553457Y-82544114D01*
X136668189Y-82620775D01*
X136687923Y-82628949D01*
X136742325Y-82672789D01*
X136764391Y-82739083D01*
X136747112Y-82806782D01*
X136728151Y-82831191D01*
X136455888Y-83103453D01*
X136455887Y-83103454D01*
X136379222Y-83218192D01*
X136326421Y-83345667D01*
X136326418Y-83345679D01*
X136306863Y-83443991D01*
X136304773Y-83454500D01*
X136302775Y-83464545D01*
X136299500Y-83481007D01*
X136299500Y-84009480D01*
X136279815Y-84076519D01*
X136227011Y-84122274D01*
X136157853Y-84132218D01*
X136094297Y-84103193D01*
X136087819Y-84097161D01*
X131946545Y-79955887D01*
X131831807Y-79879222D01*
X131704332Y-79826421D01*
X131704322Y-79826418D01*
X131568996Y-79799500D01*
X131568994Y-79799500D01*
X131568993Y-79799500D01*
X126794658Y-79799500D01*
X126747206Y-79790061D01*
X126718917Y-79778343D01*
X126718907Y-79778340D01*
X126573920Y-79749500D01*
X126573918Y-79749500D01*
X126426082Y-79749500D01*
X126426080Y-79749500D01*
X126281092Y-79778340D01*
X126281082Y-79778343D01*
X126144511Y-79834912D01*
X126144498Y-79834919D01*
X126021584Y-79917048D01*
X126021580Y-79917051D01*
X125917051Y-80021580D01*
X125917048Y-80021584D01*
X125834919Y-80144498D01*
X125834912Y-80144511D01*
X125778343Y-80281082D01*
X125778340Y-80281092D01*
X125749500Y-80426079D01*
X125749500Y-80426082D01*
X125749500Y-80573918D01*
X125749500Y-80573920D01*
X125749499Y-80573920D01*
X125778340Y-80718907D01*
X125778343Y-80718917D01*
X125834912Y-80855488D01*
X125834919Y-80855501D01*
X125917048Y-80978415D01*
X125917051Y-80978419D01*
X126021580Y-81082948D01*
X126021584Y-81082951D01*
X126144498Y-81165080D01*
X126144511Y-81165087D01*
X126274269Y-81218834D01*
X126281087Y-81221658D01*
X126281091Y-81221658D01*
X126281092Y-81221659D01*
X126426079Y-81250500D01*
X126426082Y-81250500D01*
X126573920Y-81250500D01*
X126671462Y-81231096D01*
X126718913Y-81221658D01*
X126733372Y-81215668D01*
X126747206Y-81209939D01*
X126794658Y-81200500D01*
X131158481Y-81200500D01*
X131225520Y-81220185D01*
X131246162Y-81236819D01*
X133643143Y-83633800D01*
X133676628Y-83695123D01*
X133671644Y-83764815D01*
X133629772Y-83820748D01*
X133602916Y-83836041D01*
X133555301Y-83855764D01*
X133380781Y-83972373D01*
X133232373Y-84120781D01*
X133115765Y-84295298D01*
X133035447Y-84489204D01*
X133035445Y-84489210D01*
X132994500Y-84695054D01*
X132994500Y-84904947D01*
X132996959Y-84917309D01*
X132990732Y-84986901D01*
X132947868Y-85042078D01*
X132881979Y-85065322D01*
X132875342Y-85065500D01*
X131717519Y-85065500D01*
X131650480Y-85045815D01*
X131629838Y-85029181D01*
X130886818Y-84286161D01*
X130853333Y-84224838D01*
X130850499Y-84198480D01*
X130850499Y-82561071D01*
X130844111Y-82490764D01*
X130844110Y-82490761D01*
X130844110Y-82490758D01*
X130796779Y-82338871D01*
X130793683Y-82328934D01*
X130793680Y-82328926D01*
X130705992Y-82183871D01*
X130705989Y-82183867D01*
X130586132Y-82064010D01*
X130586128Y-82064007D01*
X130441073Y-81976319D01*
X130441068Y-81976317D01*
X130279246Y-81925891D01*
X130279238Y-81925889D01*
X130230003Y-81921415D01*
X130208921Y-81919500D01*
X130208918Y-81919500D01*
X128911071Y-81919500D01*
X128840764Y-81925888D01*
X128840757Y-81925890D01*
X128678934Y-81976316D01*
X128678926Y-81976319D01*
X128533871Y-82064007D01*
X128533867Y-82064010D01*
X128414010Y-82183867D01*
X128414007Y-82183871D01*
X128326319Y-82328926D01*
X128326317Y-82328931D01*
X128275891Y-82490753D01*
X128275889Y-82490761D01*
X128272875Y-82523935D01*
X128269887Y-82556826D01*
X128269500Y-82561081D01*
X128269500Y-84198480D01*
X128249815Y-84265519D01*
X128233181Y-84286161D01*
X126212181Y-86307161D01*
X126150858Y-86340646D01*
X126081166Y-86335662D01*
X126025233Y-86293790D01*
X126000816Y-86228326D01*
X126000500Y-86219480D01*
X126000500Y-84808529D01*
X126003934Y-84779548D01*
X126006210Y-84770078D01*
X126014320Y-84750500D01*
X126022051Y-84731836D01*
X126053463Y-84573918D01*
X126060500Y-84538541D01*
X126060500Y-83609183D01*
X126074015Y-83552888D01*
X126129917Y-83443174D01*
X126129918Y-83443171D01*
X126148991Y-83384470D01*
X126186072Y-83270346D01*
X126214500Y-83090861D01*
X126214500Y-82909139D01*
X126186072Y-82729654D01*
X126186071Y-82729650D01*
X126186071Y-82729649D01*
X126129918Y-82556828D01*
X126129916Y-82556825D01*
X126128732Y-82554500D01*
X126047417Y-82394910D01*
X125940603Y-82247894D01*
X125812106Y-82119397D01*
X125665090Y-82012583D01*
X125503174Y-81930083D01*
X125503171Y-81930081D01*
X125330348Y-81873928D01*
X125169486Y-81848450D01*
X125150861Y-81845500D01*
X124969139Y-81845500D01*
X124950514Y-81848450D01*
X124789652Y-81873928D01*
X124789649Y-81873928D01*
X124616828Y-81930081D01*
X124616825Y-81930083D01*
X124454909Y-82012583D01*
X124408771Y-82046105D01*
X124307894Y-82119397D01*
X124307892Y-82119399D01*
X124307891Y-82119399D01*
X124179399Y-82247891D01*
X124179399Y-82247892D01*
X124179397Y-82247894D01*
X124135422Y-82308420D01*
X124072583Y-82394909D01*
X123990083Y-82556825D01*
X123990081Y-82556828D01*
X123933928Y-82729649D01*
X123933928Y-82729652D01*
X123912473Y-82865114D01*
X123882544Y-82928249D01*
X123823232Y-82965180D01*
X123753370Y-82964182D01*
X123695137Y-82925572D01*
X123667527Y-82865114D01*
X123665225Y-82850579D01*
X123646072Y-82729654D01*
X123646071Y-82729650D01*
X123646071Y-82729649D01*
X123589918Y-82556828D01*
X123589916Y-82556825D01*
X123588732Y-82554500D01*
X123507417Y-82394910D01*
X123400603Y-82247894D01*
X123272106Y-82119397D01*
X123125090Y-82012583D01*
X122963174Y-81930083D01*
X122963171Y-81930081D01*
X122790348Y-81873928D01*
X122629486Y-81848450D01*
X122610861Y-81845500D01*
X122429139Y-81845500D01*
X122410514Y-81848450D01*
X122249652Y-81873928D01*
X122249649Y-81873928D01*
X122076828Y-81930081D01*
X122076825Y-81930083D01*
X121914909Y-82012583D01*
X121868771Y-82046105D01*
X121767894Y-82119397D01*
X121767892Y-82119399D01*
X121767891Y-82119399D01*
X121639399Y-82247891D01*
X121639399Y-82247892D01*
X121639397Y-82247894D01*
X121595422Y-82308420D01*
X121532583Y-82394909D01*
X121450083Y-82556825D01*
X121450081Y-82556828D01*
X121393928Y-82729649D01*
X121393928Y-82729652D01*
X121372473Y-82865114D01*
X121342544Y-82928249D01*
X121283232Y-82965180D01*
X121213370Y-82964182D01*
X121155137Y-82925572D01*
X121127527Y-82865114D01*
X121125225Y-82850579D01*
X121106072Y-82729654D01*
X121106071Y-82729650D01*
X121106071Y-82729649D01*
X121049918Y-82556828D01*
X121049916Y-82556825D01*
X121048732Y-82554500D01*
X120967417Y-82394910D01*
X120860603Y-82247894D01*
X120732106Y-82119397D01*
X120585090Y-82012583D01*
X120559211Y-81999397D01*
X120490224Y-81964246D01*
X120439428Y-81916271D01*
X120422633Y-81848450D01*
X120445171Y-81782315D01*
X120458832Y-81766086D01*
X123441489Y-78783429D01*
X123502810Y-78749946D01*
X123567485Y-78753180D01*
X123615544Y-78768796D01*
X123689610Y-78792862D01*
X123895676Y-78825500D01*
X123895681Y-78825500D01*
X124104324Y-78825500D01*
X124310389Y-78792862D01*
X124313574Y-78791827D01*
X124508816Y-78728389D01*
X124694714Y-78633670D01*
X124863505Y-78511035D01*
X125011035Y-78363505D01*
X125133670Y-78194714D01*
X125228389Y-78008816D01*
X125292862Y-77810389D01*
X125302427Y-77750000D01*
X125325500Y-77604324D01*
X125325500Y-77395675D01*
X125292862Y-77189610D01*
X125250713Y-77059890D01*
X125228389Y-76991184D01*
X125228387Y-76991181D01*
X125228387Y-76991179D01*
X125178421Y-76893116D01*
X125133670Y-76805286D01*
X125054770Y-76696691D01*
X125054770Y-76696689D01*
X125011039Y-76636501D01*
X125011035Y-76636495D01*
X125001675Y-76627135D01*
X127754500Y-76627135D01*
X127754500Y-78372870D01*
X127754501Y-78372876D01*
X127760908Y-78432483D01*
X127811202Y-78567328D01*
X127811206Y-78567335D01*
X127897452Y-78682544D01*
X127897455Y-78682547D01*
X128012664Y-78768793D01*
X128012671Y-78768797D01*
X128147517Y-78819091D01*
X128147516Y-78819091D01*
X128154444Y-78819835D01*
X128207127Y-78825500D01*
X129952872Y-78825499D01*
X130012483Y-78819091D01*
X130147331Y-78768796D01*
X130262546Y-78682546D01*
X130348796Y-78567331D01*
X130399091Y-78432483D01*
X130405500Y-78372873D01*
X130405499Y-76627128D01*
X130399091Y-76567517D01*
X130390928Y-76545632D01*
X130348797Y-76432671D01*
X130348793Y-76432664D01*
X130262547Y-76317455D01*
X130262544Y-76317452D01*
X130147335Y-76231206D01*
X130147328Y-76231202D01*
X130012482Y-76180908D01*
X130012483Y-76180908D01*
X129952883Y-76174501D01*
X129952881Y-76174500D01*
X129952873Y-76174500D01*
X129952864Y-76174500D01*
X128207129Y-76174500D01*
X128207123Y-76174501D01*
X128147516Y-76180908D01*
X128012671Y-76231202D01*
X128012664Y-76231206D01*
X127897455Y-76317452D01*
X127897452Y-76317455D01*
X127811206Y-76432664D01*
X127811202Y-76432671D01*
X127760908Y-76567517D01*
X127755979Y-76613368D01*
X127754501Y-76627123D01*
X127754500Y-76627135D01*
X125001675Y-76627135D01*
X124863505Y-76488965D01*
X124694714Y-76366330D01*
X124508820Y-76271612D01*
X124310389Y-76207137D01*
X124104324Y-76174500D01*
X124104319Y-76174500D01*
X123895681Y-76174500D01*
X123895676Y-76174500D01*
X123689610Y-76207137D01*
X123491179Y-76271612D01*
X123305285Y-76366330D01*
X123136493Y-76488966D01*
X123136488Y-76488970D01*
X123131323Y-76494136D01*
X123069998Y-76527618D01*
X123067839Y-76528067D01*
X123018168Y-76537947D01*
X123018162Y-76537949D01*
X122999615Y-76545632D01*
X122836088Y-76613366D01*
X122836079Y-76613371D01*
X122672219Y-76722859D01*
X122607238Y-76787841D01*
X122532861Y-76862218D01*
X122532858Y-76862221D01*
X117491897Y-81903181D01*
X117430574Y-81936666D01*
X117404216Y-81939500D01*
X116542129Y-81939500D01*
X116542123Y-81939501D01*
X116482516Y-81945908D01*
X116347671Y-81996202D01*
X116347664Y-81996206D01*
X116232455Y-82082452D01*
X116223766Y-82094060D01*
X116167832Y-82135930D01*
X116098140Y-82140914D01*
X116036818Y-82107428D01*
X116003333Y-82046105D01*
X116000500Y-82019748D01*
X116000500Y-80965781D01*
X116020185Y-80898742D01*
X116036814Y-80878105D01*
X117637778Y-79277141D01*
X117637782Y-79277139D01*
X117777139Y-79137782D01*
X117886632Y-78973914D01*
X117898341Y-78945647D01*
X117939953Y-78845185D01*
X117962051Y-78791835D01*
X117984988Y-78676523D01*
X118017373Y-78614613D01*
X118078088Y-78580039D01*
X118147858Y-78583778D01*
X118179490Y-78600396D01*
X118199057Y-78614613D01*
X118225284Y-78633669D01*
X118411179Y-78728387D01*
X118411181Y-78728387D01*
X118411184Y-78728389D01*
X118487486Y-78753181D01*
X118609610Y-78792862D01*
X118815676Y-78825500D01*
X118815681Y-78825500D01*
X119024324Y-78825500D01*
X119230389Y-78792862D01*
X119233574Y-78791827D01*
X119428816Y-78728389D01*
X119614714Y-78633670D01*
X119783505Y-78511035D01*
X119931035Y-78363505D01*
X120053670Y-78194714D01*
X120148389Y-78008816D01*
X120212862Y-77810389D01*
X120222427Y-77750000D01*
X120245500Y-77604324D01*
X120245500Y-77395675D01*
X120212862Y-77189610D01*
X120170713Y-77059890D01*
X120148389Y-76991184D01*
X120148387Y-76991181D01*
X120148387Y-76991179D01*
X120098421Y-76893116D01*
X120053670Y-76805286D01*
X119931035Y-76636495D01*
X119783505Y-76488965D01*
X119614714Y-76366330D01*
X119428820Y-76271612D01*
X119230389Y-76207137D01*
X119024324Y-76174500D01*
X119024319Y-76174500D01*
X118815681Y-76174500D01*
X118815676Y-76174500D01*
X118609610Y-76207137D01*
X118411179Y-76271612D01*
X118225282Y-76366331D01*
X118197384Y-76386601D01*
X118131578Y-76410080D01*
X118063524Y-76394254D01*
X118014830Y-76344147D01*
X118000500Y-76286282D01*
X118000500Y-75965782D01*
X118020185Y-75898743D01*
X118036819Y-75878101D01*
X118878102Y-75036819D01*
X118939425Y-75003334D01*
X118965783Y-75000500D01*
X142401459Y-75000500D01*
X142454218Y-75000500D01*
X142521257Y-75020185D01*
X142541899Y-75036819D01*
X145058181Y-77553102D01*
X145091666Y-77614425D01*
X145094500Y-77640783D01*
X145094500Y-78372870D01*
X145094501Y-78372876D01*
X145100908Y-78432483D01*
X145151202Y-78567328D01*
X145151206Y-78567335D01*
X145237452Y-78682544D01*
X145237455Y-78682547D01*
X145352664Y-78768793D01*
X145352671Y-78768797D01*
X145487517Y-78819091D01*
X145487516Y-78819091D01*
X145494444Y-78819835D01*
X145547127Y-78825500D01*
X147292872Y-78825499D01*
X147352483Y-78819091D01*
X147487331Y-78768796D01*
X147602546Y-78682546D01*
X147688796Y-78567331D01*
X147739091Y-78432483D01*
X147745500Y-78372873D01*
X147745499Y-77395675D01*
X150174500Y-77395675D01*
X150174500Y-77604324D01*
X150207137Y-77810389D01*
X150271612Y-78008820D01*
X150357133Y-78176664D01*
X150366330Y-78194714D01*
X150488965Y-78363505D01*
X150636495Y-78511035D01*
X150805286Y-78633670D01*
X150889392Y-78676524D01*
X150991179Y-78728387D01*
X150991181Y-78728387D01*
X150991184Y-78728389D01*
X151067486Y-78753181D01*
X151189610Y-78792862D01*
X151395676Y-78825500D01*
X151395681Y-78825500D01*
X151604324Y-78825500D01*
X151810389Y-78792862D01*
X151813574Y-78791827D01*
X152008816Y-78728389D01*
X152194714Y-78633670D01*
X152363505Y-78511035D01*
X152511035Y-78363505D01*
X152633670Y-78194714D01*
X152728389Y-78008816D01*
X152792862Y-77810389D01*
X152802427Y-77750000D01*
X152825500Y-77604324D01*
X152825500Y-77395675D01*
X152792862Y-77189610D01*
X152750713Y-77059890D01*
X152728389Y-76991184D01*
X152728387Y-76991181D01*
X152728387Y-76991179D01*
X152678421Y-76893116D01*
X152633670Y-76805286D01*
X152511035Y-76636495D01*
X152363505Y-76488965D01*
X152194714Y-76366330D01*
X152008820Y-76271612D01*
X151810389Y-76207137D01*
X151604324Y-76174500D01*
X151604319Y-76174500D01*
X151395681Y-76174500D01*
X151395676Y-76174500D01*
X151189610Y-76207137D01*
X150991179Y-76271612D01*
X150805285Y-76366330D01*
X150636493Y-76488966D01*
X150488966Y-76636493D01*
X150366330Y-76805285D01*
X150271612Y-76991179D01*
X150207137Y-77189610D01*
X150174500Y-77395675D01*
X147745499Y-77395675D01*
X147745499Y-76627128D01*
X147739091Y-76567517D01*
X147730928Y-76545632D01*
X147688797Y-76432671D01*
X147688793Y-76432664D01*
X147602547Y-76317455D01*
X147602544Y-76317452D01*
X147487335Y-76231206D01*
X147487328Y-76231202D01*
X147352482Y-76180908D01*
X147352483Y-76180908D01*
X147292883Y-76174501D01*
X147292881Y-76174500D01*
X147292873Y-76174500D01*
X147292865Y-76174500D01*
X146560783Y-76174500D01*
X146493744Y-76154815D01*
X146473102Y-76138181D01*
X144047102Y-73712181D01*
X144013617Y-73650858D01*
X144018601Y-73581166D01*
X144060473Y-73525233D01*
X144125937Y-73500816D01*
X144134783Y-73500500D01*
X179875500Y-73500500D01*
X179942539Y-73520185D01*
G37*
%TD.AperFunction*%
%TA.AperFunction,Conductor*%
G36*
X154557539Y-81220185D02*
G01*
X154603294Y-81272989D01*
X154614500Y-81324500D01*
X154614500Y-81667422D01*
X154594815Y-81734461D01*
X154542011Y-81780216D01*
X154472853Y-81790160D01*
X154429876Y-81772335D01*
X154428464Y-81774783D01*
X154421426Y-81770719D01*
X154284472Y-81713991D01*
X154284470Y-81713990D01*
X154174401Y-81699500D01*
X153725596Y-81699500D01*
X153615531Y-81713989D01*
X153615529Y-81713990D01*
X153546797Y-81742459D01*
X153477328Y-81749926D01*
X153451894Y-81742459D01*
X153384339Y-81714477D01*
X153300000Y-81703373D01*
X153300000Y-81898321D01*
X153280315Y-81965360D01*
X153274377Y-81973806D01*
X153270721Y-81978570D01*
X153213991Y-82115527D01*
X153213990Y-82115529D01*
X153203768Y-82193181D01*
X153199500Y-82225599D01*
X153199500Y-82497797D01*
X153199501Y-82500000D01*
X153199501Y-82774403D01*
X153213988Y-82884463D01*
X153213990Y-82884470D01*
X153213991Y-82884472D01*
X153240061Y-82947409D01*
X153249500Y-82994862D01*
X153249500Y-83763454D01*
X153229815Y-83830493D01*
X153177011Y-83876248D01*
X153107853Y-83886192D01*
X153044297Y-83857167D01*
X153006523Y-83798389D01*
X153002561Y-83779640D01*
X152995231Y-83723971D01*
X152995230Y-83723967D01*
X152937421Y-83584401D01*
X152845451Y-83464545D01*
X152838956Y-83459561D01*
X152797755Y-83403132D01*
X152793602Y-83333386D01*
X152800000Y-83321993D01*
X152800000Y-82750000D01*
X152300000Y-82750000D01*
X152300000Y-82774377D01*
X152314478Y-82884341D01*
X152314478Y-82884342D01*
X152371157Y-83021178D01*
X152432034Y-83100514D01*
X152457228Y-83165683D01*
X152443190Y-83234128D01*
X152394376Y-83284117D01*
X152333658Y-83300000D01*
X151775000Y-83300000D01*
X151775000Y-83971000D01*
X151755315Y-84038039D01*
X151702511Y-84083794D01*
X151651000Y-84095000D01*
X151399000Y-84095000D01*
X151331961Y-84075315D01*
X151286206Y-84022511D01*
X151275000Y-83971000D01*
X151275000Y-83300000D01*
X150655018Y-83300000D01*
X150587979Y-83280315D01*
X150542224Y-83227511D01*
X150532280Y-83158353D01*
X150561305Y-83094797D01*
X150567337Y-83088319D01*
X151430034Y-82225622D01*
X152300000Y-82225622D01*
X152300000Y-82250000D01*
X152800000Y-82250000D01*
X152800000Y-81703373D01*
X152715659Y-81714478D01*
X152715657Y-81714478D01*
X152578824Y-81771156D01*
X152461320Y-81861320D01*
X152371156Y-81978824D01*
X152314478Y-82115657D01*
X152314478Y-82115658D01*
X152300000Y-82225622D01*
X151430034Y-82225622D01*
X152418837Y-81236819D01*
X152480160Y-81203334D01*
X152506518Y-81200500D01*
X154490500Y-81200500D01*
X154557539Y-81220185D01*
G37*
%TD.AperFunction*%
%TD*%
M02*
