%TF.GenerationSoftware,KiCad,Pcbnew,10.0.0*%
%TF.CreationDate,2026-10-01T06:28:43+05:30*%
%TF.ProjectId,V3_6Channels,56335f36-4368-4616-9e6e-656c732e6b69,rev?*%
%TF.SameCoordinates,Original*%
%TF.FileFunction,Soldermask,Bot*%
%TF.FilePolarity,Negative*%
%FSLAX46Y46*%
G04 Gerber Fmt 4.6, Leading zero omitted, Abs format (unit mm)*
G04 Created by KiCad (PCBNEW 10.0.0) date 2026-10-01 06:28:43*
%MOMM*%
%LPD*%
G01*
G04 APERTURE LIST*
G04 Aperture macros list*
%AMRoundRect*
0 Rectangle with rounded corners*
0 $1 Rounding radius*
0 $2 $3 $4 $5 $6 $7 $8 $9 X,Y pos of 4 corners*
0 Add a 4 corners polygon primitive as box body*
4,1,4,$2,$3,$4,$5,$6,$7,$8,$9,$2,$3,0*
0 Add four circle primitives for the rounded corners*
1,1,$1+$1,$2,$3*
1,1,$1+$1,$4,$5*
1,1,$1+$1,$6,$7*
1,1,$1+$1,$8,$9*
0 Add four rect primitives between the rounded corners*
20,1,$1+$1,$2,$3,$4,$5,0*
20,1,$1+$1,$4,$5,$6,$7,0*
20,1,$1+$1,$6,$7,$8,$9,0*
20,1,$1+$1,$8,$9,$2,$3,0*%
G04 Aperture macros list end*
%ADD10C,1.854000*%
%ADD11RoundRect,0.102000X0.565000X0.565000X-0.565000X0.565000X-0.565000X-0.565000X0.565000X-0.565000X0*%
%ADD12C,1.334000*%
%ADD13C,1.512000*%
%ADD14RoundRect,0.102000X0.825000X0.825000X-0.825000X0.825000X-0.825000X-0.825000X0.825000X-0.825000X0*%
%ADD15RoundRect,0.102000X-0.825000X-0.825000X0.825000X-0.825000X0.825000X0.825000X-0.825000X0.825000X0*%
%ADD16RoundRect,0.102000X-0.754000X0.754000X-0.754000X-0.754000X0.754000X-0.754000X0.754000X0.754000X0*%
%ADD17C,1.712000*%
G04 APERTURE END LIST*
D10*
%TO.C,J12*%
X144150000Y-106500000D03*
X146690000Y-106500000D03*
X149230000Y-106500000D03*
X151770000Y-106500000D03*
X154310000Y-106500000D03*
X156850000Y-106500000D03*
%TD*%
D11*
%TO.C,Q1*%
X142000000Y-102580000D03*
D12*
X142000000Y-100040000D03*
X142000000Y-97500000D03*
X142000000Y-94960000D03*
X142000000Y-92420000D03*
X142000000Y-89880000D03*
X142000000Y-87340000D03*
X142000000Y-84800000D03*
X134060000Y-84800000D03*
X134060000Y-87340000D03*
X134060000Y-89880000D03*
X134060000Y-92420000D03*
X134060000Y-94960000D03*
X134060000Y-97500000D03*
X134060000Y-100040000D03*
X134060000Y-102580000D03*
%TD*%
D13*
%TO.C,U2*%
X127500000Y-106000000D03*
X127500000Y-108540000D03*
X127500000Y-111080000D03*
X135120000Y-111080000D03*
X135120000Y-108540000D03*
X135120000Y-106000000D03*
%TD*%
D14*
%TO.C,J14*%
X129080000Y-77500000D03*
D10*
X124000000Y-77500000D03*
X118920000Y-77500000D03*
X113840000Y-77500000D03*
X108760000Y-77500000D03*
X103680000Y-77500000D03*
%TD*%
%TO.C,J5*%
X96500000Y-85960000D03*
X96500000Y-88500000D03*
X96500000Y-91040000D03*
X96500000Y-93580000D03*
X96500000Y-96120000D03*
X96500000Y-98660000D03*
X96500000Y-101200000D03*
%TD*%
D13*
%TO.C,U8*%
X108540000Y-82880000D03*
X106000000Y-82880000D03*
X103460000Y-82880000D03*
X103460000Y-90500000D03*
X106000000Y-90500000D03*
X108540000Y-90500000D03*
%TD*%
%TO.C,U7*%
X114810000Y-111500000D03*
X114810000Y-108960000D03*
X114810000Y-106420000D03*
X107190000Y-106420000D03*
X107190000Y-108960000D03*
X107190000Y-111500000D03*
%TD*%
D15*
%TO.C,P1*%
X146420000Y-77500000D03*
D10*
X151500000Y-77500000D03*
%TD*%
D16*
%TO.C,PS1*%
X172500000Y-81300000D03*
D17*
X167500000Y-81300000D03*
X177700000Y-110700000D03*
X162300000Y-110700000D03*
%TD*%
D10*
%TO.C,J13*%
X155230000Y-102500000D03*
X157770000Y-102500000D03*
%TD*%
D13*
%TO.C,U4*%
X125060000Y-83000000D03*
X122520000Y-83000000D03*
X119980000Y-83000000D03*
X119980000Y-90620000D03*
X122520000Y-90620000D03*
X125060000Y-90620000D03*
%TD*%
%TO.C,U5*%
X106680000Y-103310000D03*
X109220000Y-103310000D03*
X111760000Y-103310000D03*
X111760000Y-95690000D03*
X109220000Y-95690000D03*
X106680000Y-95690000D03*
%TD*%
D10*
%TO.C,J1*%
X156850000Y-110740000D03*
X154310000Y-110740000D03*
X151770000Y-110740000D03*
X149230000Y-110740000D03*
X146690000Y-110740000D03*
X144150000Y-110740000D03*
%TD*%
D13*
%TO.C,U6*%
X123640000Y-103500000D03*
X126180000Y-103500000D03*
X128720000Y-103500000D03*
X128720000Y-95880000D03*
X126180000Y-95880000D03*
X123640000Y-95880000D03*
%TD*%
D10*
%TO.C,J11*%
X178540000Y-76500000D03*
X176000000Y-76500000D03*
X173460000Y-76500000D03*
X170920000Y-76500000D03*
X168380000Y-76500000D03*
X165840000Y-76500000D03*
%TD*%
D14*
%TO.C,J3*%
X141263750Y-77500000D03*
D10*
X137763750Y-77500000D03*
X134263750Y-77500000D03*
%TD*%
%TO.C,J2*%
X159460000Y-76500000D03*
X162000000Y-76500000D03*
%TD*%
M02*
