%TF.GenerationSoftware,KiCad,Pcbnew,10.0.0*%
%TF.CreationDate,2026-10-01T06:28:43+05:30*%
%TF.ProjectId,V3_6Channels,56335f36-4368-4616-9e6e-656c732e6b69,rev?*%
%TF.SameCoordinates,Original*%
%TF.FileFunction,Soldermask,Top*%
%TF.FilePolarity,Negative*%
%FSLAX46Y46*%
G04 Gerber Fmt 4.6, Leading zero omitted, Abs format (unit mm)*
G04 Created by KiCad (PCBNEW 10.0.0) date 2026-10-01 06:28:43*
%MOMM*%
%LPD*%
G01*
G04 APERTURE LIST*
G04 Aperture macros list*
%AMRoundRect*
0 Rectangle with rounded corners*
0 $1 Rounding radius*
0 $2 $3 $4 $5 $6 $7 $8 $9 X,Y pos of 4 corners*
0 Add a 4 corners polygon primitive as box body*
4,1,4,$2,$3,$4,$5,$6,$7,$8,$9,$2,$3,0*
0 Add four circle primitives for the rounded corners*
1,1,$1+$1,$2,$3*
1,1,$1+$1,$4,$5*
1,1,$1+$1,$6,$7*
1,1,$1+$1,$8,$9*
0 Add four rect primitives between the rounded corners*
20,1,$1+$1,$2,$3,$4,$5,0*
20,1,$1+$1,$4,$5,$6,$7,0*
20,1,$1+$1,$6,$7,$8,$9,0*
20,1,$1+$1,$8,$9,$2,$3,0*%
G04 Aperture macros list end*
%ADD10RoundRect,0.102000X-0.690000X0.505000X-0.690000X-0.505000X0.690000X-0.505000X0.690000X0.505000X0*%
%ADD11C,1.854000*%
%ADD12RoundRect,0.102000X-0.505000X-0.690000X0.505000X-0.690000X0.505000X0.690000X-0.505000X0.690000X0*%
%ADD13RoundRect,0.102000X0.565000X0.565000X-0.565000X0.565000X-0.565000X-0.565000X0.565000X-0.565000X0*%
%ADD14C,1.334000*%
%ADD15RoundRect,0.102000X-0.910000X0.870000X-0.910000X-0.870000X0.910000X-0.870000X0.910000X0.870000X0*%
%ADD16RoundRect,0.102000X0.550000X0.500000X-0.550000X0.500000X-0.550000X-0.500000X0.550000X-0.500000X0*%
%ADD17RoundRect,0.102000X0.870000X0.910000X-0.870000X0.910000X-0.870000X-0.910000X0.870000X-0.910000X0*%
%ADD18RoundRect,0.102000X0.910000X-0.870000X0.910000X0.870000X-0.910000X0.870000X-0.910000X-0.870000X0*%
%ADD19C,1.512000*%
%ADD20RoundRect,0.088000X0.264000X0.314000X-0.264000X0.314000X-0.264000X-0.314000X0.264000X-0.314000X0*%
%ADD21RoundRect,0.102000X0.505000X0.690000X-0.505000X0.690000X-0.505000X-0.690000X0.505000X-0.690000X0*%
%ADD22RoundRect,0.099250X0.987750X0.297750X-0.987750X0.297750X-0.987750X-0.297750X0.987750X-0.297750X0*%
%ADD23RoundRect,0.094250X0.742750X0.282750X-0.742750X0.282750X-0.742750X-0.282750X0.742750X-0.282750X0*%
%ADD24RoundRect,0.094250X0.282750X0.742750X-0.282750X0.742750X-0.282750X-0.742750X0.282750X-0.742750X0*%
%ADD25RoundRect,0.102000X-0.710000X0.600000X-0.710000X-0.600000X0.710000X-0.600000X0.710000X0.600000X0*%
%ADD26RoundRect,0.102000X0.825000X0.825000X-0.825000X0.825000X-0.825000X-0.825000X0.825000X-0.825000X0*%
%ADD27RoundRect,0.102000X0.690000X-0.505000X0.690000X0.505000X-0.690000X0.505000X-0.690000X-0.505000X0*%
%ADD28RoundRect,0.223000X0.669000X-1.409000X0.669000X1.409000X-0.669000X1.409000X-0.669000X-1.409000X0*%
%ADD29RoundRect,0.102000X-0.870000X-0.910000X0.870000X-0.910000X0.870000X0.910000X-0.870000X0.910000X0*%
%ADD30RoundRect,0.102000X-0.525000X-0.650000X0.525000X-0.650000X0.525000X0.650000X-0.525000X0.650000X0*%
%ADD31RoundRect,0.102000X0.710000X-0.600000X0.710000X0.600000X-0.710000X0.600000X-0.710000X-0.600000X0*%
%ADD32RoundRect,0.223000X-0.669000X1.409000X-0.669000X-1.409000X0.669000X-1.409000X0.669000X1.409000X0*%
%ADD33RoundRect,0.102000X-0.825000X-0.825000X0.825000X-0.825000X0.825000X0.825000X-0.825000X0.825000X0*%
%ADD34RoundRect,0.102000X-0.754000X0.754000X-0.754000X-0.754000X0.754000X-0.754000X0.754000X0.754000X0*%
%ADD35C,1.712000*%
%ADD36RoundRect,0.088000X-0.314000X0.264000X-0.314000X-0.264000X0.314000X-0.264000X0.314000X0.264000X0*%
%ADD37RoundRect,0.102000X-1.060000X1.140000X-1.060000X-1.140000X1.060000X-1.140000X1.060000X1.140000X0*%
%ADD38RoundRect,0.102000X-0.885000X0.615000X-0.885000X-0.615000X0.885000X-0.615000X0.885000X0.615000X0*%
%ADD39RoundRect,0.088000X0.314000X-0.264000X0.314000X0.264000X-0.314000X0.264000X-0.314000X-0.264000X0*%
G04 APERTURE END LIST*
D10*
%TO.C,R23*%
X120000000Y-110550000D03*
X120000000Y-112450000D03*
%TD*%
D11*
%TO.C,J12*%
X144150000Y-106500000D03*
X146690000Y-106500000D03*
X149230000Y-106500000D03*
X151770000Y-106500000D03*
X154310000Y-106500000D03*
X156850000Y-106500000D03*
%TD*%
D12*
%TO.C,R12*%
X116550000Y-93070000D03*
X118450000Y-93070000D03*
%TD*%
D13*
%TO.C,Q1*%
X142000000Y-102580000D03*
D14*
X142000000Y-100040000D03*
X142000000Y-97500000D03*
X142000000Y-94960000D03*
X142000000Y-92420000D03*
X142000000Y-89880000D03*
X142000000Y-87340000D03*
X142000000Y-84800000D03*
X134060000Y-84800000D03*
X134060000Y-87340000D03*
X134060000Y-89880000D03*
X134060000Y-92420000D03*
X134060000Y-94960000D03*
X134060000Y-97500000D03*
X134060000Y-100040000D03*
X134060000Y-102580000D03*
%TD*%
D15*
%TO.C,R18*%
X131640000Y-100810000D03*
X131640000Y-103190000D03*
%TD*%
D16*
%TO.C,C1*%
X158180000Y-97000000D03*
X156480000Y-97000000D03*
%TD*%
D17*
%TO.C,R21*%
X119690000Y-106000000D03*
X117310000Y-106000000D03*
%TD*%
D18*
%TO.C,R14*%
X114720000Y-103190000D03*
X114720000Y-100810000D03*
%TD*%
D19*
%TO.C,U2*%
X127500000Y-106000000D03*
X127500000Y-108540000D03*
X127500000Y-111080000D03*
X135120000Y-111080000D03*
X135120000Y-108540000D03*
X135120000Y-106000000D03*
%TD*%
D20*
%TO.C,C4*%
X157450000Y-98500000D03*
X156550000Y-98500000D03*
%TD*%
D21*
%TO.C,R27*%
X105505555Y-92960000D03*
X103605555Y-92960000D03*
%TD*%
D22*
%TO.C,U1*%
X156475000Y-87905000D03*
X156475000Y-86635000D03*
X156475000Y-85365000D03*
X156475000Y-84095000D03*
X151525000Y-84095000D03*
X151525000Y-85365000D03*
X151525000Y-86635000D03*
X151525000Y-87905000D03*
%TD*%
D15*
%TO.C,R17*%
X131640000Y-95810000D03*
X131640000Y-98190000D03*
%TD*%
%TO.C,R25*%
X100500000Y-88000000D03*
X100500000Y-90380000D03*
%TD*%
D23*
%TO.C,U3*%
X154170000Y-98300000D03*
X154170000Y-97500000D03*
X154170000Y-96700000D03*
X154170000Y-95900000D03*
X154170000Y-95100000D03*
X154170000Y-94300000D03*
X154170000Y-93500000D03*
X154170000Y-92700000D03*
D24*
X152800000Y-91330000D03*
X152000000Y-91330000D03*
X151200000Y-91330000D03*
X150400000Y-91330000D03*
X149600000Y-91330000D03*
X148800000Y-91330000D03*
X148000000Y-91330000D03*
X147200000Y-91330000D03*
D23*
X145830000Y-92700000D03*
X145830000Y-93500000D03*
X145830000Y-94300000D03*
X145830000Y-95100000D03*
X145830000Y-95900000D03*
X145830000Y-96700000D03*
X145830000Y-97500000D03*
X145830000Y-98300000D03*
D24*
X147200000Y-99670000D03*
X148000000Y-99670000D03*
X148800000Y-99670000D03*
X149600000Y-99670000D03*
X150400000Y-99670000D03*
X151200000Y-99670000D03*
X152000000Y-99670000D03*
X152800000Y-99670000D03*
%TD*%
D20*
%TO.C,C8*%
X138450000Y-83000000D03*
X137550000Y-83000000D03*
%TD*%
D25*
%TO.C,R4*%
X149000000Y-83330000D03*
X149000000Y-85000000D03*
%TD*%
D12*
%TO.C,R1*%
X150750000Y-103000000D03*
X152650000Y-103000000D03*
%TD*%
D26*
%TO.C,J14*%
X129080000Y-77500000D03*
D11*
X124000000Y-77500000D03*
X118920000Y-77500000D03*
X113840000Y-77500000D03*
X108760000Y-77500000D03*
X103680000Y-77500000D03*
%TD*%
D18*
%TO.C,R26*%
X100500000Y-85380000D03*
X100500000Y-83000000D03*
%TD*%
D11*
%TO.C,J5*%
X96500000Y-85960000D03*
X96500000Y-88500000D03*
X96500000Y-91040000D03*
X96500000Y-93580000D03*
X96500000Y-96120000D03*
X96500000Y-98660000D03*
X96500000Y-101200000D03*
%TD*%
D20*
%TO.C,C6*%
X149150000Y-101500000D03*
X148250000Y-101500000D03*
%TD*%
D27*
%TO.C,R24*%
X117500000Y-112400000D03*
X117500000Y-110500000D03*
%TD*%
%TO.C,R5*%
X125000000Y-112450000D03*
X125000000Y-110550000D03*
%TD*%
D28*
%TO.C,C13*%
X102500000Y-106225000D03*
X102500000Y-110775000D03*
%TD*%
D17*
%TO.C,R8*%
X125190000Y-108500000D03*
X122810000Y-108500000D03*
%TD*%
D15*
%TO.C,R13*%
X114720000Y-96194000D03*
X114720000Y-98574000D03*
%TD*%
D29*
%TO.C,R22*%
X117310000Y-108500000D03*
X119690000Y-108500000D03*
%TD*%
D12*
%TO.C,R15*%
X107327778Y-92880000D03*
X109227778Y-92880000D03*
%TD*%
D21*
%TO.C,R28*%
X101783333Y-93000000D03*
X99883333Y-93000000D03*
%TD*%
D30*
%TO.C,Y1*%
X156455000Y-92850000D03*
X156455000Y-95150000D03*
X158205000Y-95150000D03*
X158205000Y-92850000D03*
%TD*%
D31*
%TO.C,R3*%
X149000000Y-88500000D03*
X149000000Y-86830000D03*
%TD*%
D19*
%TO.C,U8*%
X108540000Y-82880000D03*
X106000000Y-82880000D03*
X103460000Y-82880000D03*
X103460000Y-90500000D03*
X106000000Y-90500000D03*
X108540000Y-90500000D03*
%TD*%
D32*
%TO.C,C14*%
X113000000Y-88655000D03*
X113000000Y-84105000D03*
%TD*%
D12*
%TO.C,R19*%
X123943333Y-93000000D03*
X125843333Y-93000000D03*
%TD*%
%TO.C,R20*%
X127610000Y-93000000D03*
X129510000Y-93000000D03*
%TD*%
D19*
%TO.C,U7*%
X114810000Y-111500000D03*
X114810000Y-108960000D03*
X114810000Y-106420000D03*
X107190000Y-106420000D03*
X107190000Y-108960000D03*
X107190000Y-111500000D03*
%TD*%
D33*
%TO.C,P1*%
X146420000Y-77500000D03*
D11*
X151500000Y-77500000D03*
%TD*%
D34*
%TO.C,PS1*%
X172500000Y-81300000D03*
D35*
X167500000Y-81300000D03*
X177700000Y-110700000D03*
X162300000Y-110700000D03*
%TD*%
D29*
%TO.C,R7*%
X122310000Y-106000000D03*
X124690000Y-106000000D03*
%TD*%
D12*
%TO.C,R16*%
X111050000Y-92920000D03*
X112950000Y-92920000D03*
%TD*%
D21*
%TO.C,R11*%
X122166667Y-93000000D03*
X120266667Y-93000000D03*
%TD*%
D20*
%TO.C,C7*%
X153950000Y-82500000D03*
X153050000Y-82500000D03*
%TD*%
D15*
%TO.C,R9*%
X117500000Y-88310000D03*
X117500000Y-90690000D03*
%TD*%
D27*
%TO.C,R6*%
X122500000Y-112450000D03*
X122500000Y-110550000D03*
%TD*%
D11*
%TO.C,J13*%
X155230000Y-102500000D03*
X157770000Y-102500000D03*
%TD*%
D19*
%TO.C,U4*%
X125060000Y-83000000D03*
X122520000Y-83000000D03*
X119980000Y-83000000D03*
X119980000Y-90620000D03*
X122520000Y-90620000D03*
X125060000Y-90620000D03*
%TD*%
D32*
%TO.C,C11*%
X102500000Y-102275000D03*
X102500000Y-97725000D03*
%TD*%
D18*
%TO.C,R10*%
X117500000Y-85690000D03*
X117500000Y-83310000D03*
%TD*%
D36*
%TO.C,C5*%
X143830000Y-95550000D03*
X143830000Y-96450000D03*
%TD*%
D19*
%TO.C,U5*%
X106680000Y-103310000D03*
X109220000Y-103310000D03*
X111760000Y-103310000D03*
X111760000Y-95690000D03*
X109220000Y-95690000D03*
X106680000Y-95690000D03*
%TD*%
D37*
%TO.C,D1*%
X145500000Y-83500000D03*
X145500000Y-87830000D03*
%TD*%
D32*
%TO.C,C12*%
X119140000Y-102500000D03*
X119140000Y-97950000D03*
%TD*%
D16*
%TO.C,C2*%
X158180000Y-91000000D03*
X156480000Y-91000000D03*
%TD*%
D38*
%TO.C,R2*%
X156000000Y-79034000D03*
X156000000Y-81966000D03*
%TD*%
D11*
%TO.C,J1*%
X156850000Y-110740000D03*
X154310000Y-110740000D03*
X151770000Y-110740000D03*
X149230000Y-110740000D03*
X146690000Y-110740000D03*
X144150000Y-110740000D03*
%TD*%
D32*
%TO.C,C9*%
X139000000Y-111050000D03*
X139000000Y-106500000D03*
%TD*%
%TO.C,C10*%
X129560000Y-88500000D03*
X129560000Y-83950000D03*
%TD*%
D19*
%TO.C,U6*%
X123640000Y-103500000D03*
X126180000Y-103500000D03*
X128720000Y-103500000D03*
X128720000Y-95880000D03*
X126180000Y-95880000D03*
X123640000Y-95880000D03*
%TD*%
D11*
%TO.C,J11*%
X178540000Y-76500000D03*
X176000000Y-76500000D03*
X173460000Y-76500000D03*
X170920000Y-76500000D03*
X168380000Y-76500000D03*
X165840000Y-76500000D03*
%TD*%
D39*
%TO.C,C3*%
X143830000Y-94450000D03*
X143830000Y-93550000D03*
%TD*%
D26*
%TO.C,J3*%
X141263750Y-77500000D03*
D11*
X137763750Y-77500000D03*
X134263750Y-77500000D03*
%TD*%
%TO.C,J2*%
X159460000Y-76500000D03*
X162000000Y-76500000D03*
%TD*%
M02*
