%TF.GenerationSoftware,KiCad,Pcbnew,10.0.0*%
%TF.CreationDate,2026-10-01T06:28:43+05:30*%
%TF.ProjectId,V3_6Channels,56335f36-4368-4616-9e6e-656c732e6b69,rev?*%
%TF.SameCoordinates,Original*%
%TF.FileFunction,Paste,Top*%
%TF.FilePolarity,Positive*%
%FSLAX46Y46*%
G04 Gerber Fmt 4.6, Leading zero omitted, Abs format (unit mm)*
G04 Created by KiCad (PCBNEW 10.0.0) date 2026-10-01 06:28:43*
%MOMM*%
%LPD*%
G01*
G04 APERTURE LIST*
G04 Aperture macros list*
%AMRoundRect*
0 Rectangle with rounded corners*
0 $1 Rounding radius*
0 $2 $3 $4 $5 $6 $7 $8 $9 X,Y pos of 4 corners*
0 Add a 4 corners polygon primitive as box body*
4,1,4,$2,$3,$4,$5,$6,$7,$8,$9,$2,$3,0*
0 Add four circle primitives for the rounded corners*
1,1,$1+$1,$2,$3*
1,1,$1+$1,$4,$5*
1,1,$1+$1,$6,$7*
1,1,$1+$1,$8,$9*
0 Add four rect primitives between the rounded corners*
20,1,$1+$1,$2,$3,$4,$5,0*
20,1,$1+$1,$4,$5,$6,$7,0*
20,1,$1+$1,$6,$7,$8,$9,0*
20,1,$1+$1,$8,$9,$2,$3,0*%
G04 Aperture macros list end*
%ADD10R,1.380000X1.010000*%
%ADD11R,1.010000X1.380000*%
%ADD12R,1.820000X1.740000*%
%ADD13R,1.100000X1.000000*%
%ADD14R,1.740000X1.820000*%
%ADD15RoundRect,0.062500X0.187500X0.237500X-0.187500X0.237500X-0.187500X-0.237500X0.187500X-0.237500X0*%
%ADD16RoundRect,0.073750X0.911250X0.221250X-0.911250X0.221250X-0.911250X-0.221250X0.911250X-0.221250X0*%
%ADD17RoundRect,0.068750X0.666250X0.206250X-0.666250X0.206250X-0.666250X-0.206250X0.666250X-0.206250X0*%
%ADD18RoundRect,0.068750X0.206250X0.666250X-0.206250X0.666250X-0.206250X-0.666250X0.206250X-0.666250X0*%
%ADD19R,1.420000X1.200000*%
%ADD20RoundRect,0.197500X0.592500X-1.332500X0.592500X1.332500X-0.592500X1.332500X-0.592500X-1.332500X0*%
%ADD21R,1.050000X1.300000*%
%ADD22RoundRect,0.197500X-0.592500X1.332500X-0.592500X-1.332500X0.592500X-1.332500X0.592500X1.332500X0*%
%ADD23RoundRect,0.062500X-0.237500X0.187500X-0.237500X-0.187500X0.237500X-0.187500X0.237500X0.187500X0*%
%ADD24R,2.120000X2.280000*%
%ADD25R,1.770000X1.230000*%
%ADD26RoundRect,0.062500X0.237500X-0.187500X0.237500X0.187500X-0.237500X0.187500X-0.237500X-0.187500X0*%
G04 APERTURE END LIST*
D10*
%TO.C,R23*%
X120000000Y-110550000D03*
X120000000Y-112450000D03*
%TD*%
D11*
%TO.C,R12*%
X116550000Y-93070000D03*
X118450000Y-93070000D03*
%TD*%
D12*
%TO.C,R18*%
X131640000Y-100810000D03*
X131640000Y-103190000D03*
%TD*%
D13*
%TO.C,C1*%
X158180000Y-97000000D03*
X156480000Y-97000000D03*
%TD*%
D14*
%TO.C,R21*%
X119690000Y-106000000D03*
X117310000Y-106000000D03*
%TD*%
D12*
%TO.C,R14*%
X114720000Y-103190000D03*
X114720000Y-100810000D03*
%TD*%
D15*
%TO.C,C4*%
X157450000Y-98500000D03*
X156550000Y-98500000D03*
%TD*%
D11*
%TO.C,R27*%
X105505555Y-92960000D03*
X103605555Y-92960000D03*
%TD*%
D16*
%TO.C,U1*%
X156475000Y-87905000D03*
X156475000Y-86635000D03*
X156475000Y-85365000D03*
X156475000Y-84095000D03*
X151525000Y-84095000D03*
X151525000Y-85365000D03*
X151525000Y-86635000D03*
X151525000Y-87905000D03*
%TD*%
D12*
%TO.C,R17*%
X131640000Y-95810000D03*
X131640000Y-98190000D03*
%TD*%
%TO.C,R25*%
X100500000Y-88000000D03*
X100500000Y-90380000D03*
%TD*%
D17*
%TO.C,U3*%
X154170000Y-98300000D03*
X154170000Y-97500000D03*
X154170000Y-96700000D03*
X154170000Y-95900000D03*
X154170000Y-95100000D03*
X154170000Y-94300000D03*
X154170000Y-93500000D03*
X154170000Y-92700000D03*
D18*
X152800000Y-91330000D03*
X152000000Y-91330000D03*
X151200000Y-91330000D03*
X150400000Y-91330000D03*
X149600000Y-91330000D03*
X148800000Y-91330000D03*
X148000000Y-91330000D03*
X147200000Y-91330000D03*
D17*
X145830000Y-92700000D03*
X145830000Y-93500000D03*
X145830000Y-94300000D03*
X145830000Y-95100000D03*
X145830000Y-95900000D03*
X145830000Y-96700000D03*
X145830000Y-97500000D03*
X145830000Y-98300000D03*
D18*
X147200000Y-99670000D03*
X148000000Y-99670000D03*
X148800000Y-99670000D03*
X149600000Y-99670000D03*
X150400000Y-99670000D03*
X151200000Y-99670000D03*
X152000000Y-99670000D03*
X152800000Y-99670000D03*
%TD*%
D15*
%TO.C,C8*%
X138450000Y-83000000D03*
X137550000Y-83000000D03*
%TD*%
D19*
%TO.C,R4*%
X149000000Y-83330000D03*
X149000000Y-85000000D03*
%TD*%
D11*
%TO.C,R1*%
X150750000Y-103000000D03*
X152650000Y-103000000D03*
%TD*%
D12*
%TO.C,R26*%
X100500000Y-85380000D03*
X100500000Y-83000000D03*
%TD*%
D15*
%TO.C,C6*%
X149150000Y-101500000D03*
X148250000Y-101500000D03*
%TD*%
D10*
%TO.C,R24*%
X117500000Y-112400000D03*
X117500000Y-110500000D03*
%TD*%
%TO.C,R5*%
X125000000Y-112450000D03*
X125000000Y-110550000D03*
%TD*%
D20*
%TO.C,C13*%
X102500000Y-106225000D03*
X102500000Y-110775000D03*
%TD*%
D14*
%TO.C,R8*%
X125190000Y-108500000D03*
X122810000Y-108500000D03*
%TD*%
D12*
%TO.C,R13*%
X114720000Y-96194000D03*
X114720000Y-98574000D03*
%TD*%
D14*
%TO.C,R22*%
X117310000Y-108500000D03*
X119690000Y-108500000D03*
%TD*%
D11*
%TO.C,R15*%
X107327778Y-92880000D03*
X109227778Y-92880000D03*
%TD*%
%TO.C,R28*%
X101783333Y-93000000D03*
X99883333Y-93000000D03*
%TD*%
D21*
%TO.C,Y1*%
X156455000Y-92850000D03*
X156455000Y-95150000D03*
X158205000Y-95150000D03*
X158205000Y-92850000D03*
%TD*%
D19*
%TO.C,R3*%
X149000000Y-88500000D03*
X149000000Y-86830000D03*
%TD*%
D22*
%TO.C,C14*%
X113000000Y-88655000D03*
X113000000Y-84105000D03*
%TD*%
D11*
%TO.C,R19*%
X123943333Y-93000000D03*
X125843333Y-93000000D03*
%TD*%
%TO.C,R20*%
X127610000Y-93000000D03*
X129510000Y-93000000D03*
%TD*%
D14*
%TO.C,R7*%
X122310000Y-106000000D03*
X124690000Y-106000000D03*
%TD*%
D11*
%TO.C,R16*%
X111050000Y-92920000D03*
X112950000Y-92920000D03*
%TD*%
%TO.C,R11*%
X122166667Y-93000000D03*
X120266667Y-93000000D03*
%TD*%
D15*
%TO.C,C7*%
X153950000Y-82500000D03*
X153050000Y-82500000D03*
%TD*%
D12*
%TO.C,R9*%
X117500000Y-88310000D03*
X117500000Y-90690000D03*
%TD*%
D10*
%TO.C,R6*%
X122500000Y-112450000D03*
X122500000Y-110550000D03*
%TD*%
D22*
%TO.C,C11*%
X102500000Y-102275000D03*
X102500000Y-97725000D03*
%TD*%
D12*
%TO.C,R10*%
X117500000Y-85690000D03*
X117500000Y-83310000D03*
%TD*%
D23*
%TO.C,C5*%
X143830000Y-95550000D03*
X143830000Y-96450000D03*
%TD*%
D24*
%TO.C,D1*%
X145500000Y-83500000D03*
X145500000Y-87830000D03*
%TD*%
D22*
%TO.C,C12*%
X119140000Y-102500000D03*
X119140000Y-97950000D03*
%TD*%
D13*
%TO.C,C2*%
X158180000Y-91000000D03*
X156480000Y-91000000D03*
%TD*%
D25*
%TO.C,R2*%
X156000000Y-79034000D03*
X156000000Y-81966000D03*
%TD*%
D22*
%TO.C,C9*%
X139000000Y-111050000D03*
X139000000Y-106500000D03*
%TD*%
%TO.C,C10*%
X129560000Y-88500000D03*
X129560000Y-83950000D03*
%TD*%
D26*
%TO.C,C3*%
X143830000Y-94450000D03*
X143830000Y-93550000D03*
%TD*%
M02*
