%TF.GenerationSoftware,KiCad,Pcbnew,10.0.0*%
%TF.CreationDate,2026-10-01T06:28:43+05:30*%
%TF.ProjectId,V3_6Channels,56335f36-4368-4616-9e6e-656c732e6b69,rev?*%
%TF.SameCoordinates,Original*%
%TF.FileFunction,Legend,Bot*%
%TF.FilePolarity,Positive*%
%FSLAX46Y46*%
G04 Gerber Fmt 4.6, Leading zero omitted, Abs format (unit mm)*
G04 Created by KiCad (PCBNEW 10.0.0) date 2026-10-01 06:28:43*
%MOMM*%
%LPD*%
G01*
G04 APERTURE LIST*
%ADD10C,0.300000*%
G04 APERTURE END LIST*
D10*
X103650000Y-75949171D02*
X103250000Y-75949171D01*
X103250000Y-75949171D02*
X103050000Y-75877742D01*
X103050000Y-75877742D02*
X102950000Y-75806314D01*
X102950000Y-75806314D02*
X102750000Y-75592028D01*
X102750000Y-75592028D02*
X102650000Y-75306314D01*
X102650000Y-75306314D02*
X102650000Y-74734885D01*
X102650000Y-74734885D02*
X102750000Y-74592028D01*
X102750000Y-74592028D02*
X102850000Y-74520600D01*
X102850000Y-74520600D02*
X103050000Y-74449171D01*
X103050000Y-74449171D02*
X103450000Y-74449171D01*
X103450000Y-74449171D02*
X103650000Y-74520600D01*
X103650000Y-74520600D02*
X103750000Y-74592028D01*
X103750000Y-74592028D02*
X103850000Y-74734885D01*
X103850000Y-74734885D02*
X103850000Y-75092028D01*
X103850000Y-75092028D02*
X103750000Y-75234885D01*
X103750000Y-75234885D02*
X103650000Y-75306314D01*
X103650000Y-75306314D02*
X103450000Y-75377742D01*
X103450000Y-75377742D02*
X103050000Y-75377742D01*
X103050000Y-75377742D02*
X102850000Y-75306314D01*
X102850000Y-75306314D02*
X102750000Y-75234885D01*
X102750000Y-75234885D02*
X102650000Y-75092028D01*
X108950000Y-75949171D02*
X107950000Y-75949171D01*
X107950000Y-75949171D02*
X107850000Y-75234885D01*
X107850000Y-75234885D02*
X107950000Y-75306314D01*
X107950000Y-75306314D02*
X108150000Y-75377742D01*
X108150000Y-75377742D02*
X108650000Y-75377742D01*
X108650000Y-75377742D02*
X108850000Y-75306314D01*
X108850000Y-75306314D02*
X108950000Y-75234885D01*
X108950000Y-75234885D02*
X109050000Y-75092028D01*
X109050000Y-75092028D02*
X109050000Y-74734885D01*
X109050000Y-74734885D02*
X108950000Y-74592028D01*
X108950000Y-74592028D02*
X108850000Y-74520600D01*
X108850000Y-74520600D02*
X108650000Y-74449171D01*
X108650000Y-74449171D02*
X108150000Y-74449171D01*
X108150000Y-74449171D02*
X107950000Y-74520600D01*
X107950000Y-74520600D02*
X107850000Y-74592028D01*
X114050000Y-75449171D02*
X114050000Y-74449171D01*
X113550000Y-76020600D02*
X113050000Y-74949171D01*
X113050000Y-74949171D02*
X114350000Y-74949171D01*
X118150000Y-75949171D02*
X119450000Y-75949171D01*
X119450000Y-75949171D02*
X118750000Y-75377742D01*
X118750000Y-75377742D02*
X119050000Y-75377742D01*
X119050000Y-75377742D02*
X119250000Y-75306314D01*
X119250000Y-75306314D02*
X119350000Y-75234885D01*
X119350000Y-75234885D02*
X119450000Y-75092028D01*
X119450000Y-75092028D02*
X119450000Y-74734885D01*
X119450000Y-74734885D02*
X119350000Y-74592028D01*
X119350000Y-74592028D02*
X119250000Y-74520600D01*
X119250000Y-74520600D02*
X119050000Y-74449171D01*
X119050000Y-74449171D02*
X118450000Y-74449171D01*
X118450000Y-74449171D02*
X118250000Y-74520600D01*
X118250000Y-74520600D02*
X118150000Y-74592028D01*
X123450000Y-75806314D02*
X123550000Y-75877742D01*
X123550000Y-75877742D02*
X123750000Y-75949171D01*
X123750000Y-75949171D02*
X124250000Y-75949171D01*
X124250000Y-75949171D02*
X124450000Y-75877742D01*
X124450000Y-75877742D02*
X124550000Y-75806314D01*
X124550000Y-75806314D02*
X124650000Y-75663457D01*
X124650000Y-75663457D02*
X124650000Y-75520600D01*
X124650000Y-75520600D02*
X124550000Y-75306314D01*
X124550000Y-75306314D02*
X123350000Y-74449171D01*
X123350000Y-74449171D02*
X124650000Y-74449171D01*
X129850000Y-74449171D02*
X128650000Y-74449171D01*
X129250000Y-74449171D02*
X129250000Y-75949171D01*
X129250000Y-75949171D02*
X129050000Y-75734885D01*
X129050000Y-75734885D02*
X128850000Y-75592028D01*
X128850000Y-75592028D02*
X128650000Y-75520600D01*
M02*
