M48
; DRILL file KiCad 10.0.0 date 2026-10-01T06:29:00
; FORMAT={-:-/ absolute / metric / decimal}
; #@! TF.CreationDate,2026-10-01T06:29:00+05:30
; #@! TF.GenerationSoftware,Kicad,Pcbnew,10.0.0
; #@! TF.FileFunction,Plated,1,2,PTH
FMAT,2
METRIC
; #@! TA.AperFunction,Plated,PTH,ViaDrill
T1C0.300
; #@! TA.AperFunction,Plated,PTH,ComponentDrill
T2C0.780
; #@! TA.AperFunction,Plated,PTH,ComponentDrill
T3C0.800
; #@! TA.AperFunction,Plated,PTH,ComponentDrill
T4C1.000
; #@! TA.AperFunction,Plated,PTH,ComponentDrill
T5C1.100
%
G90
G05
T1
X99.086Y-110.914
X100.75Y-96.82
X101.0Y-106.5
X105.0Y-94.5
X110.0Y-91.5
X111.0Y-87.5
X111.25Y-105.25
X111.5Y-110.065
X113.0Y-91.5
X115.95Y-95.005
X116.0Y-87.0
X116.0Y-91.5
X116.349Y-94.43
X116.5Y-103.5
X117.0Y-101.0
X118.599Y-109.807
X118.941Y-112.149
X120.0Y-87.0
X121.0Y-109.0
X121.14Y-112.75
X121.309Y-107.611
X126.5Y-80.5
X128.0Y-88.0
X129.5Y-102.011
X129.5Y-112.0
X135.5Y-86.5
X136.5Y-88.5
X137.0Y-84.5
X138.723Y-95.277
X139.0Y-90.0
X140.34Y-94.63
X140.701Y-112.75
X141.0Y-82.85
X144.31Y-98.19
X147.014Y-94.065
X147.35Y-98.485
X147.471Y-92.529
X147.497Y-93.491
X147.85Y-101.0
X148.0Y-94.5
X149.45Y-96.418
X149.5Y-95.15
X149.635Y-103.365
X149.694Y-92.565
X150.3Y-96.759
X150.4Y-101.5
X150.538Y-98.377
X150.61Y-97.496
X151.525Y-89.025
X151.709Y-97.3
X152.985Y-93.5
X153.0Y-98.3
X153.05Y-84.0
X154.6Y-84.0
X160.5Y-105.5
X161.0Y-97.5
X162.215Y-101.365
X163.0Y-102.5
X164.0Y-102.0
X166.0Y-87.5
X167.0Y-100.0
X168.655Y-87.5
X171.0Y-87.5
T2
X134.06Y-84.8
X134.06Y-87.34
X134.06Y-89.88
X134.06Y-92.42
X134.06Y-94.96
X134.06Y-97.5
X134.06Y-100.04
X134.06Y-102.58
X142.0Y-84.8
X142.0Y-87.34
X142.0Y-89.88
X142.0Y-92.42
X142.0Y-94.96
X142.0Y-97.5
X142.0Y-100.04
X142.0Y-102.58
T3
X103.46Y-82.88
X103.46Y-90.5
X106.0Y-82.88
X106.0Y-90.5
X106.68Y-95.69
X106.68Y-103.31
X107.19Y-106.42
X107.19Y-108.96
X107.19Y-111.5
X108.54Y-82.88
X108.54Y-90.5
X109.22Y-95.69
X109.22Y-103.31
X111.76Y-95.69
X111.76Y-103.31
X114.81Y-106.42
X114.81Y-108.96
X114.81Y-111.5
X119.98Y-83.0
X119.98Y-90.62
X122.52Y-83.0
X122.52Y-90.62
X123.64Y-95.88
X123.64Y-103.5
X125.06Y-83.0
X125.06Y-90.62
X126.18Y-95.88
X126.18Y-103.5
X127.5Y-106.0
X127.5Y-108.54
X127.5Y-111.08
X128.72Y-95.88
X128.72Y-103.5
X135.12Y-106.0
X135.12Y-108.54
X135.12Y-111.08
T4
X162.3Y-110.7
X167.5Y-81.3
X172.5Y-81.3
X177.7Y-110.7
T5
X96.5Y-85.96
X96.5Y-88.5
X96.5Y-91.04
X96.5Y-93.58
X96.5Y-96.12
X96.5Y-98.66
X96.5Y-101.2
X103.68Y-77.5
X108.76Y-77.5
X113.84Y-77.5
X118.92Y-77.5
X124.0Y-77.5
X129.08Y-77.5
X134.264Y-77.5
X137.764Y-77.5
X141.264Y-77.5
X144.15Y-106.5
X144.15Y-110.74
X146.42Y-77.5
X146.69Y-106.5
X146.69Y-110.74
X149.23Y-106.5
X149.23Y-110.74
X151.5Y-77.5
X151.77Y-106.5
X151.77Y-110.74
X154.31Y-106.5
X154.31Y-110.74
X155.23Y-102.5
X156.85Y-106.5
X156.85Y-110.74
X157.77Y-102.5
X159.46Y-76.5
X162.0Y-76.5
X165.84Y-76.5
X168.38Y-76.5
X170.92Y-76.5
X173.46Y-76.5
X176.0Y-76.5
X178.54Y-76.5
M30
